{"glyphs":{"0":{"ha":694,"x_min":81,"x_max":614,"o":"m 614 418 q 596 252 614 331 q 543 113 578 173 q 459 18 509 53 q 344 -17 408 -17 q 234 12 283 -17 q 151 95 185 41 q 99 228 117 150 q 81 406 81 306 q 99 572 81 493 q 151 710 117 651 q 237 805 186 770 q 353 840 288 840 q 463 811 415 840 q 545 728 512 783 q 596 596 578 674 q 614 418 614 517 m 165 426 q 168 352 165 390 q 178 278 171 314 q 199 210 186 242 q 232 154 212 178 q 279 117 251 131 q 343 103 306 103 q 431 125 395 103 q 488 188 466 148 q 519 281 510 227 q 529 396 529 334 q 526 471 529 433 q 516 546 524 510 q 495 614 508 582 q 463 669 483 646 q 416 707 443 693 q 351 721 388 721 q 264 698 299 721 q 206 636 228 676 q 175 543 184 597 q 165 426 165 489 z "},"1":{"ha":694,"x_min":104,"x_max":539,"o":"m 306 729 l 104 678 l 111 756 q 205 776 164 767 q 284 796 247 786 q 359 817 322 806 q 439 840 396 828 q 436 708 438 781 q 434 562 435 645 q 433 382 433 479 l 433 164 q 436 91 433 118 q 453 58 438 65 q 469 54 460 55 q 494 53 478 53 q 508 53 501 53 q 523 53 516 53 q 539 54 531 53 l 526 0 l 217 -4 l 226 44 q 245 47 236 44 q 261 51 253 48 q 276 60 270 54 q 294 93 288 69 q 302 150 300 116 q 305 227 305 184 q 306 321 306 271 l 306 729 z "},"2":{"ha":694,"x_min":71,"x_max":599,"o":"m 435 69 q 478 81 460 69 q 508 111 496 93 q 529 150 521 128 q 543 190 537 171 l 599 176 l 542 3 l 539 0 l 90 0 l 71 67 q 249 269 170 169 q 315 358 283 312 q 372 450 347 404 q 413 538 397 495 q 428 618 428 581 q 419 672 428 647 q 393 715 410 697 q 351 745 376 734 q 292 756 326 756 q 257 752 276 756 q 222 742 239 748 q 193 729 206 736 q 176 715 180 722 q 170 698 174 710 q 164 671 167 687 q 158 635 161 655 q 153 596 155 616 l 101 610 l 104 785 q 173 813 135 800 q 248 832 205 823 q 340 840 290 840 q 419 830 381 840 q 489 797 458 820 q 537 735 519 774 q 556 639 556 696 q 539 545 556 594 q 495 449 522 497 q 434 353 468 400 q 363 264 399 306 q 171 68 278 165 l 435 69 z "},"3":{"ha":694,"x_min":63,"x_max":568,"o":"m 568 222 q 545 123 568 167 q 481 48 522 79 q 385 0 440 17 q 264 -17 329 -17 q 189 -10 224 -17 q 124 5 153 -3 q 63 26 91 14 l 71 69 q 113 63 90 65 q 157 58 133 60 q 208 56 182 56 q 306 66 263 56 q 379 97 349 76 q 425 149 409 118 q 440 222 440 181 q 431 274 440 252 q 407 313 422 297 q 372 341 392 330 q 333 360 353 353 q 225 381 285 378 l 225 431 q 255 435 236 431 q 296 450 274 440 q 340 476 318 460 q 380 515 363 492 q 409 566 398 538 q 421 632 421 595 q 409 686 421 663 q 378 725 398 710 q 334 749 359 741 q 282 757 309 757 q 248 753 266 757 q 213 743 229 749 q 183 730 196 737 q 167 715 170 722 q 161 698 164 710 q 155 671 158 687 q 148 635 151 655 q 143 596 145 616 l 92 610 l 94 785 q 160 813 124 800 q 231 832 190 823 q 319 840 272 840 q 406 828 365 840 q 477 793 447 817 q 526 735 508 770 q 544 653 544 699 q 536 595 544 622 q 516 547 528 569 q 486 507 503 524 q 453 476 470 489 q 361 424 413 443 q 465 390 419 415 q 502 365 484 380 q 535 330 521 350 q 559 283 550 309 q 568 222 568 256 z "},"4":{"ha":694,"x_min":25,"x_max":639,"o":"m 25 207 l 451 836 l 519 836 q 518 706 519 777 q 517 562 517 644 q 517 382 517 479 l 517 265 l 639 269 l 632 192 l 518 189 q 519 119 519 153 q 520 58 519 85 q 521 0 521 27 l 394 0 q 395 55 394 25 q 396 114 396 80 q 397 185 397 147 l 36 174 l 25 207 m 406 660 l 139 256 l 399 263 q 399 301 399 283 q 400 334 399 317 q 400 363 400 351 l 406 660 z "},"5":{"ha":694,"x_min":78,"x_max":583,"o":"m 86 61 q 108 58 96 60 q 134 56 119 57 q 167 56 149 56 q 300 71 244 56 q 389 112 355 87 q 440 170 424 138 q 456 236 456 202 q 434 320 456 285 q 376 376 413 354 q 291 407 340 397 q 188 417 242 417 q 158 416 172 417 q 135 416 144 416 q 114 415 123 415 l 139 806 l 144 819 l 574 833 l 564 726 l 208 721 l 194 499 q 272 495 229 499 q 358 480 315 491 q 441 451 401 469 q 514 405 482 433 q 564 336 545 376 q 583 243 583 297 q 557 132 583 181 q 486 51 531 84 q 384 0 442 17 q 264 -17 326 -17 q 193 -11 227 -17 q 134 1 160 -6 q 78 18 103 8 l 86 61 z "},"6":{"ha":694,"x_min":75,"x_max":633,"o":"m 604 788 q 533 775 574 785 q 447 744 492 765 q 358 691 402 723 q 279 611 314 658 q 222 503 244 565 q 200 361 200 441 q 216 215 200 272 q 257 123 231 157 q 314 75 282 88 q 379 61 347 61 q 443 78 417 61 q 485 120 469 94 q 509 177 502 147 q 517 236 517 208 q 506 307 517 275 q 475 362 495 339 q 426 397 456 385 q 361 410 397 410 q 316 403 338 410 q 278 389 294 397 q 243 368 260 380 l 215 393 q 271 436 240 417 q 333 466 297 452 q 410 479 368 479 q 492 464 451 479 q 563 418 532 449 q 614 344 594 388 q 633 243 633 300 q 615 136 633 184 q 563 54 597 88 q 483 2 530 20 q 379 -17 436 -17 q 258 7 313 -17 q 161 75 202 30 q 98 184 121 119 q 75 333 75 249 q 104 506 75 431 q 180 639 133 582 q 284 735 226 696 q 401 799 342 774 q 511 835 459 824 q 599 847 563 847 l 604 788 z "},"7":{"ha":694,"x_min":101,"x_max":650,"o":"m 225 719 q 192 717 205 719 q 174 704 180 715 q 166 681 169 697 q 159 646 162 664 q 153 601 156 625 l 101 615 l 104 847 l 153 835 q 156 827 153 830 q 174 819 161 819 l 644 829 l 650 815 l 208 -21 l 122 22 q 178 117 147 65 q 241 227 208 170 q 308 344 274 285 q 374 459 342 403 q 525 726 447 589 l 225 719 z "},"8":{"ha":694,"x_min":67,"x_max":628,"o":"m 282 383 q 215 432 249 406 q 152 488 181 458 q 105 555 123 519 q 86 632 86 590 q 108 723 86 684 q 167 789 131 763 q 251 828 203 815 q 347 842 298 842 q 443 828 397 842 q 525 788 490 814 q 582 726 560 763 q 603 646 603 690 q 583 567 603 600 q 536 511 564 533 q 478 476 508 488 q 426 458 448 463 l 400 482 q 436 507 418 493 q 468 539 454 521 q 491 581 483 558 q 500 632 500 603 q 488 694 500 668 q 456 736 476 719 q 407 759 435 752 q 347 767 379 767 q 293 760 319 767 q 247 741 267 754 q 215 706 227 727 q 203 653 203 684 q 220 594 203 622 q 266 543 238 567 q 328 498 294 519 q 396 454 363 476 q 475 401 434 430 q 550 340 516 372 q 606 271 584 308 q 628 194 628 235 q 607 109 627 147 q 549 42 586 70 q 461 -1 513 14 q 347 -17 410 -17 q 283 -12 316 -17 q 219 4 250 -7 q 160 32 188 15 q 112 72 133 49 q 79 126 91 95 q 67 194 67 156 q 85 267 67 235 q 130 322 103 299 q 187 361 156 345 q 242 389 217 378 l 269 364 q 233 336 250 352 q 202 300 215 320 q 182 257 190 281 q 175 208 174 234 q 192 139 176 167 q 234 94 209 111 q 289 71 259 78 q 347 64 319 64 q 401 70 374 64 q 450 90 428 76 q 486 124 472 103 q 500 174 500 145 q 480 235 500 208 q 427 287 459 263 q 357 335 395 312 q 282 383 318 358 z "},"9":{"ha":694,"x_min":61,"x_max":619,"o":"m 97 43 q 167 56 126 45 q 252 86 208 66 q 340 139 297 106 q 418 218 383 172 q 473 328 452 265 q 494 472 494 390 q 480 615 494 558 q 440 704 465 671 q 384 751 415 738 q 319 764 352 764 q 255 747 282 764 q 211 705 228 731 q 186 648 194 678 q 178 589 178 617 q 189 518 178 550 q 219 463 199 486 q 268 428 239 440 q 333 415 297 415 q 378 422 357 415 q 416 436 400 428 q 451 457 435 445 l 479 432 q 424 389 454 408 q 362 359 397 373 q 285 346 326 346 q 203 361 243 346 q 131 407 163 376 q 81 481 100 437 q 61 582 61 524 q 80 689 61 641 q 133 771 99 737 q 215 823 167 805 q 319 842 262 842 q 440 818 385 842 q 535 751 495 795 q 597 644 575 708 q 619 500 619 581 q 591 324 619 401 q 518 190 563 247 q 416 93 473 133 q 302 29 360 53 q 192 -6 244 5 q 103 -17 140 -17 l 97 43 z "},"\u0000":{"ha":347,"x_min":0,"x_max":0,"o":""},"\r":{"ha":347,"x_min":0,"x_max":0,"o":""}," ":{"ha":347,"x_min":0,"x_max":0,"o":""},"!":{"ha":458,"x_min":144,"x_max":317,"o":"m 307 850 q 304 797 306 831 q 298 719 301 763 q 290 627 294 676 q 282 530 286 578 q 260 285 272 416 l 197 271 q 192 376 195 322 q 186 479 190 422 q 178 592 183 536 q 167 714 172 662 q 158 801 162 765 q 149 871 153 842 q 181 890 164 882 q 213 904 194 898 q 249 910 231 910 q 295 893 282 910 q 307 850 308 876 m 144 58 q 148 93 144 78 q 156 121 151 109 q 168 144 161 134 q 184 149 175 147 q 202 151 192 150 q 224 153 212 153 q 251 151 235 153 q 282 141 267 149 q 307 119 297 134 q 317 79 317 105 q 313 44 317 60 q 305 16 309 28 q 293 -8 299 3 q 276 -12 285 -10 q 259 -15 269 -14 q 238 -17 249 -17 q 210 -15 226 -17 q 179 -5 194 -12 q 155 18 165 3 q 144 58 144 33 z "},"\"":{"ha":597,"x_min":117,"x_max":497,"o":"m 149 674 q 133 771 140 723 q 126 813 129 791 q 122 855 124 834 q 118 895 119 876 q 117 931 117 915 q 119 962 117 946 q 128 991 122 978 q 146 1013 135 1004 q 174 1021 157 1021 q 203 1017 190 1021 q 226 1007 216 1013 q 247 993 238 1001 l 190 667 l 149 674 m 399 674 q 383 771 390 723 q 376 813 379 791 q 372 855 374 834 q 368 895 369 876 q 367 931 367 915 q 369 962 367 946 q 378 991 372 978 q 396 1013 385 1004 q 424 1021 407 1021 q 453 1017 440 1021 q 476 1007 466 1013 q 497 993 488 1001 l 440 667 l 399 674 z "},"#":{"ha":694,"x_min":-4,"x_max":699,"o":"m 421 264 l 446 435 l 267 435 l 242 264 l 421 264 m 453 4 q 448 -5 452 -1 q 436 -11 443 -8 q 420 -15 428 -14 q 403 -17 411 -17 q 385 -9 389 -17 q 382 4 381 -1 l 411 203 l 232 203 l 201 4 q 196 -5 201 -1 q 184 -11 192 -8 q 168 -15 177 -14 q 151 -17 160 -17 q 133 -9 138 -17 q 131 4 129 -1 l 160 203 l 43 201 q 9 211 22 201 q -4 238 -4 222 q 7 259 -4 253 q 43 265 19 265 l 169 264 l 194 435 l 76 433 q 42 443 56 433 q 29 469 29 453 q 41 492 29 485 q 76 499 52 499 l 206 497 l 235 688 q 240 696 235 692 q 252 703 244 700 q 268 707 259 706 q 285 708 276 708 q 303 701 299 708 q 306 688 307 693 l 276 497 l 457 497 l 486 688 q 491 696 487 692 q 503 703 496 700 q 519 707 510 706 q 536 708 528 708 q 554 701 550 708 q 557 688 558 693 l 528 497 l 651 499 q 685 488 672 499 q 699 461 699 477 q 687 439 699 445 q 651 433 676 433 l 518 435 l 493 264 l 618 265 q 652 255 639 265 q 665 229 665 245 q 654 207 665 213 q 618 201 642 201 l 483 203 l 453 4 z "},"$":{"ha":694,"x_min":83,"x_max":594,"o":"m 311 -7 q 230 3 267 -6 q 164 24 192 13 q 103 53 131 36 l 83 207 l 133 219 q 169 143 144 176 q 193 115 179 128 q 226 91 207 101 q 268 73 244 80 q 319 67 291 67 q 373 73 346 67 q 423 94 401 80 q 458 132 444 109 q 472 188 472 155 q 456 247 472 220 q 415 296 440 273 q 356 340 389 319 q 288 383 323 361 q 220 429 253 405 q 162 482 188 453 q 120 545 136 510 q 104 625 104 581 q 124 707 104 672 q 174 766 144 742 q 241 804 204 790 q 311 824 277 818 l 311 925 l 375 925 l 375 828 q 428 822 405 826 q 468 811 451 817 q 496 802 485 806 q 515 799 508 799 q 525 802 522 799 q 529 811 528 806 q 531 824 531 817 l 585 838 l 590 632 l 535 617 l 533 636 q 514 692 531 670 q 473 728 497 715 q 420 747 449 742 q 368 753 392 753 q 317 747 342 753 q 272 728 292 741 q 239 694 251 715 q 226 643 226 673 q 242 587 226 613 q 284 539 258 562 q 343 493 310 515 q 410 449 376 472 q 478 401 445 426 q 537 347 511 376 q 578 283 563 317 q 594 207 594 249 q 575 123 594 159 q 524 60 556 86 q 454 19 493 35 q 375 -3 415 3 l 375 -101 l 311 -101 l 311 -7 z "},"%":{"ha":1042,"x_min":96,"x_max":946,"o":"m 285 -25 l 226 11 l 757 850 l 815 814 l 285 -25 m 769 -17 q 699 -2 731 -17 q 643 40 667 13 q 607 108 620 68 q 594 197 594 147 q 607 288 594 248 q 643 356 620 328 q 699 398 667 383 q 769 413 731 413 q 841 398 808 413 q 897 356 874 383 q 933 288 920 328 q 946 197 946 248 q 933 108 946 147 q 897 40 920 68 q 841 -2 874 13 q 769 -17 808 -17 m 847 197 q 829 316 847 274 q 769 358 811 358 q 711 316 728 358 q 693 197 693 274 q 711 79 693 121 q 769 38 728 38 q 829 79 811 38 q 847 197 847 121 m 271 413 q 200 427 232 413 q 145 469 168 442 q 109 537 122 497 q 96 626 96 576 q 109 717 96 677 q 145 785 122 757 q 200 827 168 813 q 271 842 232 842 q 342 827 310 842 q 398 785 375 813 q 434 717 422 757 q 447 626 447 677 q 434 537 447 576 q 398 469 422 497 q 342 427 375 442 q 271 413 310 413 m 349 626 q 331 745 349 703 q 271 788 313 788 q 212 745 230 788 q 194 626 194 703 q 212 508 194 550 q 271 467 230 467 q 331 508 313 467 q 349 626 349 550 z "},"&":{"ha":875,"x_min":118,"x_max":883,"o":"m 599 275 q 690 177 649 222 q 765 100 731 133 q 826 50 799 68 q 879 29 854 31 l 883 11 q 856 -3 870 3 q 826 -12 843 -8 q 792 -17 810 -17 q 759 -13 776 -17 q 725 1 743 -9 q 684 28 706 11 q 635 74 663 46 l 611 97 q 551 40 586 65 q 475 1 520 19 q 368 -17 429 -17 q 279 -6 324 -17 q 199 30 235 6 q 141 91 163 53 q 118 181 118 128 q 125 231 118 208 q 145 275 133 255 q 173 310 157 294 q 205 339 188 326 q 292 388 243 368 l 319 363 q 278 324 297 347 q 251 273 263 303 q 239 201 238 243 q 252 139 240 165 q 285 96 264 113 q 334 72 306 79 q 396 64 363 64 q 478 73 443 64 q 538 93 513 82 q 586 122 565 106 q 522 187 553 155 q 495 214 509 200 q 468 242 481 228 q 442 269 454 256 q 421 292 430 282 q 336 380 379 336 q 259 469 294 424 q 202 557 224 513 q 181 646 181 601 q 202 732 181 695 q 257 793 223 769 q 335 830 292 817 q 422 842 378 842 q 514 828 471 842 q 589 790 557 815 q 641 729 622 765 q 660 646 660 692 q 652 595 660 619 q 632 553 644 572 q 604 518 619 534 q 572 491 588 503 q 483 446 533 463 l 457 469 q 506 513 484 488 q 540 566 524 534 q 556 639 556 597 q 545 697 556 673 q 517 736 535 721 q 477 759 500 752 q 431 767 455 767 q 387 761 409 767 q 347 742 365 755 q 317 708 328 728 q 306 657 306 687 q 313 610 306 633 q 335 563 320 588 q 374 511 351 538 q 431 449 398 483 q 505 372 463 415 q 599 275 547 329 z "},"'":{"ha":347,"x_min":117,"x_max":247,"o":"m 149 674 q 133 771 140 723 q 126 813 129 791 q 122 855 124 834 q 118 895 119 876 q 117 931 117 915 q 119 962 117 946 q 128 991 122 978 q 146 1013 135 1004 q 174 1021 157 1021 q 203 1017 190 1021 q 226 1007 216 1013 q 247 993 238 1001 l 190 667 l 149 674 z "},"(":{"ha":542,"x_min":79,"x_max":463,"o":"m 463 1035 q 454 1012 463 1023 q 431 989 445 1001 q 398 962 416 976 q 361 931 380 948 q 277 832 315 888 q 213 713 240 777 q 170 576 185 648 q 156 426 156 503 q 171 234 156 320 q 216 76 187 147 q 286 -52 245 6 q 378 -157 327 -109 q 403 -179 390 -168 q 428 -199 416 -190 q 454 -218 441 -209 q 440 -241 454 -232 q 407 -250 425 -250 q 352 -233 378 -250 q 300 -190 326 -215 q 214 -87 254 -147 q 144 51 174 -26 q 97 222 114 128 q 79 426 79 316 q 92 575 79 506 q 126 703 105 644 q 175 812 148 763 q 231 901 202 861 q 382 1058 297 993 q 393 1062 387 1060 q 406 1064 399 1063 q 422 1065 413 1065 q 450 1058 437 1065 q 463 1035 463 1051 z "},")":{"ha":542,"x_min":79,"x_max":463,"o":"m 79 -218 q 88 -195 79 -206 q 111 -172 97 -184 q 144 -146 126 -160 q 181 -114 162 -132 q 264 -16 226 -72 q 329 103 302 39 q 371 241 356 168 q 386 390 386 313 q 370 583 386 497 q 326 740 355 669 q 256 868 297 811 q 164 974 215 926 q 139 995 152 985 q 114 1015 126 1006 q 88 1035 101 1026 q 102 1058 88 1049 q 135 1067 117 1067 q 189 1049 163 1067 q 242 1007 215 1032 q 328 903 288 964 q 398 766 368 843 q 445 595 428 689 q 463 390 463 501 q 450 242 463 311 q 415 114 437 173 q 367 5 394 54 q 311 -84 340 -44 q 160 -242 244 -177 q 149 -245 155 -244 q 119 -249 137 -249 q 92 -241 105 -249 q 79 -218 79 -234 z "},"*":{"ha":694,"x_min":147,"x_max":547,"o":"m 192 976 q 224 955 206 967 q 261 928 242 942 q 297 901 279 915 q 328 876 314 888 q 323 923 326 898 q 318 971 321 947 q 312 1017 315 995 q 306 1054 309 1038 q 320 1062 313 1058 q 335 1067 326 1065 q 351 1069 343 1069 q 373 1063 367 1069 q 378 1044 378 1056 q 375 1002 378 1026 q 370 954 373 978 q 363 907 367 930 q 357 868 360 884 q 397 895 376 881 q 438 925 418 910 q 476 955 458 940 q 506 981 494 969 q 519 972 512 977 q 533 960 526 967 q 543 947 539 954 q 547 932 547 939 q 543 921 547 926 q 533 913 540 917 q 498 894 518 903 q 456 875 478 885 q 413 858 434 866 q 376 844 392 850 q 418 825 396 835 q 461 806 440 815 q 502 789 483 797 q 536 778 522 782 q 535 759 536 769 q 530 738 533 748 q 520 722 526 728 q 506 715 515 715 q 492 719 498 715 q 458 741 476 728 q 422 767 440 753 q 386 795 403 781 q 356 819 369 808 q 359 773 357 797 q 365 726 362 749 q 371 682 367 703 q 378 647 374 662 q 363 640 371 642 q 348 634 356 636 q 332 632 340 632 q 311 639 316 632 q 306 657 306 645 q 307 693 306 673 q 311 735 309 714 q 317 777 314 756 q 322 815 319 798 q 285 790 304 803 q 248 763 266 776 q 215 737 231 749 q 189 714 199 724 q 176 722 183 717 q 163 733 169 727 q 152 747 156 740 q 147 763 147 754 q 151 773 147 769 q 161 782 155 778 q 195 799 176 790 q 236 817 215 808 q 277 834 257 826 q 314 849 298 842 q 271 868 294 858 q 226 888 248 878 q 183 905 203 897 q 147 918 163 913 q 149 940 147 928 q 154 960 151 951 q 163 976 158 969 q 176 982 169 982 q 184 980 180 982 q 192 976 188 978 z "},"+":{"ha":694,"x_min":38,"x_max":658,"o":"m 658 406 q 655 385 658 397 q 640 365 651 374 q 608 348 629 355 q 551 340 587 341 l 382 339 q 384 232 382 279 q 390 152 387 185 q 399 85 394 114 l 397 81 q 390 79 394 80 q 381 78 386 78 q 371 78 376 78 q 330 99 344 78 q 309 157 316 121 q 300 241 301 194 q 299 339 299 288 l 38 338 l 57 421 l 299 422 q 299 461 299 440 q 299 505 299 483 q 300 550 299 528 q 301 594 300 573 q 303 693 301 642 l 386 704 q 384 599 385 650 q 383 553 383 576 q 382 507 383 530 q 382 463 382 484 q 382 424 382 441 l 589 425 q 619 426 607 425 q 639 428 631 427 q 653 432 647 430 l 656 431 q 657 424 656 427 q 658 416 658 420 q 658 406 658 411 z "},",":{"ha":347,"x_min":4,"x_max":257,"o":"m 257 110 q 236 11 257 58 q 181 -77 215 -37 q 105 -151 147 -118 q 21 -207 63 -184 l 4 -181 q 61 -110 36 -150 q 100 -29 83 -76 q 118 78 118 19 q 117 98 118 90 q 115 114 116 107 l 111 128 q 141 144 125 136 q 171 155 154 149 q 204 160 188 160 q 246 146 235 160 q 257 110 257 133 z "},"-":{"ha":521,"x_min":46,"x_max":475,"o":"m 475 400 q 472 383 475 393 q 457 363 468 372 q 425 345 446 353 q 368 338 403 338 l 46 335 l 65 421 l 404 425 q 435 426 423 425 q 456 428 448 427 q 469 432 464 430 l 472 431 q 474 419 473 425 q 475 409 474 415 q 475 400 475 404 z "},".":{"ha":347,"x_min":86,"x_max":263,"o":"m 86 60 q 90 95 86 80 q 99 123 94 111 q 111 147 104 136 q 127 151 118 149 q 145 154 135 153 q 167 156 155 156 q 196 153 179 156 q 227 144 213 151 q 252 122 242 137 q 263 81 263 106 q 259 44 263 60 q 250 16 255 28 q 238 -8 244 2 q 221 -12 229 -10 q 203 -15 213 -14 q 182 -17 194 -17 q 153 -15 169 -17 q 122 -5 136 -12 q 97 18 107 3 q 86 60 86 33 z "},"/":{"ha":694,"x_min":121,"x_max":626,"o":"m 188 -35 l 121 -6 l 560 986 l 626 957 l 188 -35 z "},":":{"ha":347,"x_min":86,"x_max":263,"o":"m 86 60 q 90 95 86 80 q 99 123 94 111 q 111 147 104 136 q 127 151 118 149 q 145 154 135 153 q 167 156 155 156 q 196 153 179 156 q 227 144 213 151 q 252 122 242 137 q 263 81 263 106 q 259 44 263 60 q 250 16 255 28 q 238 -8 244 2 q 221 -12 229 -10 q 203 -15 213 -14 q 182 -17 194 -17 q 153 -15 169 -17 q 122 -5 136 -12 q 97 18 107 3 q 86 60 86 33 m 86 564 q 90 600 86 584 q 99 627 94 615 q 111 651 104 640 q 127 656 118 653 q 145 658 135 657 q 167 660 155 660 q 196 658 179 660 q 227 648 213 656 q 252 626 242 641 q 263 585 263 610 q 259 548 263 565 q 250 520 255 532 q 238 496 244 506 q 221 492 229 494 q 203 489 213 490 q 182 488 194 488 q 153 490 169 488 q 122 500 136 492 q 97 523 107 508 q 86 564 86 538 z "},";":{"ha":347,"x_min":4,"x_max":263,"o":"m 86 564 q 90 600 86 584 q 99 627 94 615 q 111 651 104 640 q 127 656 118 653 q 145 658 135 657 q 167 660 155 660 q 196 658 179 660 q 227 648 213 656 q 252 626 242 641 q 263 585 263 610 q 259 548 263 565 q 250 520 255 532 q 238 496 244 506 q 221 492 229 494 q 203 489 213 490 q 182 488 194 488 q 153 490 169 488 q 122 500 136 492 q 97 523 107 508 q 86 564 86 538 m 257 110 q 236 11 257 58 q 181 -77 215 -37 q 105 -151 147 -118 q 21 -207 63 -184 l 4 -181 q 61 -110 36 -150 q 100 -29 83 -76 q 118 78 118 19 q 117 98 118 90 q 115 114 116 107 l 111 128 q 141 144 125 136 q 171 155 154 149 q 204 160 188 160 q 246 146 235 160 q 257 110 257 133 z "},"<":{"ha":694,"x_min":90,"x_max":614,"o":"m 614 622 q 613 606 614 616 q 607 584 611 595 q 596 564 603 574 q 578 550 589 555 l 178 383 l 579 217 q 597 201 590 212 q 607 178 603 190 q 613 154 611 165 q 614 136 614 142 q 607 124 614 124 q 590 130 603 124 q 556 144 576 136 l 129 326 q 97 351 104 337 q 90 381 90 366 q 97 411 90 397 q 124 436 103 426 l 556 619 q 590 633 576 628 q 607 639 603 639 q 612 634 610 639 q 614 622 614 630 z "},"=":{"ha":694,"x_min":38,"x_max":658,"o":"m 38 481 l 57 564 l 589 568 q 619 569 607 568 q 639 572 631 570 q 653 575 647 573 l 656 574 q 657 567 656 570 q 658 559 658 563 q 658 549 658 554 q 655 528 658 540 q 640 507 651 517 q 608 490 629 497 q 551 483 587 483 l 38 481 m 38 193 l 57 276 l 589 281 q 619 282 607 281 q 639 284 631 283 q 653 288 647 285 l 656 286 q 657 279 656 283 q 658 271 658 276 q 658 261 658 267 q 655 241 658 252 q 640 220 651 230 q 608 203 629 210 q 551 196 587 196 l 38 193 z "},">":{"ha":694,"x_min":81,"x_max":604,"o":"m 81 144 q 82 161 81 151 q 88 182 83 172 q 99 202 92 193 q 117 217 106 212 l 517 383 l 115 550 q 98 566 104 555 q 87 589 91 576 q 82 613 83 601 q 81 631 81 624 q 88 643 81 643 q 105 637 92 643 q 139 622 118 631 l 565 440 q 597 415 590 430 q 604 386 604 401 q 598 355 604 370 q 571 331 592 340 l 139 147 q 105 133 118 139 q 88 128 92 128 q 82 132 84 128 q 81 144 81 137 z "},"?":{"ha":521,"x_min":67,"x_max":503,"o":"m 503 713 q 491 632 503 667 q 460 571 478 597 q 417 526 441 545 q 371 494 394 508 q 314 460 342 477 q 263 425 285 443 q 225 390 240 408 q 211 354 211 372 q 215 331 211 344 q 225 307 219 318 q 239 281 231 294 l 190 271 q 167 309 177 289 q 151 347 158 326 q 144 388 144 367 q 157 439 144 414 q 188 485 169 463 q 230 525 207 506 q 275 557 253 543 q 327 589 299 572 q 381 625 356 606 q 422 667 406 644 q 439 715 439 689 q 428 752 439 736 q 397 778 417 767 q 352 793 378 788 q 297 799 326 799 q 239 794 266 799 q 190 790 213 790 q 148 797 169 790 q 110 818 126 803 q 81 867 90 839 q 67 926 73 895 l 69 929 q 88 918 78 923 q 108 910 96 914 q 133 907 119 907 q 163 909 150 907 q 189 913 176 911 q 217 917 202 915 q 253 919 232 919 q 343 906 298 919 q 423 866 388 892 q 481 802 458 840 q 503 713 503 763 m 157 58 q 160 93 157 78 q 169 121 164 109 q 181 144 174 134 q 197 149 188 147 q 214 151 204 150 q 236 153 224 153 q 264 151 248 153 q 294 141 280 149 q 319 119 309 134 q 329 79 329 105 q 325 44 329 60 q 317 16 322 28 q 306 -8 312 3 q 289 -12 297 -10 q 272 -15 281 -14 q 250 -17 262 -17 q 222 -15 238 -17 q 192 -5 206 -12 q 167 18 177 3 q 157 58 157 33 z "},"@":{"ha":1472,"x_min":86,"x_max":1386,"o":"m 765 -232 q 823 -229 794 -232 q 873 -222 851 -226 q 924 -211 899 -217 l 931 -247 q 875 -265 906 -257 q 812 -277 849 -272 q 731 -282 775 -282 q 599 -271 670 -282 q 456 -235 527 -260 q 317 -169 384 -210 q 199 -67 251 -128 q 117 75 148 -6 q 86 264 86 157 q 111 434 86 354 q 181 581 136 514 q 290 701 226 648 q 430 792 353 755 q 595 848 507 828 q 778 868 683 868 q 937 851 860 868 q 1081 803 1014 834 q 1205 728 1149 772 q 1301 629 1261 684 q 1364 510 1342 574 q 1386 376 1386 447 q 1367 237 1386 301 q 1312 120 1347 173 q 1227 27 1276 67 q 1120 -41 1178 -13 q 995 -83 1061 -69 q 858 -97 928 -97 q 700 -76 768 -97 q 588 -21 633 -56 q 520 57 542 13 q 497 146 497 101 q 513 220 497 189 q 554 273 528 251 q 613 309 580 295 q 681 331 646 323 q 749 344 715 340 q 810 351 783 348 q 811 401 810 376 q 812 444 812 421 q 813 483 813 467 q 809 531 813 509 q 796 568 806 553 q 771 593 787 584 q 732 601 756 601 q 687 590 706 601 q 656 565 668 578 q 631 528 641 548 q 613 517 623 522 q 594 509 605 513 q 569 506 583 506 q 543 514 555 506 q 531 539 531 523 q 536 558 531 551 q 549 572 541 566 q 584 595 562 582 q 633 620 606 608 q 690 640 660 632 q 747 649 719 649 q 811 641 781 649 q 866 615 842 633 q 904 564 890 596 q 918 482 918 531 q 913 325 918 394 q 907 208 907 256 q 913 161 907 173 q 935 150 919 150 q 952 152 944 150 q 966 156 960 153 q 979 161 973 158 l 999 139 q 967 115 985 125 q 931 98 952 105 q 883 90 910 90 q 843 97 858 90 q 819 116 827 103 q 807 148 810 129 q 804 193 804 167 q 805 230 804 209 q 806 268 805 250 q 807 311 806 290 q 703 290 749 308 q 665 272 683 283 q 631 245 646 261 q 608 208 617 229 q 599 160 599 187 q 617 74 599 113 q 668 9 635 36 q 750 -34 702 -19 q 858 -49 799 -49 q 1025 -17 949 -49 q 1156 72 1101 15 q 1242 207 1211 129 q 1272 376 1272 285 q 1254 503 1272 444 q 1202 611 1235 562 q 1124 699 1169 660 q 1023 764 1078 738 q 906 805 968 791 q 778 819 844 819 q 554 783 658 819 q 371 677 449 747 q 248 503 293 607 q 203 264 203 399 q 224 109 203 179 q 282 -16 244 39 q 372 -111 320 -71 q 487 -179 424 -152 q 620 -219 549 -206 q 765 -232 690 -232 z "},"A":{"ha":958,"x_min":21,"x_max":942,"o":"m 613 44 q 660 45 641 44 q 690 50 678 47 q 705 60 701 53 q 710 76 710 66 q 706 96 710 84 q 698 122 703 108 q 687 149 692 135 q 676 175 681 163 l 629 288 l 261 288 l 224 201 q 210 169 217 188 q 197 133 203 151 q 186 101 190 115 q 182 81 182 87 q 197 58 182 63 q 238 53 211 53 q 253 53 244 53 q 271 53 262 53 q 292 54 281 53 l 279 0 l 21 -4 l 31 44 q 58 48 47 44 q 76 59 69 52 q 89 75 83 66 q 99 96 94 85 l 468 957 l 483 957 l 856 92 q 864 73 860 80 q 873 61 868 65 q 886 55 878 56 q 908 53 894 53 q 920 53 915 53 q 931 53 926 53 q 942 54 937 53 l 929 0 l 603 -4 l 613 44 m 288 349 l 606 349 l 447 729 l 288 349 z "},"B":{"ha":847,"x_min":74,"x_max":763,"o":"m 300 163 q 304 106 300 128 q 320 73 308 85 q 353 58 332 62 q 410 54 375 54 q 505 68 464 54 q 575 107 547 81 q 617 168 603 132 q 632 250 632 205 q 624 322 632 284 q 592 392 615 360 q 526 444 569 424 q 417 465 484 465 l 300 465 l 300 163 m 300 524 q 327 522 313 522 q 356 520 340 520 q 390 519 372 519 q 472 532 436 519 q 533 569 508 545 q 570 627 558 593 q 583 701 583 660 q 576 768 583 735 q 547 827 568 801 q 487 869 525 853 q 388 888 449 886 l 301 889 l 300 524 m 86 942 q 199 945 140 943 q 313 948 249 947 q 443 949 377 949 q 563 932 513 949 q 645 886 613 916 q 693 815 677 856 q 708 722 708 773 q 693 647 708 681 q 655 585 678 612 q 603 540 632 558 q 549 513 575 522 l 549 511 q 629 485 590 504 q 697 434 667 465 q 745 360 727 403 q 763 264 763 317 q 742 159 763 208 q 682 72 722 109 q 580 12 641 34 q 436 -10 518 -10 q 384 -9 412 -10 q 328 -9 357 -9 q 271 -8 300 -8 q 217 -7 242 -8 q 93 -4 155 -6 l 103 44 q 118 47 110 44 q 132 51 124 48 q 146 60 140 54 q 163 93 157 69 q 172 150 169 116 q 175 227 174 184 q 175 321 175 271 l 175 778 q 173 850 175 824 q 156 883 170 877 q 139 888 148 887 q 114 889 130 889 q 100 889 108 889 q 88 888 93 888 q 74 888 80 888 l 86 942 z "},"C":{"ha":847,"x_min":74,"x_max":786,"o":"m 767 35 q 705 9 740 20 q 634 -9 675 -1 q 542 -17 592 -17 q 351 16 438 -17 q 203 109 265 48 q 108 260 142 171 q 74 464 74 350 q 90 593 74 531 q 135 711 106 656 q 208 813 165 767 q 303 891 250 858 q 419 943 356 924 q 553 961 482 961 q 603 958 580 961 q 645 952 626 956 q 682 947 665 949 q 715 944 699 944 q 740 946 729 944 q 759 949 751 947 q 775 954 768 951 l 778 950 l 772 750 l 718 753 q 710 805 717 785 q 688 843 703 825 q 628 881 663 872 q 540 890 593 890 q 396 859 458 890 q 293 774 334 828 q 233 647 253 720 q 213 490 213 574 q 222 389 213 441 q 249 290 231 338 q 294 199 267 242 q 360 125 322 157 q 444 75 397 94 q 549 57 491 57 q 602 63 578 57 q 645 80 626 69 q 678 102 664 90 q 702 129 692 115 q 736 201 726 161 l 786 189 l 767 35 z "},"D":{"ha":1056,"x_min":74,"x_max":982,"o":"m 86 942 q 201 947 140 944 q 317 950 252 948 q 449 951 381 951 q 686 919 586 951 q 852 825 787 886 q 950 677 918 764 q 982 482 982 590 q 950 292 982 381 q 850 136 918 203 q 677 30 783 69 q 424 -10 571 -10 q 369 -9 397 -10 q 314 -9 342 -9 q 258 -8 285 -8 q 206 -7 231 -8 q 93 -4 149 -6 l 103 44 q 118 47 110 44 q 132 51 124 48 q 146 60 140 54 q 163 93 157 69 q 172 150 169 116 q 175 227 174 184 q 175 321 175 271 l 175 778 q 173 850 175 824 q 156 883 170 877 q 139 888 148 887 q 114 889 130 889 q 100 889 108 889 q 88 888 93 888 q 74 888 80 888 l 86 942 m 843 454 q 836 549 843 499 q 814 645 830 598 q 770 736 797 693 q 701 811 742 778 q 603 864 660 844 q 471 885 546 883 l 308 888 q 307 812 308 853 q 306 731 306 776 q 306 633 306 685 l 306 165 q 310 108 306 129 q 329 77 315 88 q 366 63 342 66 q 426 60 390 60 q 613 88 535 60 q 743 166 692 115 q 818 290 794 217 q 843 454 843 363 z "},"E":{"ha":792,"x_min":74,"x_max":739,"o":"m 304 879 l 303 526 l 429 528 q 516 531 483 529 q 554 544 548 532 q 559 559 558 550 q 561 578 560 569 q 563 600 562 588 l 619 599 l 615 374 l 560 376 q 560 395 560 385 q 559 417 560 406 q 557 435 558 427 q 554 447 556 444 q 548 454 552 451 q 532 459 543 457 q 502 463 522 462 q 453 465 483 465 l 303 467 l 303 175 q 305 116 303 138 q 318 85 308 95 q 350 72 328 74 q 410 71 372 70 l 575 72 q 618 84 601 72 q 649 114 636 96 q 669 153 661 132 q 683 194 677 175 l 739 181 l 681 3 l 678 0 l 93 -4 l 103 44 q 118 47 110 44 q 132 51 124 48 q 146 60 140 54 q 163 93 157 69 q 172 150 169 116 q 175 227 174 184 q 175 321 175 271 l 175 778 q 173 850 175 824 q 156 883 170 877 q 139 888 148 887 q 114 889 130 889 q 100 889 108 889 q 88 888 93 888 q 74 888 80 888 l 86 942 l 385 944 q 478 946 438 945 q 550 948 519 947 q 603 950 581 949 q 640 953 625 951 q 686 960 676 956 l 688 957 l 683 760 l 629 761 q 624 808 626 788 q 616 844 622 829 q 598 866 610 858 q 565 875 587 874 l 304 879 z "},"F":{"ha":736,"x_min":74,"x_max":676,"o":"m 93 -4 l 103 44 q 118 47 110 44 q 132 51 124 48 q 146 60 140 54 q 163 93 157 69 q 172 150 169 116 q 175 227 174 184 q 175 321 175 271 l 175 778 q 173 850 175 824 q 156 883 170 877 q 139 888 148 887 q 114 889 130 889 q 100 889 108 889 q 88 888 93 888 q 74 888 80 888 l 86 942 l 374 944 q 467 946 426 945 q 539 948 508 947 q 592 950 570 949 q 629 953 614 951 q 675 960 665 956 l 676 957 l 672 760 l 618 761 q 613 808 615 788 q 605 844 611 829 q 587 866 599 858 q 554 875 576 874 l 307 879 l 306 515 l 421 517 q 506 519 475 518 q 543 533 537 521 q 548 548 547 539 q 550 567 549 558 q 551 589 551 577 l 608 588 l 604 363 l 549 365 q 549 384 549 374 q 548 406 549 395 q 546 424 547 416 q 543 436 545 433 q 537 443 541 440 q 522 448 533 446 q 493 452 512 451 q 444 454 475 453 l 306 456 l 306 164 q 308 91 306 118 q 325 58 310 65 q 342 54 333 55 q 367 53 351 53 q 385 53 375 53 q 404 53 395 53 q 425 54 415 53 l 413 0 l 93 -4 z "},"G":{"ha":944,"x_min":74,"x_max":901,"o":"m 819 56 q 744 19 786 35 q 661 -6 709 6 q 554 -17 613 -17 q 365 13 453 -17 q 213 102 277 42 q 111 251 148 161 q 74 464 74 342 q 90 598 74 534 q 138 718 107 663 q 212 818 168 773 q 310 894 256 863 q 428 944 364 926 q 563 961 492 961 q 617 958 592 961 q 662 952 641 956 q 702 947 683 949 q 740 944 722 944 q 765 946 754 944 q 784 949 776 947 q 800 954 793 951 l 803 950 l 797 750 l 743 753 q 735 805 742 785 q 713 843 728 825 q 685 867 700 858 q 650 881 670 876 q 606 888 631 886 q 549 890 581 890 q 403 861 466 890 q 298 780 341 833 q 234 654 256 728 q 213 490 213 581 q 233 332 213 410 q 297 193 253 255 q 408 94 341 132 q 569 57 476 57 q 625 62 601 57 q 667 72 649 67 q 701 88 686 79 l 701 238 q 699 310 701 283 q 682 343 697 337 q 665 348 674 347 q 640 349 656 349 q 627 348 634 349 q 614 348 619 348 q 600 347 606 347 l 613 401 l 901 406 l 892 357 q 876 355 884 357 q 862 350 869 353 q 849 342 855 347 q 831 309 837 332 q 823 251 825 285 q 820 174 820 217 q 819 81 819 131 l 819 56 z "},"H":{"ha":1042,"x_min":74,"x_max":974,"o":"m 736 778 q 734 850 736 824 q 717 883 731 877 q 700 888 709 887 q 675 889 691 889 q 661 889 669 889 q 649 888 654 888 q 635 888 641 888 l 647 942 l 949 946 l 939 897 q 924 895 931 897 q 909 891 917 894 q 896 882 902 888 q 878 849 884 872 q 870 792 872 826 q 867 714 867 758 q 867 621 867 671 l 867 164 q 869 91 867 118 q 886 58 872 65 q 903 54 894 55 q 928 53 912 53 q 942 53 934 53 q 957 53 949 53 q 974 54 965 53 l 961 0 l 654 -4 l 664 44 q 679 47 672 44 q 693 51 685 48 q 707 60 701 54 q 724 93 718 69 q 733 150 731 116 q 736 227 735 184 q 736 321 736 271 l 736 463 l 306 463 l 306 164 q 308 91 306 118 q 325 58 310 65 q 342 54 333 55 q 367 53 351 53 q 381 53 373 53 q 396 53 388 53 q 413 54 403 53 l 400 0 l 93 -4 l 103 44 q 118 47 110 44 q 132 51 124 48 q 146 60 140 54 q 163 93 157 69 q 172 150 169 116 q 175 227 174 184 q 175 321 175 271 l 175 778 q 173 850 175 824 q 156 883 170 877 q 139 888 148 887 q 114 889 130 889 q 100 889 108 889 q 88 888 93 888 q 74 888 80 888 l 86 942 l 388 946 l 378 897 q 363 895 370 897 q 348 891 356 894 q 335 882 341 888 q 317 849 323 872 q 309 792 311 826 q 306 714 306 758 q 306 621 306 671 l 306 529 l 736 529 l 736 778 z "},"I":{"ha":486,"x_min":76,"x_max":415,"o":"m 310 164 q 312 91 310 118 q 329 58 315 65 q 346 54 337 55 q 371 53 355 53 q 385 53 377 53 q 399 53 392 53 q 415 54 407 53 l 403 0 l 96 -4 l 106 44 q 120 47 113 44 q 134 51 126 48 q 147 60 141 54 q 165 93 158 69 q 173 150 171 116 q 176 227 176 184 q 176 321 176 271 l 176 778 q 174 850 176 824 q 157 883 172 877 q 140 888 149 887 q 115 889 131 889 q 102 889 109 889 q 90 888 95 888 q 76 888 83 888 l 89 942 l 390 946 l 381 897 q 366 895 374 897 q 352 891 360 894 q 339 882 345 888 q 321 849 327 872 q 313 792 315 826 q 310 714 310 758 q 310 621 310 671 l 310 164 z "},"J":{"ha":444,"x_min":-125,"x_max":378,"o":"m 158 778 q 156 850 158 824 q 139 883 153 877 q 122 888 131 887 q 97 889 113 889 q 83 889 91 889 q 69 888 76 888 q 53 888 61 888 l 65 942 l 378 946 l 368 897 q 351 895 359 897 q 335 891 343 894 q 321 882 327 888 q 303 849 309 872 q 295 792 297 826 q 292 714 292 758 q 292 621 292 671 l 292 131 q 286 34 292 75 q 269 -40 281 -8 q 239 -97 257 -72 q 196 -147 221 -123 q 143 -191 169 -174 q 90 -218 117 -208 q 38 -232 64 -228 q -14 -236 12 -236 q -61 -230 -40 -236 q -95 -214 -81 -223 q -117 -193 -110 -204 q -125 -174 -125 -183 q -117 -152 -125 -162 q -98 -133 -110 -141 q -75 -118 -87 -124 q -53 -110 -62 -112 q -33 -139 -45 -126 q -6 -159 -22 -150 q 35 -168 11 -168 q 83 -158 60 -168 q 122 -122 106 -147 q 149 -56 139 -97 q 158 47 158 -15 l 158 778 z "},"K":{"ha":889,"x_min":74,"x_max":892,"o":"m 306 164 q 308 91 306 118 q 325 58 310 65 q 342 54 333 55 q 367 53 351 53 q 381 53 373 53 q 396 53 388 53 q 413 54 403 53 l 400 0 l 93 -4 l 103 44 q 118 47 110 44 q 132 51 124 48 q 146 60 140 54 q 163 93 157 69 q 172 150 169 116 q 175 227 174 184 q 175 321 175 271 l 175 778 q 173 850 175 824 q 156 883 170 877 q 139 888 148 887 q 114 889 130 889 q 100 889 108 889 q 88 888 93 888 q 74 888 80 888 l 86 942 l 388 946 l 378 897 q 363 895 370 897 q 348 891 356 894 q 335 882 341 888 q 317 849 323 872 q 309 792 311 826 q 306 714 306 758 q 306 621 306 671 l 306 164 m 618 840 q 639 863 628 852 q 649 879 649 874 q 633 891 649 889 q 575 893 617 893 l 586 942 l 853 946 l 842 890 q 796 890 813 890 q 770 887 780 890 q 755 880 761 885 q 740 865 749 874 l 442 529 q 506 433 473 482 q 569 342 535 392 q 636 249 603 293 q 706 155 676 194 q 763 89 735 115 q 820 48 791 63 q 888 29 849 33 l 892 11 q 857 -3 875 3 q 820 -12 841 -8 q 775 -17 799 -17 q 700 -1 733 -17 q 637 44 667 15 q 575 116 607 73 q 504 213 544 158 q 432 313 467 263 q 371 402 398 363 q 311 490 339 449 l 311 493 l 618 840 z "},"L":{"ha":729,"x_min":74,"x_max":728,"o":"m 564 74 q 607 85 590 74 q 638 115 625 97 q 658 154 650 133 q 672 194 666 175 l 728 181 l 669 3 l 667 0 l 93 -4 l 103 44 q 118 47 110 44 q 132 51 124 48 q 146 60 140 54 q 163 93 157 69 q 172 150 169 116 q 175 227 174 184 q 175 321 175 271 l 175 778 q 173 850 175 824 q 156 883 170 877 q 139 888 148 887 q 114 889 130 889 q 100 889 108 889 q 88 888 93 888 q 74 888 80 888 l 86 942 l 388 946 l 378 897 q 363 895 370 897 q 348 891 356 894 q 335 882 341 888 q 317 849 323 872 q 309 792 311 826 q 306 714 306 758 q 306 621 306 671 l 306 176 q 308 118 306 139 q 321 86 310 97 q 353 74 331 76 q 413 72 374 72 l 564 74 z "},"M":{"ha":1250,"x_min":56,"x_max":1208,"o":"m 608 -12 l 592 -12 l 268 718 l 225 161 q 226 90 222 115 q 244 58 230 65 q 261 54 252 55 q 286 53 270 53 q 300 53 292 53 q 315 53 308 53 q 332 54 323 53 l 319 0 l 56 -4 l 65 44 q 81 47 73 44 q 94 51 87 48 q 108 60 102 54 q 127 91 119 69 q 141 145 135 113 q 152 219 147 178 q 161 311 156 261 l 210 849 q 199 871 203 863 q 187 883 194 879 q 170 888 180 888 q 143 889 160 889 q 131 889 137 889 q 121 888 125 888 q 111 888 115 888 l 124 942 l 324 946 q 327 928 324 938 q 334 906 329 919 q 346 875 338 893 l 631 214 l 911 875 q 923 906 919 893 q 930 928 928 919 q 933 946 933 938 l 1110 946 l 1100 897 q 1066 896 1079 897 q 1044 892 1052 895 q 1034 883 1037 889 q 1031 868 1031 877 q 1031 858 1031 867 q 1033 837 1032 849 q 1036 808 1034 824 q 1039 776 1038 792 l 1088 311 q 1100 191 1095 237 q 1110 120 1106 146 q 1117 84 1114 94 q 1124 68 1120 73 q 1140 56 1129 60 q 1167 53 1151 53 q 1180 53 1173 53 q 1194 53 1188 53 q 1208 54 1201 53 l 1196 0 l 876 -4 l 886 44 q 930 46 913 44 q 958 53 948 48 q 973 67 969 58 q 978 89 978 75 q 977 105 978 94 q 977 127 977 115 q 975 150 976 138 q 974 171 974 162 l 919 708 l 608 -12 z "},"N":{"ha":1028,"x_min":67,"x_max":953,"o":"m 793 778 q 791 850 793 824 q 774 883 788 877 q 757 888 766 887 q 732 889 748 889 q 717 889 726 889 q 701 888 709 888 q 683 888 692 888 l 696 942 l 953 946 l 943 897 q 928 895 935 897 q 914 891 921 894 q 900 882 906 888 q 883 849 888 872 q 875 792 877 826 q 872 714 872 758 q 871 621 872 671 l 867 133 q 867 69 866 97 q 870 22 869 42 q 875 -17 872 -1 l 846 -17 l 244 757 l 253 164 q 256 91 253 118 q 272 58 258 65 q 289 54 280 55 q 314 53 298 53 q 329 53 320 53 q 347 53 338 53 q 368 54 357 53 l 356 0 l 92 -4 l 101 44 q 117 47 109 44 q 131 51 123 48 q 144 60 138 54 q 161 93 156 69 q 170 150 167 116 q 173 227 172 184 q 174 321 173 271 l 178 839 q 160 861 168 852 q 144 877 153 871 q 127 886 136 883 q 104 889 117 889 q 91 889 98 889 q 79 888 85 888 q 67 888 72 888 l 79 942 l 265 946 l 799 251 l 793 778 z "},"O":{"ha":1069,"x_min":72,"x_max":996,"o":"m 996 482 q 961 291 996 381 q 865 132 927 201 q 717 24 803 64 q 528 -17 631 -17 q 342 16 426 -17 q 198 110 258 49 q 105 261 138 172 q 72 464 72 351 q 88 593 72 531 q 132 711 103 656 q 202 813 160 767 q 295 891 243 858 q 410 943 348 924 q 543 961 472 961 q 728 928 644 961 q 871 834 812 896 q 963 683 931 772 q 996 482 996 594 m 854 454 q 848 553 854 502 q 826 652 841 604 q 786 743 810 700 q 725 817 761 785 q 641 867 689 849 q 531 886 592 886 q 386 856 446 886 q 288 772 326 825 q 232 647 249 719 q 214 490 214 574 q 221 391 214 442 q 244 292 228 340 q 285 201 260 244 q 347 126 310 158 q 432 76 383 94 q 543 57 481 57 q 685 88 626 57 q 782 172 744 118 q 837 298 819 225 q 854 454 854 370 z "},"P":{"ha":785,"x_min":74,"x_max":757,"o":"m 306 164 q 307 91 304 118 q 325 58 310 65 q 342 54 333 55 q 367 53 351 53 q 385 53 375 53 q 404 53 395 53 q 425 54 415 53 l 413 0 l 93 -4 l 103 44 q 118 47 110 44 q 132 51 124 48 q 146 60 140 54 q 163 93 157 69 q 172 150 169 116 q 175 227 174 184 q 175 321 175 271 l 175 778 q 173 850 175 824 q 156 883 170 877 q 139 888 148 887 q 114 889 130 889 q 100 889 108 889 q 88 888 93 888 q 74 888 80 888 l 86 942 q 199 944 138 943 q 320 947 251 946 q 467 947 389 947 q 593 929 538 947 q 684 879 647 911 q 739 801 720 847 q 757 701 757 756 q 740 601 757 645 q 692 525 722 558 q 622 469 663 492 q 534 431 581 446 q 437 410 488 417 q 336 403 386 403 l 333 438 q 400 451 366 442 q 467 475 435 460 q 528 509 499 489 q 578 555 557 528 q 613 613 600 581 q 625 683 625 644 q 612 763 625 726 q 572 826 599 799 q 504 868 545 852 q 408 885 463 883 l 308 888 q 307 812 308 853 q 306 731 306 776 q 306 633 306 685 l 306 164 z "},"Q":{"ha":1069,"x_min":72,"x_max":1090,"o":"m 996 482 q 965 300 996 387 q 877 146 933 213 q 742 35 821 78 q 568 -15 663 -8 q 682 -76 633 -50 q 773 -119 731 -102 q 853 -145 815 -137 q 938 -154 892 -154 q 996 -149 969 -154 q 1044 -136 1024 -143 q 1088 -118 1067 -128 l 1090 -122 q 1037 -179 1068 -154 q 972 -218 1010 -201 q 882 -236 933 -236 q 763 -217 817 -236 q 655 -166 709 -198 q 542 -92 601 -134 q 410 -4 483 -50 q 271 52 333 13 q 164 151 208 91 q 96 289 120 210 q 72 464 72 368 q 88 593 72 531 q 132 711 103 656 q 202 813 160 767 q 295 891 243 858 q 410 943 348 924 q 543 961 472 961 q 728 928 644 961 q 871 834 812 896 q 963 683 931 772 q 996 482 996 594 m 854 454 q 848 553 854 502 q 826 652 841 604 q 786 743 810 700 q 725 817 761 785 q 641 867 689 849 q 531 886 592 886 q 386 856 446 886 q 288 772 326 825 q 232 647 249 719 q 214 490 214 574 q 221 391 214 442 q 244 292 228 340 q 285 201 260 244 q 347 126 310 158 q 432 76 383 94 q 543 57 481 57 q 685 88 626 57 q 782 172 744 118 q 837 298 819 225 q 854 454 854 370 z "},"R":{"ha":868,"x_min":74,"x_max":868,"o":"m 857 4 q 819 -4 841 -1 q 773 -10 800 -8 q 708 -14 745 -13 q 682 15 696 -2 q 653 51 669 30 q 617 100 637 72 l 389 415 q 367 414 377 415 q 348 414 358 414 q 326 413 338 413 q 301 413 315 413 l 301 164 q 304 91 301 118 q 321 58 306 65 q 338 54 328 55 q 363 53 347 53 q 376 53 369 53 q 392 53 384 53 q 408 54 399 53 l 396 0 l 93 -4 l 103 44 q 118 47 110 44 q 132 51 124 48 q 146 60 140 54 q 163 93 157 69 q 172 150 169 116 q 175 227 174 184 q 175 321 175 271 l 175 778 q 173 850 175 824 q 156 883 170 877 q 139 888 148 887 q 114 889 130 889 q 100 889 108 889 q 88 888 93 888 q 74 888 80 888 l 86 942 q 199 944 138 943 q 320 947 251 946 q 467 947 389 947 q 678 884 607 947 q 750 704 750 822 q 740 628 750 662 q 714 567 730 594 q 676 520 697 540 q 633 485 655 500 q 517 436 582 451 l 783 76 q 794 63 790 68 q 803 56 799 58 q 813 53 808 54 q 826 53 819 53 q 839 53 832 53 q 852 54 845 53 q 868 56 860 55 l 857 4 m 301 471 q 447 484 387 471 q 545 524 507 497 q 601 592 583 551 q 618 689 618 633 q 608 762 618 727 q 574 824 598 797 q 509 867 549 851 q 408 885 469 883 l 304 888 q 303 812 303 853 q 302 731 302 776 q 301 633 301 685 l 301 471 z "},"S":{"ha":722,"x_min":96,"x_max":642,"o":"m 642 231 q 614 118 642 165 q 543 41 586 71 q 447 -3 499 11 q 344 -17 394 -17 q 256 -7 297 -17 q 183 16 214 3 q 115 49 146 30 l 96 203 l 146 215 q 185 136 158 171 q 211 107 196 122 q 245 82 226 93 q 289 64 265 71 q 343 57 313 57 q 403 66 373 57 q 458 94 433 76 q 498 141 483 113 q 514 207 514 169 q 497 278 514 247 q 451 337 479 310 q 387 389 423 364 q 313 439 351 414 q 240 492 276 465 q 175 554 203 520 q 130 629 147 588 q 113 722 113 670 q 126 800 113 765 q 161 861 139 835 q 211 907 183 888 q 269 938 239 926 q 329 956 299 950 q 385 961 359 961 q 447 956 419 961 q 496 945 475 951 q 531 934 517 939 q 553 929 545 929 q 562 933 559 929 q 567 942 565 937 q 568 954 568 947 l 622 968 l 628 763 l 572 747 l 571 767 q 551 824 569 801 q 507 860 533 847 q 451 880 481 874 q 397 886 422 886 q 340 877 368 886 q 290 850 312 868 q 254 805 267 832 q 240 743 240 778 q 258 676 240 706 q 303 618 275 645 q 367 565 331 590 q 441 512 403 539 q 515 457 478 485 q 579 394 551 428 q 624 320 607 360 q 642 231 642 280 z "},"T":{"ha":806,"x_min":26,"x_max":785,"o":"m 157 875 q 123 863 135 875 q 102 834 110 851 q 90 796 94 816 q 81 760 85 776 l 26 763 l 51 960 l 54 963 q 103 954 66 958 q 194 948 134 951 q 358 946 255 946 l 447 946 q 620 948 555 946 q 722 954 686 951 q 782 963 765 958 l 785 960 l 781 758 l 725 761 q 721 809 723 788 q 714 845 719 831 q 697 867 708 860 q 663 875 685 875 l 468 876 l 468 164 q 470 91 468 118 q 488 58 473 65 q 504 54 495 55 q 529 53 513 53 q 543 53 535 53 q 558 53 551 53 q 575 54 566 53 l 563 0 l 256 -4 l 265 44 q 281 47 273 44 q 294 51 287 48 q 308 60 302 54 q 326 93 319 69 q 334 150 332 116 q 337 227 337 184 q 338 321 338 271 l 338 876 l 157 875 z "},"U":{"ha":993,"x_min":57,"x_max":936,"o":"m 850 315 q 761 67 848 151 q 504 -17 674 -17 q 355 9 419 -17 q 247 82 290 35 q 182 195 204 128 q 160 344 160 262 l 158 778 q 156 850 158 824 q 139 883 153 877 q 122 888 131 887 q 97 889 113 889 q 84 889 91 889 q 71 888 76 888 q 57 888 63 888 l 69 942 l 368 946 l 358 897 q 343 895 351 897 q 329 891 336 894 q 315 882 322 888 q 298 849 303 872 q 289 792 292 826 q 286 714 287 758 q 286 621 286 671 l 288 358 q 293 281 288 319 q 309 210 298 243 q 339 148 321 176 q 385 100 358 120 q 448 68 412 80 q 532 57 485 57 q 654 79 606 57 q 730 141 702 101 q 769 234 758 180 q 779 351 780 288 l 776 778 q 774 850 776 824 q 757 883 772 877 q 740 888 749 887 q 715 889 731 889 q 701 889 709 889 q 685 888 692 888 q 667 888 676 888 l 679 942 l 936 946 l 926 897 q 911 895 919 897 q 897 891 904 894 q 883 882 890 888 q 866 849 872 872 q 858 792 860 826 q 855 714 856 758 q 854 621 855 671 l 850 315 z "},"V":{"ha":917,"x_min":3,"x_max":901,"o":"m 892 897 q 865 893 876 897 q 846 883 853 890 q 834 866 839 876 q 824 846 828 857 l 467 -12 l 453 -12 l 97 831 q 81 865 88 852 q 64 883 74 877 q 40 891 54 890 q 3 893 26 893 l 14 942 l 343 946 l 332 890 q 283 890 303 890 q 252 886 264 889 q 235 879 240 884 q 231 865 231 874 q 264 768 231 847 l 489 222 l 711 764 q 728 806 721 786 q 735 843 735 826 q 722 879 735 869 q 678 889 708 889 q 661 889 670 889 q 643 888 651 888 q 624 888 633 888 l 636 942 l 901 946 l 892 897 z "},"W":{"ha":1375,"x_min":7,"x_max":1354,"o":"m 426 -12 l 411 -12 l 101 831 q 86 865 93 852 q 69 883 78 877 q 44 891 59 890 q 7 893 30 893 l 18 942 l 339 946 l 328 890 q 282 890 301 890 q 253 886 264 889 q 237 879 242 884 q 232 865 232 874 q 242 831 232 856 q 265 767 251 806 l 449 239 l 646 810 l 638 831 q 622 863 629 851 q 606 880 615 874 q 582 888 596 886 q 544 889 567 889 l 554 933 l 875 938 l 865 886 q 789 882 811 886 q 767 861 767 878 q 777 824 767 851 q 801 758 788 797 l 985 232 l 1167 761 q 1182 805 1174 783 q 1190 843 1190 826 q 1177 879 1190 869 q 1133 889 1164 889 q 1116 889 1126 889 q 1099 888 1107 888 q 1079 888 1089 888 l 1092 942 l 1354 946 l 1344 897 q 1317 893 1328 897 q 1299 883 1306 890 q 1286 866 1291 876 q 1276 846 1281 857 l 965 -12 l 950 -12 l 683 704 l 426 -12 z "},"X":{"ha":861,"x_min":40,"x_max":839,"o":"m 753 92 q 765 74 760 81 q 775 62 769 67 q 788 55 781 57 q 806 53 794 53 q 818 53 812 53 q 828 53 824 53 q 839 54 834 53 l 826 0 l 500 -4 l 510 44 q 556 45 538 44 q 584 50 574 47 q 600 58 595 53 q 604 74 604 64 q 598 91 604 78 q 584 118 592 103 q 566 149 576 133 q 550 175 557 164 l 414 393 l 268 179 q 225 114 241 140 q 208 76 208 89 q 223 57 208 62 q 264 53 238 53 q 279 53 270 53 q 297 53 288 53 q 318 54 307 53 l 306 0 l 40 -4 l 50 44 q 77 49 66 44 q 97 61 88 53 q 111 77 105 68 q 125 96 118 86 l 374 460 l 144 831 q 124 863 133 850 q 106 882 116 875 q 83 891 97 888 q 46 893 69 893 l 57 942 l 378 946 l 367 890 q 301 886 321 890 q 282 865 282 883 q 297 830 282 856 q 335 768 313 805 l 454 572 l 585 764 q 599 785 591 773 q 614 810 607 797 q 627 834 622 822 q 632 854 632 845 q 619 882 632 875 q 581 889 607 889 q 566 889 573 889 q 553 888 558 888 q 540 888 546 888 l 553 942 l 819 946 l 810 897 q 778 892 791 897 q 756 880 765 888 q 740 863 747 872 q 728 846 733 854 l 496 507 l 753 92 z "},"Y":{"ha":833,"x_min":-7,"x_max":817,"o":"m 443 476 l 618 783 q 643 825 632 808 q 654 857 654 843 q 640 883 654 877 q 596 889 626 889 q 579 889 588 889 q 561 888 569 888 q 542 888 551 888 l 554 942 l 817 946 l 807 897 q 780 893 791 897 q 762 882 769 889 q 749 865 755 874 q 738 846 744 856 l 479 400 l 481 164 q 483 91 481 118 q 500 58 485 65 q 517 54 508 55 q 542 53 526 53 q 556 53 548 53 q 571 53 563 53 q 588 54 578 53 l 575 0 l 271 -4 l 281 44 q 296 47 288 44 q 310 51 302 48 q 324 60 317 54 q 341 93 335 69 q 350 150 347 116 q 352 227 352 184 q 353 321 353 271 l 353 381 l 92 831 q 72 862 80 850 q 53 881 63 874 q 30 891 44 888 q -7 893 16 893 l 4 942 l 332 946 l 321 890 q 275 890 294 890 q 246 886 257 889 q 230 879 235 884 q 225 865 225 874 q 241 830 225 856 q 278 768 258 803 l 443 476 z "},"Z":{"ha":792,"x_min":25,"x_max":788,"o":"m 772 181 l 714 3 l 711 0 l 181 -1 q 134 -3 160 -1 q 84 -6 108 -4 q 28 -10 56 -8 l 25 0 l 579 879 l 200 876 q 170 865 182 876 q 149 836 158 853 q 136 799 141 819 q 126 763 131 779 l 72 765 l 96 958 l 99 961 q 139 953 106 956 q 174 950 153 951 q 225 947 195 948 q 295 945 255 946 q 386 944 335 944 l 560 944 q 645 945 605 944 q 718 947 686 946 q 788 950 755 949 l 788 946 q 774 935 781 941 q 761 921 769 929 q 746 901 753 913 l 222 72 l 608 74 q 652 85 634 74 q 682 115 669 97 q 702 154 694 133 q 717 194 710 175 l 772 181 z "},"[":{"ha":542,"x_min":136,"x_max":503,"o":"m 246 64 q 246 37 246 53 q 246 2 246 21 q 247 -37 247 -17 q 248 -78 247 -58 q 250 -176 249 -124 l 503 -171 l 492 -236 l 136 -236 q 140 -97 138 -169 q 142 43 141 -34 q 143 200 143 121 l 143 863 q 142 933 143 899 q 140 994 141 967 l 136 1053 l 492 1053 l 481 990 l 251 996 q 249 921 250 960 q 247 844 247 887 q 246 757 246 801 l 246 64 z "},"\\":{"ha":694,"x_min":68,"x_max":574,"o":"m 574 -6 l 506 -35 l 68 957 l 136 986 l 574 -6 z "},"]":{"ha":542,"x_min":39,"x_max":406,"o":"m 296 753 q 295 780 296 763 q 295 815 295 796 q 294 854 294 833 q 294 894 294 874 q 292 993 292 941 l 39 988 l 50 1053 l 406 1053 q 402 913 403 986 q 400 773 401 851 q 399 617 399 696 l 399 -46 q 400 -116 399 -82 q 402 -177 401 -151 q 406 -236 403 -208 l 50 -236 l 61 -174 l 290 -179 q 293 -104 292 -144 q 295 -27 294 -70 q 296 60 296 15 l 296 753 z "},"^":{"ha":694,"x_min":50,"x_max":643,"o":"m 144 428 q 115 397 134 406 q 78 389 97 389 q 59 394 68 389 q 50 410 50 399 q 65 447 50 417 l 290 903 q 318 940 303 929 q 349 951 334 951 q 381 941 363 951 q 410 906 398 930 l 628 447 q 643 410 643 417 q 635 394 643 399 q 617 389 626 389 q 579 397 598 389 q 550 428 560 406 l 351 860 l 144 428 z "},"_":{"ha":694,"x_min":0,"x_max":694,"o":"m 694 -144 l 694 -217 l 0 -217 l 0 -144 l 694 -144 z "},"`":{"ha":556,"x_min":139,"x_max":403,"o":"m 389 790 q 338 844 363 817 q 291 894 316 867 q 244 943 267 921 q 212 973 231 957 q 178 1005 194 990 q 139 1040 158 1022 l 139 1044 q 167 1054 151 1050 q 197 1061 180 1058 q 235 1064 215 1064 q 259 1062 251 1064 q 272 1053 266 1060 q 299 1014 283 1042 q 334 949 316 985 q 371 873 353 913 q 403 799 389 833 l 389 790 z "},"a":{"ha":711,"x_min":63,"x_max":682,"o":"m 682 42 q 644 13 665 25 q 601 -8 626 1 q 543 -17 576 -17 q 485 -1 506 -17 q 453 33 464 15 q 436 83 440 56 q 373 33 406 56 q 307 -1 344 15 q 229 -17 270 -17 q 167 -6 197 -17 q 114 24 137 4 q 76 75 90 44 q 63 144 63 105 q 81 221 63 188 q 131 278 100 254 q 201 319 162 303 q 283 347 241 336 q 365 365 324 358 q 438 375 405 371 q 440 425 438 400 q 441 471 440 447 q 442 515 442 495 q 438 573 442 547 q 422 618 433 599 q 392 648 411 637 q 344 658 374 658 q 291 644 313 658 q 253 614 268 631 q 222 569 235 594 q 201 556 213 562 q 178 546 191 550 q 149 542 165 542 q 116 552 131 542 q 101 586 101 563 q 108 614 101 604 q 124 631 114 623 q 166 658 139 642 q 225 689 193 674 q 293 713 258 703 q 363 722 329 722 q 440 713 403 722 q 506 682 477 704 q 552 620 535 659 q 569 522 569 581 q 567 416 569 469 q 563 310 565 362 q 558 211 560 258 q 556 125 556 164 q 558 91 556 104 q 566 69 560 77 q 580 59 571 62 q 600 56 588 56 q 622 58 612 56 q 641 63 633 60 q 660 69 651 65 l 682 42 m 435 313 q 315 289 367 307 q 270 270 292 281 q 232 245 249 260 q 205 211 215 230 q 194 167 194 192 q 204 120 194 138 q 227 93 213 103 q 259 79 242 83 q 292 75 276 75 q 343 84 318 75 q 388 103 368 92 q 433 131 411 115 q 433 153 433 141 q 432 178 432 164 q 432 208 432 192 q 432 240 432 222 q 433 274 433 258 q 435 313 434 292 z "},"b":{"ha":813,"x_min":21,"x_max":743,"o":"m 608 349 q 593 469 608 418 q 551 552 577 519 q 491 601 525 585 q 419 617 457 617 q 354 606 383 617 q 304 583 325 595 q 261 549 280 567 l 257 89 q 292 70 272 78 q 333 57 308 63 q 389 51 358 51 q 476 69 436 51 q 546 123 517 86 q 592 215 575 159 q 608 349 608 271 m 128 -14 q 130 122 128 51 q 131 256 131 182 q 132 403 132 329 q 132 493 132 447 q 132 582 132 538 q 131 668 131 626 q 131 748 131 710 q 131 917 131 835 q 130 968 131 946 q 125 1006 129 991 q 116 1018 122 1014 q 97 1025 109 1023 q 65 1027 84 1027 q 21 1028 47 1028 l 38 1079 q 78 1081 58 1080 q 116 1084 96 1083 q 153 1088 136 1085 q 186 1092 168 1089 q 219 1097 203 1094 q 256 1104 238 1100 l 265 1092 l 261 597 q 327 656 290 630 q 361 677 342 667 q 402 696 381 688 q 447 709 423 704 q 497 714 471 714 q 593 690 548 714 q 671 624 638 667 q 724 520 704 581 q 743 386 743 460 q 716 228 743 301 q 643 100 690 155 q 534 15 597 46 q 399 -17 471 -17 q 334 -10 363 -17 q 284 6 305 -3 q 240 28 260 15 q 194 6 215 14 q 159 -7 174 -3 q 128 -14 141 -12 z "},"c":{"ha":653,"x_min":67,"x_max":611,"o":"m 610 635 q 596 603 610 616 q 566 581 582 590 q 522 565 547 572 q 490 605 508 587 q 451 632 474 619 q 396 644 427 644 q 312 624 349 644 q 251 570 276 604 q 213 492 226 537 q 200 399 200 447 q 218 257 200 319 q 268 151 236 194 q 343 84 299 107 q 438 61 386 61 q 495 69 467 61 q 547 86 524 76 q 600 111 575 97 l 611 97 q 548 40 584 65 q 473 1 517 19 q 375 -17 430 -17 q 255 5 311 -17 q 157 69 199 26 q 91 181 115 113 q 67 340 67 248 q 95 487 67 418 q 171 608 123 556 q 281 691 219 660 q 413 721 344 721 q 489 712 453 721 q 552 690 525 703 q 594 661 578 676 q 610 635 610 647 z "},"d":{"ha":806,"x_min":67,"x_max":779,"o":"m 547 614 q 513 633 533 625 q 470 647 495 641 q 414 653 446 653 q 328 635 367 653 q 261 581 289 617 q 217 488 233 544 q 201 354 201 432 q 216 232 201 284 q 256 147 231 181 q 315 97 281 113 q 385 81 348 81 q 450 91 421 81 q 500 115 479 101 q 543 149 524 129 l 547 614 m 767 7 q 732 4 749 6 q 701 1 717 3 q 671 -1 685 0 q 639 -6 656 -3 q 607 -11 622 -8 q 572 -18 589 -14 l 563 -6 q 554 23 558 7 q 548 56 551 37 q 543 100 544 76 q 480 42 515 67 q 447 20 465 31 q 407 1 428 10 q 362 -12 386 -7 q 313 -17 338 -17 q 216 8 260 -17 q 138 76 171 32 q 85 181 104 120 q 67 317 67 242 q 81 425 67 373 q 119 522 94 477 q 177 604 143 567 q 252 667 212 641 q 338 708 292 694 q 432 722 384 722 q 477 719 456 722 q 514 713 498 717 q 547 704 532 709 l 550 917 q 549 968 550 946 q 544 1006 549 991 q 535 1018 542 1014 q 516 1025 528 1023 q 485 1027 503 1027 q 440 1028 466 1028 l 457 1079 q 498 1081 477 1080 q 535 1084 515 1083 q 572 1088 556 1085 q 605 1092 588 1089 q 639 1097 623 1094 q 675 1104 657 1100 l 685 1092 q 677 721 680 894 q 674 570 676 647 q 672 425 673 494 q 670 298 671 356 q 669 204 669 240 q 670 138 669 163 q 672 96 670 112 q 676 73 673 81 q 685 61 679 66 q 704 54 691 56 q 732 53 717 53 q 747 53 739 53 q 763 54 755 53 q 779 56 771 55 l 767 7 z "},"e":{"ha":686,"x_min":69,"x_max":647,"o":"m 647 449 q 647 434 647 442 q 647 419 647 426 q 646 403 646 411 l 203 389 l 203 379 q 219 258 203 315 q 268 156 236 200 q 346 87 300 113 q 450 61 392 61 q 518 69 485 61 q 574 86 550 76 q 628 111 603 97 l 639 97 q 571 40 609 65 q 490 1 538 19 q 381 -17 442 -17 q 258 6 315 -17 q 159 73 201 28 q 93 185 117 117 q 69 342 69 252 q 82 439 69 392 q 118 529 95 487 q 172 607 141 572 q 241 668 203 642 q 319 708 278 694 q 403 722 360 722 q 484 710 449 722 q 548 676 520 697 q 594 626 575 654 q 625 568 613 599 q 642 507 637 538 q 647 449 647 476 m 536 464 q 529 520 536 488 q 506 581 522 552 q 461 630 489 610 q 392 650 433 650 q 327 634 358 650 q 272 591 297 619 q 230 526 247 564 q 206 446 213 489 l 536 464 z "},"f":{"ha":521,"x_min":39,"x_max":611,"o":"m 418 694 q 448 696 436 694 q 468 699 460 697 q 482 703 476 701 l 485 700 q 485 697 485 698 q 486 694 485 695 q 486 692 486 693 q 483 671 486 682 q 468 652 479 660 q 436 637 457 643 q 379 631 415 631 l 272 629 q 272 515 272 583 q 271 368 271 456 q 271 158 271 280 q 273 86 271 113 q 290 53 276 59 q 298 50 294 51 q 308 49 301 49 q 323 48 314 48 q 349 47 333 47 q 370 47 358 47 q 392 48 382 47 q 417 49 405 48 l 404 0 l 69 -4 l 79 39 q 92 41 85 39 q 104 45 97 42 q 117 54 110 49 q 134 88 128 64 q 143 145 140 111 q 145 224 145 180 q 146 321 146 269 l 146 629 l 39 626 l 56 692 l 147 694 l 149 731 q 152 797 149 759 q 166 876 156 835 q 195 958 176 917 q 247 1031 214 998 q 298 1071 271 1055 q 350 1097 324 1088 q 401 1110 376 1106 q 444 1114 425 1114 q 500 1109 470 1114 q 554 1097 529 1105 q 595 1076 578 1088 q 611 1049 611 1064 q 599 1016 611 1031 q 572 990 586 1001 q 532 968 553 978 q 506 1012 522 992 q 470 1042 492 1028 q 417 1056 448 1056 q 366 1043 390 1056 q 322 1002 342 1031 q 290 926 303 973 q 276 811 278 879 l 274 694 l 418 694 z "},"g":{"ha":792,"x_min":56,"x_max":765,"o":"m 517 472 q 507 549 517 515 q 478 607 497 583 q 431 644 459 631 q 367 657 403 657 q 307 645 334 657 q 262 613 281 634 q 233 561 243 592 q 222 493 222 531 q 232 416 222 451 q 261 358 242 382 q 308 320 280 333 q 372 307 335 307 q 432 318 405 307 q 477 351 458 330 q 506 403 496 373 q 517 472 517 434 m 264 260 q 193 294 226 272 q 138 346 161 317 q 101 410 114 375 q 88 482 88 444 q 109 574 88 531 q 169 650 131 617 q 258 703 207 683 q 369 722 310 722 q 455 710 417 722 q 518 683 492 698 q 572 644 549 666 q 611 683 590 666 q 655 710 629 698 q 711 722 680 722 q 735 720 726 722 q 751 714 745 717 q 763 706 758 710 q 764 701 763 703 q 765 695 765 698 q 765 686 765 692 q 759 657 765 669 q 747 637 753 644 q 728 621 738 627 q 708 627 719 624 q 686 631 699 629 q 660 633 674 633 q 632 632 644 633 q 611 628 619 630 q 594 622 601 625 q 623 583 610 605 q 642 539 633 565 q 651 482 651 513 q 630 390 651 433 q 570 314 608 347 q 480 261 532 281 q 369 242 428 242 q 348 242 358 242 q 328 244 337 243 q 308 247 317 246 q 269 224 286 237 q 241 200 253 214 q 229 171 229 186 q 253 135 229 147 q 317 117 278 123 q 406 107 356 110 q 504 97 455 103 q 595 77 553 91 q 669 39 638 63 q 718 -20 700 15 q 736 -104 736 -56 q 705 -220 736 -170 q 623 -302 674 -269 q 507 -352 572 -335 q 375 -368 442 -368 q 255 -357 313 -368 q 153 -321 197 -345 q 82 -259 108 -297 q 56 -168 56 -221 q 61 -132 56 -149 q 77 -101 67 -115 q 99 -74 87 -86 q 124 -51 111 -61 q 193 -11 154 -28 l 210 -35 q 177 -60 191 -45 q 155 -92 165 -73 q 144 -140 144 -112 q 164 -207 144 -179 q 214 -254 183 -235 q 283 -281 244 -272 q 361 -290 322 -290 q 450 -280 406 -290 q 530 -250 494 -270 q 588 -199 565 -230 q 610 -126 610 -168 q 593 -68 610 -90 q 548 -34 576 -47 q 484 -16 520 -22 q 411 -7 449 -10 q 352 -1 383 -4 q 292 8 322 2 q 236 22 263 13 q 189 44 209 31 q 156 77 168 58 q 144 124 144 97 q 160 179 144 155 q 197 220 176 203 q 237 247 217 237 q 264 260 256 256 z "},"h":{"ha":847,"x_min":43,"x_max":797,"o":"m 282 604 q 356 663 317 637 q 393 685 373 674 q 435 703 413 695 q 481 717 457 712 q 529 722 504 722 q 615 701 581 722 q 669 643 649 679 q 698 561 690 608 q 706 467 706 515 q 703 390 706 432 q 699 304 701 348 q 695 218 697 260 q 693 139 693 175 q 695 87 693 105 q 707 60 697 69 q 738 51 717 52 q 797 49 758 49 l 785 0 l 489 -4 l 499 39 q 517 43 508 40 q 533 52 524 47 q 547 69 541 58 q 564 129 558 88 q 573 221 570 170 q 576 328 576 272 q 576 432 576 383 q 570 512 576 476 q 547 573 564 548 q 502 611 531 598 q 431 625 474 625 q 373 614 399 625 q 326 590 346 603 q 282 556 302 575 q 280 412 281 483 q 279 348 279 381 q 278 282 278 315 q 278 217 278 249 q 278 158 278 185 q 280 86 278 113 q 297 53 283 59 q 314 48 305 49 q 339 47 323 47 q 353 47 345 47 q 368 48 360 47 q 385 49 376 48 l 372 0 l 76 -4 l 86 39 q 99 41 92 39 q 111 45 104 42 q 124 54 117 49 q 141 88 135 64 q 150 145 147 111 q 152 224 152 180 q 153 321 153 269 l 153 917 q 152 968 153 946 q 147 1006 151 991 q 138 1018 144 1014 q 119 1025 131 1023 q 88 1027 106 1027 q 43 1028 69 1028 l 60 1079 q 101 1081 80 1080 q 138 1084 118 1083 q 175 1088 158 1085 q 208 1092 190 1089 q 242 1097 226 1094 q 278 1104 260 1100 l 288 1092 l 282 604 z "},"i":{"ha":433,"x_min":67,"x_max":388,"o":"m 153 321 q 152 450 153 399 q 149 533 151 501 q 143 581 147 565 q 131 606 138 597 q 114 614 125 611 q 93 617 103 616 q 67 618 81 619 l 76 657 q 109 668 91 662 q 144 681 124 674 q 185 696 163 688 q 221 710 205 703 q 250 722 238 716 q 276 733 264 728 l 286 721 q 283 494 285 602 q 282 401 283 449 q 282 308 282 353 q 281 224 281 263 q 281 158 281 185 q 283 86 281 113 q 300 53 285 59 q 317 48 308 49 q 342 47 326 47 q 356 47 348 47 q 371 48 363 47 q 388 49 378 48 l 375 0 l 76 -4 l 86 39 q 99 41 92 39 q 111 45 104 42 q 124 54 117 49 q 141 88 135 64 q 150 145 147 111 q 152 224 152 180 q 153 321 153 269 m 142 971 q 145 1015 142 995 q 155 1048 149 1034 q 168 1076 160 1064 q 179 1078 173 1077 q 190 1079 184 1078 q 203 1079 197 1079 q 239 1077 220 1079 q 275 1069 258 1075 q 302 1051 291 1063 q 313 1019 313 1039 q 308 976 313 995 q 299 942 304 956 q 285 914 292 926 q 274 913 280 913 q 264 911 269 912 q 251 911 258 911 q 215 913 234 911 q 180 921 196 915 q 152 939 163 927 q 142 971 142 951 z "},"j":{"ha":422,"x_min":3,"x_max":318,"o":"m 285 21 q 281 -66 285 -26 q 268 -141 278 -106 q 242 -207 259 -176 q 200 -262 226 -237 q 156 -299 180 -283 q 105 -328 131 -315 q 54 -351 79 -342 q 7 -368 28 -361 l 3 -335 q 22 -322 12 -330 q 42 -307 31 -316 q 65 -286 53 -298 q 111 -231 93 -258 q 139 -172 129 -203 q 153 -104 149 -141 q 157 -19 157 -67 l 157 321 q 156 450 157 399 q 153 533 156 501 q 147 581 151 565 q 135 606 142 597 q 118 614 129 611 q 97 617 108 616 q 71 618 85 619 l 81 657 q 114 668 96 662 q 149 681 129 674 q 190 696 169 688 q 227 710 210 703 q 255 722 243 716 q 281 733 269 728 l 290 721 q 288 483 289 603 q 286 374 287 431 q 286 256 286 316 q 285 137 285 197 q 285 21 285 77 m 147 971 q 151 1015 147 995 q 160 1048 155 1034 q 174 1076 166 1064 q 185 1078 178 1077 q 196 1079 190 1078 q 208 1079 202 1079 q 245 1077 226 1079 q 280 1069 264 1075 q 307 1051 297 1063 q 318 1019 318 1039 q 314 976 318 995 q 304 942 310 956 q 290 914 298 926 q 280 913 285 913 q 269 911 275 912 q 257 911 263 911 q 220 913 240 911 q 185 921 201 915 q 158 939 169 927 q 147 971 147 951 z "},"k":{"ha":742,"x_min":43,"x_max":744,"o":"m 153 917 q 152 968 153 946 q 147 1006 151 991 q 138 1018 144 1014 q 119 1025 131 1023 q 88 1027 106 1027 q 43 1028 69 1028 l 60 1079 q 101 1081 80 1080 q 138 1084 118 1083 q 175 1088 158 1085 q 208 1092 190 1089 q 242 1097 226 1094 q 278 1104 260 1100 l 288 1092 q 283 746 285 916 q 281 595 281 674 q 279 440 280 517 q 278 291 278 363 q 278 158 278 219 q 280 86 278 113 q 297 53 283 59 q 314 48 305 49 q 339 47 323 47 q 351 47 345 47 q 363 48 357 47 q 374 49 368 48 l 361 0 l 76 -4 l 86 39 q 99 41 92 39 q 111 45 104 42 q 124 54 117 49 q 141 88 135 64 q 150 145 147 111 q 152 224 152 180 q 153 321 153 269 l 153 917 m 407 433 q 466 348 438 389 q 524 266 494 307 q 587 181 554 224 q 658 88 619 137 q 677 65 668 75 q 695 46 685 54 q 715 32 704 38 q 740 24 726 26 l 744 7 q 717 -5 733 0 q 686 -13 704 -10 q 647 -17 669 -17 q 583 1 610 -17 q 533 47 556 19 q 467 135 497 94 q 409 217 438 176 q 353 300 381 258 q 290 394 324 343 l 290 397 l 513 619 q 522 631 517 624 q 528 644 528 638 q 510 660 528 657 q 469 663 492 663 l 479 701 l 719 706 l 706 654 q 653 653 671 654 q 628 650 636 653 q 615 641 619 647 q 601 626 610 635 l 407 433 z "},"l":{"ha":424,"x_min":43,"x_max":424,"o":"m 153 917 q 152 968 153 946 q 147 1006 151 991 q 138 1018 144 1014 q 119 1025 131 1023 q 88 1027 106 1027 q 43 1028 69 1028 l 60 1079 q 101 1081 80 1080 q 138 1084 118 1083 q 175 1088 158 1085 q 208 1092 190 1089 q 242 1097 226 1094 q 278 1104 260 1100 l 288 1092 q 283 746 285 916 q 281 595 281 674 q 279 440 280 517 q 278 291 278 363 q 278 158 278 219 q 280 86 278 113 q 297 53 283 59 q 305 50 301 51 q 315 49 308 49 q 330 48 321 48 q 356 47 340 47 q 377 47 365 47 q 399 48 389 47 q 424 49 412 48 l 411 0 l 76 -4 l 86 39 q 99 41 92 39 q 111 45 104 42 q 124 54 117 49 q 141 88 135 64 q 150 145 147 111 q 152 224 152 180 q 153 321 153 269 l 153 917 z "},"m":{"ha":1215,"x_min":67,"x_max":1165,"o":"m 671 554 q 674 533 672 545 q 677 508 676 523 q 678 475 678 494 q 677 397 678 440 q 674 309 676 354 q 672 219 673 263 q 671 139 671 175 q 672 87 671 105 q 682 60 674 69 q 708 51 690 52 q 760 49 726 49 l 747 0 l 465 -4 l 475 39 q 493 43 484 40 q 509 52 501 47 q 524 69 517 58 q 540 129 535 88 q 548 220 546 169 q 551 327 551 272 q 551 431 551 382 q 545 511 551 475 q 524 573 539 547 q 484 611 509 598 q 421 625 459 625 q 372 614 397 625 q 327 590 347 603 q 282 556 304 575 q 280 412 281 483 q 279 348 279 381 q 278 282 278 315 q 278 217 278 249 q 278 158 278 185 q 280 86 278 113 q 297 53 283 59 q 314 48 305 49 q 339 47 323 47 q 349 47 343 47 q 360 48 355 47 q 374 49 367 48 l 361 0 l 76 -4 l 86 39 q 99 41 92 39 q 111 45 104 42 q 124 54 117 49 q 141 88 135 64 q 150 145 147 111 q 152 224 152 180 q 153 321 153 269 q 152 450 153 399 q 149 533 151 501 q 143 581 147 565 q 131 606 138 597 q 114 614 125 611 q 93 617 103 616 q 67 618 81 619 l 76 657 q 105 668 91 663 q 131 679 117 673 q 157 690 145 685 q 185 705 172 697 q 210 719 199 713 q 233 733 222 726 q 245 718 239 726 q 256 700 251 710 q 267 675 262 689 q 274 650 271 663 q 278 627 276 637 q 281 604 280 615 q 353 663 315 637 q 389 685 370 674 q 428 703 408 695 q 471 717 449 712 q 515 722 493 722 q 570 712 547 722 q 612 685 594 702 q 642 644 630 667 q 663 596 655 622 q 740 659 699 631 q 777 682 757 671 q 818 702 797 694 q 863 717 840 711 q 908 722 885 722 q 985 701 953 722 q 1036 645 1017 680 q 1065 566 1056 610 q 1074 475 1074 522 q 1072 397 1074 440 q 1067 309 1069 354 q 1063 219 1065 263 q 1061 139 1061 175 q 1063 87 1061 105 q 1075 60 1065 69 q 1106 51 1085 52 q 1165 49 1126 49 l 1153 0 l 860 -4 l 869 39 q 887 43 878 40 q 902 52 894 47 q 917 69 910 58 q 933 128 927 88 q 941 220 938 169 q 944 326 944 271 q 944 431 944 382 q 938 511 944 475 q 917 573 932 547 q 877 611 902 598 q 814 625 852 625 q 763 614 789 625 q 717 590 738 603 q 671 554 693 574 z "},"n":{"ha":847,"x_min":67,"x_max":797,"o":"m 785 0 l 489 -4 l 499 39 q 517 43 508 40 q 533 52 524 47 q 547 69 541 58 q 564 129 558 88 q 573 221 570 170 q 576 328 576 272 q 576 432 576 383 q 570 512 576 476 q 547 573 564 548 q 502 611 531 598 q 431 625 474 625 q 373 614 399 625 q 326 590 346 603 q 282 556 302 575 q 280 412 281 483 q 279 348 279 381 q 278 282 278 315 q 278 217 278 249 q 278 158 278 185 q 280 86 278 113 q 297 53 283 59 q 314 48 305 49 q 339 47 323 47 q 353 47 345 47 q 368 48 360 47 q 385 49 376 48 l 372 0 l 76 -4 l 86 39 q 99 41 92 39 q 111 45 104 42 q 124 54 117 49 q 141 88 135 64 q 150 145 147 111 q 152 224 152 180 q 153 321 153 269 q 152 450 153 399 q 149 533 151 501 q 143 581 147 565 q 131 606 138 597 q 114 614 125 611 q 93 617 103 616 q 67 618 81 619 l 76 657 q 105 668 91 663 q 131 679 117 673 q 157 690 145 685 q 185 705 172 697 q 210 719 199 713 q 233 733 222 726 q 245 718 239 726 q 256 700 251 710 q 267 675 262 689 q 274 650 271 663 q 278 627 276 637 q 281 604 280 615 q 356 663 315 637 q 393 685 373 674 q 435 703 413 695 q 481 717 457 712 q 529 722 504 722 q 615 701 581 722 q 669 643 649 679 q 698 561 690 608 q 706 467 706 515 q 703 390 706 432 q 699 304 701 348 q 695 218 697 260 q 693 139 693 175 q 695 87 693 105 q 707 60 697 69 q 738 51 717 52 q 797 49 758 49 l 785 0 z "},"o":{"ha":792,"x_min":67,"x_max":725,"o":"m 401 722 q 535 699 475 722 q 637 631 594 676 q 702 517 679 585 q 725 358 725 449 q 699 209 725 278 q 629 90 674 140 q 523 12 584 40 q 390 -17 462 -17 q 263 6 322 -17 q 160 75 204 29 q 92 188 117 120 q 67 347 67 256 q 92 497 67 428 q 163 615 118 565 q 269 694 208 665 q 401 722 331 722 m 400 51 q 482 72 447 51 q 541 129 517 92 q 576 220 564 167 q 588 339 588 273 q 577 453 588 397 q 542 555 566 510 q 482 627 519 599 q 393 654 445 654 q 311 634 346 654 q 252 576 276 614 q 216 486 228 539 q 204 367 204 433 q 215 252 204 309 q 250 151 226 196 q 311 79 274 106 q 400 51 348 51 z "},"p":{"ha":811,"x_min":53,"x_max":744,"o":"m 265 104 q 300 85 280 93 q 341 71 317 77 q 397 65 366 65 q 484 83 444 65 q 551 135 523 100 q 594 224 579 171 q 610 350 610 278 q 595 472 610 420 q 556 558 581 524 q 497 608 531 592 q 426 625 464 625 q 361 614 390 625 q 312 591 332 603 q 269 557 288 576 l 265 104 m 269 606 q 335 664 299 638 q 370 685 351 675 q 410 704 389 696 q 455 717 431 713 q 506 722 479 722 q 600 698 556 722 q 675 629 643 673 q 726 523 708 585 q 744 388 744 461 q 715 238 744 308 q 634 113 685 167 q 518 28 584 60 q 379 -3 451 -3 q 334 0 355 -3 q 298 6 313 3 q 265 15 280 10 l 265 -194 q 267 -267 265 -240 q 283 -300 269 -294 q 291 -302 287 -301 q 301 -304 294 -303 q 316 -305 307 -305 q 342 -306 326 -306 q 363 -306 351 -306 q 385 -305 375 -306 q 410 -304 398 -305 l 397 -353 l 63 -357 l 72 -314 q 85 -312 78 -314 q 97 -307 90 -310 q 110 -299 103 -304 q 127 -265 121 -289 q 136 -207 133 -242 q 139 -128 138 -173 q 139 -32 139 -84 l 139 321 q 138 450 139 399 q 135 533 138 501 q 129 581 133 565 q 117 606 124 597 q 100 614 111 611 q 79 617 90 616 q 53 618 67 619 l 63 657 q 95 668 77 662 q 130 681 110 674 q 171 696 149 688 q 233 722 209 710 q 256 733 245 728 l 265 721 l 269 606 z "},"q":{"ha":810,"x_min":67,"x_max":757,"o":"m 669 -194 q 672 -252 669 -231 q 682 -285 674 -274 q 708 -300 690 -297 q 757 -304 726 -304 l 744 -353 l 414 -357 l 424 -314 q 450 -313 435 -314 q 478 -310 465 -312 q 504 -304 492 -308 q 521 -293 515 -300 q 533 -259 528 -284 q 541 -200 538 -235 q 544 -122 544 -165 q 544 -32 545 -79 l 543 114 q 481 56 516 81 q 447 34 465 44 q 406 15 428 24 q 359 2 384 7 q 306 -3 333 -3 q 211 22 255 -3 q 136 89 168 46 q 85 191 103 132 q 67 318 67 249 q 97 477 67 403 q 177 605 127 551 q 294 691 228 660 q 432 722 360 722 q 484 718 460 722 q 526 710 508 715 q 564 699 547 705 q 602 707 583 701 q 637 719 621 713 q 672 735 655 727 l 682 722 q 677 705 679 716 q 674 680 675 695 q 672 640 672 665 l 669 -194 m 547 615 q 513 635 533 626 q 470 648 495 642 q 414 654 446 654 q 328 636 367 654 q 261 582 289 619 q 217 490 233 546 q 201 356 201 433 q 216 241 201 290 q 256 160 231 192 q 315 111 281 127 q 385 94 348 94 q 450 105 421 94 q 500 128 479 115 q 543 163 524 143 l 547 615 z "},"r":{"ha":578,"x_min":67,"x_max":544,"o":"m 282 576 q 340 649 310 617 q 368 676 353 663 q 399 699 383 689 q 432 716 415 710 q 465 722 449 722 q 501 716 486 722 q 526 700 516 710 q 540 677 535 690 q 544 653 544 665 q 532 613 544 630 q 505 585 519 596 q 465 563 487 572 q 450 588 458 576 q 431 606 442 598 q 404 614 420 614 q 360 600 382 614 q 321 571 338 587 q 282 528 300 552 q 280 398 281 463 q 279 340 279 370 q 278 278 278 309 q 278 216 278 247 q 278 158 278 185 q 280 86 278 113 q 297 53 283 59 q 305 50 301 51 q 315 49 308 49 q 330 48 321 48 q 356 47 340 47 q 371 47 362 47 q 390 48 381 47 q 413 49 401 48 l 400 0 l 76 -4 l 86 39 q 99 41 92 39 q 111 45 104 42 q 124 54 117 49 q 141 88 135 64 q 150 145 147 111 q 152 224 152 180 q 153 321 153 269 q 152 450 153 399 q 149 533 151 501 q 143 581 147 565 q 131 606 138 597 q 114 614 125 611 q 93 617 103 616 q 67 618 81 619 l 76 657 q 105 668 91 663 q 131 679 117 673 q 157 690 145 685 q 185 705 172 697 q 210 719 199 713 q 233 733 222 726 q 248 714 240 725 q 260 691 253 704 q 271 660 267 678 q 276 630 274 645 q 280 603 278 615 q 282 576 281 590 z "},"s":{"ha":583,"x_min":63,"x_max":513,"o":"m 513 183 q 488 92 513 130 q 426 30 464 53 q 344 -6 389 6 q 258 -17 299 -17 q 190 -9 222 -17 q 133 8 158 -1 q 81 33 105 19 l 63 181 l 107 192 q 130 121 112 152 q 148 95 138 108 q 174 72 159 82 q 210 56 190 63 q 256 50 230 50 q 309 58 285 50 q 352 80 334 65 q 380 115 370 94 q 390 160 390 135 q 377 207 390 185 q 341 247 363 228 q 290 283 318 265 q 231 318 261 300 q 173 358 201 337 q 122 404 144 378 q 86 461 99 429 q 72 532 72 492 q 93 613 72 578 q 147 673 114 649 q 220 710 179 697 q 300 722 260 722 q 350 717 328 722 q 388 707 372 713 q 416 697 404 701 q 435 692 427 692 q 445 696 442 692 q 449 706 448 701 q 450 721 451 713 l 499 733 l 501 535 l 450 521 q 447 548 449 535 q 443 573 446 560 q 438 597 441 586 q 419 625 432 614 q 391 644 407 637 q 356 655 374 651 q 321 658 338 658 q 275 651 297 658 q 234 631 252 644 q 206 597 217 617 q 194 550 194 577 q 218 489 194 515 q 277 440 242 463 q 353 394 313 417 q 430 342 394 371 q 489 274 465 313 q 513 183 513 236 z "},"t":{"ha":528,"x_min":46,"x_max":542,"o":"m 542 79 q 478 31 513 52 q 404 -2 447 13 q 308 -17 362 -17 q 232 -5 263 -17 q 180 30 200 8 q 152 83 160 52 q 143 153 143 115 q 143 239 143 196 q 144 324 144 283 q 146 405 145 366 q 148 477 147 443 q 153 629 150 556 l 46 626 l 57 669 q 88 690 70 678 q 121 716 101 701 q 164 750 141 731 q 211 791 190 772 q 248 826 232 810 q 281 858 266 843 l 290 854 l 279 694 l 418 694 q 448 696 436 694 q 468 699 460 697 q 482 703 476 701 l 485 700 q 485 697 485 698 q 486 694 485 695 q 486 692 486 693 q 483 671 486 682 q 468 652 479 660 q 436 637 457 643 q 379 631 415 631 l 278 629 q 274 430 276 524 q 273 349 274 390 q 272 271 272 308 q 271 203 272 234 q 271 153 271 172 q 277 106 271 124 q 298 76 284 87 q 332 60 311 65 q 382 56 353 56 q 434 61 408 56 q 482 74 460 67 q 531 93 507 82 l 542 79 z "},"u":{"ha":840,"x_min":56,"x_max":796,"o":"m 560 100 q 486 42 525 67 q 450 20 469 31 q 409 1 431 10 q 366 -12 388 -7 q 319 -17 343 -17 q 233 5 267 -17 q 178 62 199 26 q 150 144 158 98 q 142 239 142 190 q 143 314 142 273 q 145 395 144 355 q 148 472 147 435 q 149 535 149 508 q 148 586 149 564 q 143 624 147 609 q 116 643 138 640 q 56 646 94 646 l 72 697 q 105 699 88 698 q 136 702 119 701 q 171 706 154 703 q 204 710 186 707 q 238 715 222 713 q 274 722 256 718 l 283 710 q 278 650 281 685 q 275 574 276 615 q 273 490 274 533 q 272 407 272 447 q 271 332 271 367 q 271 274 271 297 q 277 193 271 229 q 298 133 283 158 q 341 94 314 108 q 410 81 368 81 q 468 91 441 81 q 515 115 494 101 q 558 149 538 129 q 560 291 559 220 q 561 353 560 321 q 561 419 561 386 q 562 483 562 452 q 563 542 563 515 q 562 593 563 571 q 557 631 561 616 q 548 643 554 639 q 528 650 541 648 q 497 652 516 652 q 453 653 478 653 l 469 704 q 510 706 490 705 q 548 709 528 708 q 585 713 568 710 q 618 717 600 714 q 651 722 635 719 q 688 729 669 725 l 697 717 q 694 650 695 692 q 691 556 692 607 q 689 449 690 504 q 688 345 689 394 q 688 258 688 296 q 688 204 688 220 q 688 138 688 163 q 690 96 688 112 q 694 73 691 81 q 703 61 697 66 q 722 54 709 56 q 750 53 735 53 q 765 53 757 53 q 780 54 773 53 q 796 56 788 55 l 783 7 q 745 5 764 6 q 711 2 729 3 q 676 -1 692 1 q 645 -6 663 -3 q 613 -11 628 -8 q 578 -18 595 -14 l 568 -6 q 564 25 566 8 q 561 58 563 39 q 560 100 560 78 z "},"v":{"ha":694,"x_min":3,"x_max":692,"o":"m 544 615 q 549 632 549 626 q 525 653 549 649 q 458 658 502 658 l 469 701 l 692 706 l 679 658 q 645 654 663 658 q 619 631 628 649 l 360 -14 l 344 -14 q 221 299 277 159 q 173 416 197 358 q 130 521 149 474 q 95 600 110 568 q 75 639 81 632 q 52 650 67 648 q 3 653 36 653 l 15 701 l 319 706 l 308 663 q 246 657 265 663 q 228 636 228 651 q 229 628 228 632 q 232 619 230 625 l 383 208 l 386 208 l 544 615 l 544 615 z "},"w":{"ha":1111,"x_min":3,"x_max":1113,"o":"m 360 -14 l 344 -14 q 221 299 277 159 q 173 416 197 358 q 130 521 149 474 q 95 600 110 568 q 75 639 81 632 q 52 650 67 648 q 3 653 36 653 l 15 701 l 311 706 l 300 663 q 238 657 256 663 q 219 636 219 651 q 220 628 219 632 q 224 619 222 625 l 381 208 l 383 208 l 529 578 q 517 603 523 592 q 508 623 513 613 q 501 635 503 632 q 479 646 494 644 q 431 649 464 649 l 443 697 l 731 701 l 719 658 q 661 652 676 658 q 646 632 646 647 q 647 624 646 628 q 650 615 648 621 l 804 208 l 807 208 l 968 615 q 972 632 972 626 q 951 653 972 649 q 886 658 930 658 l 897 701 l 1113 706 l 1100 658 q 1066 654 1083 658 q 1040 631 1049 649 l 783 -14 l 768 -14 l 564 499 l 360 -14 z "},"x":{"ha":694,"x_min":24,"x_max":681,"o":"m 328 275 l 186 86 q 179 75 181 80 q 178 67 178 70 q 198 47 178 50 q 263 43 217 43 l 251 0 l 24 -4 l 36 43 q 68 48 54 43 q 96 71 82 53 l 293 332 q 204 479 244 413 q 170 534 187 507 q 140 584 153 562 q 116 621 126 606 q 103 639 106 635 q 78 651 95 649 q 33 653 60 653 l 46 701 l 335 706 l 324 663 q 270 657 284 663 q 256 636 256 651 q 258 626 256 631 q 263 618 260 622 l 375 431 l 513 615 q 519 627 518 623 q 521 635 521 631 q 501 655 521 651 q 442 658 481 658 l 453 701 l 681 706 l 668 658 q 646 657 656 658 q 630 653 637 656 q 616 645 622 650 q 603 631 610 640 l 410 374 l 589 82 q 626 54 603 59 q 675 49 648 49 l 663 0 l 371 -4 l 382 39 q 436 45 422 39 q 450 65 450 51 q 448 74 450 69 q 443 83 447 78 l 328 275 z "},"y":{"ha":694,"x_min":3,"x_max":692,"o":"m 321 14 q 209 313 260 179 q 166 425 188 369 q 126 525 144 480 q 94 601 108 571 q 75 639 81 632 q 52 650 67 648 q 3 653 36 653 l 15 701 l 319 706 l 308 663 q 246 657 265 663 q 228 636 228 651 q 229 628 228 632 q 232 619 230 625 l 383 181 l 386 181 l 544 615 q 549 632 549 626 q 525 653 549 649 q 458 658 502 658 l 469 701 l 692 706 l 679 658 q 662 658 671 658 q 644 654 653 657 q 630 645 636 651 q 619 631 623 640 l 313 -183 q 226 -319 280 -270 q 97 -368 173 -368 q 32 -352 58 -368 q 7 -311 7 -335 q 17 -282 7 -293 q 38 -264 26 -270 q 69 -253 51 -256 q 84 -264 75 -259 q 103 -272 92 -268 q 132 -275 115 -275 q 197 -253 169 -275 q 240 -192 224 -231 l 321 14 z "},"z":{"ha":667,"x_min":36,"x_max":625,"o":"m 207 639 q 174 636 187 639 q 156 624 162 634 q 148 599 151 617 q 141 563 144 581 q 135 517 138 542 l 83 531 l 86 729 l 135 717 q 138 708 135 711 q 156 699 143 699 l 474 703 q 521 704 495 703 q 570 706 547 705 q 624 707 597 706 l 625 703 q 608 687 616 695 q 593 670 601 679 q 579 651 585 661 l 214 60 l 474 64 q 517 73 502 65 q 541 97 533 81 q 555 137 550 113 q 569 194 560 161 l 619 181 l 597 7 l 592 0 l 203 -1 q 154 -3 182 -1 q 101 -6 126 -4 q 40 -10 71 -8 l 36 0 l 438 643 l 207 639 z "},"{":{"ha":542,"x_min":83,"x_max":486,"o":"m 336 232 q 333 135 336 181 q 325 49 329 90 q 317 -28 321 8 q 314 -96 314 -65 q 327 -147 314 -129 q 361 -174 340 -165 q 409 -183 382 -182 q 464 -185 435 -185 q 475 -190 470 -187 q 483 -197 479 -192 q 486 -207 486 -201 q 479 -223 486 -215 q 458 -238 472 -231 q 427 -249 445 -244 q 389 -253 410 -253 q 325 -244 358 -253 q 267 -216 293 -235 q 224 -170 240 -198 q 207 -103 207 -142 q 211 -50 207 -85 q 219 29 215 -15 q 226 119 223 72 q 229 208 230 166 q 217 285 228 257 q 190 330 206 314 q 155 353 174 347 q 121 366 137 360 q 94 381 105 372 q 83 407 83 389 q 94 433 83 425 q 121 448 105 442 q 155 460 137 453 q 190 484 174 467 q 217 528 206 500 q 229 606 228 557 q 226 695 230 648 q 219 785 223 742 q 211 864 215 828 q 207 917 207 899 q 224 983 207 955 q 267 1030 240 1012 q 325 1058 293 1049 q 389 1067 358 1067 q 427 1063 410 1067 q 458 1052 445 1058 q 479 1037 472 1045 q 486 1021 486 1028 q 483 1010 486 1015 q 475 1003 479 1006 q 464 999 470 1001 q 409 997 435 999 q 361 988 382 996 q 327 961 340 979 q 314 910 314 943 q 317 842 314 878 q 325 765 321 806 q 333 678 329 724 q 336 582 336 633 q 323 509 336 540 q 286 457 309 478 q 233 424 263 435 q 169 408 203 412 q 167 407 167 408 q 169 406 167 406 q 233 390 203 402 q 286 357 263 378 q 323 305 309 336 q 336 232 336 274 z "},"|":{"ha":347,"x_min":132,"x_max":215,"o":"m 132 -347 l 132 1097 l 215 1097 l 215 -347 l 132 -347 z "},"}":{"ha":542,"x_min":56,"x_max":458,"o":"m 206 582 q 209 678 206 633 q 217 765 213 724 q 224 842 221 806 q 228 910 228 878 q 215 961 228 943 q 181 988 202 979 q 133 997 160 996 q 78 999 106 999 q 67 1003 72 1001 q 59 1010 63 1006 q 56 1021 56 1015 q 63 1037 56 1028 q 83 1052 70 1045 q 114 1063 97 1058 q 153 1067 132 1067 q 216 1058 184 1067 q 275 1030 249 1049 q 318 983 301 1012 q 335 917 335 955 q 331 864 335 899 q 323 785 327 828 q 315 695 319 742 q 313 606 312 648 q 324 528 313 557 q 352 484 335 500 q 386 460 368 467 q 421 448 405 453 q 448 433 437 442 q 458 407 458 425 q 448 381 458 389 q 421 366 437 372 q 386 353 405 360 q 352 330 368 347 q 324 285 335 314 q 313 208 313 257 q 315 119 312 166 q 323 29 319 72 q 331 -50 327 -15 q 335 -103 335 -85 q 318 -170 335 -142 q 275 -216 301 -198 q 216 -244 249 -235 q 153 -253 184 -253 q 114 -249 132 -253 q 83 -238 97 -244 q 63 -223 70 -231 q 56 -207 56 -215 q 59 -197 56 -201 q 67 -190 63 -192 q 78 -185 72 -187 q 133 -183 106 -185 q 181 -174 160 -182 q 215 -147 202 -165 q 228 -96 228 -129 q 224 -28 228 -65 q 217 49 221 8 q 209 135 213 90 q 206 232 206 181 q 219 305 206 274 q 256 357 233 336 q 309 390 278 378 q 372 406 339 402 q 375 407 375 406 q 372 408 375 408 q 309 424 339 412 q 256 457 278 435 q 219 509 233 478 q 206 582 206 540 z "},"~":{"ha":694,"x_min":29,"x_max":665,"o":"m 492 299 q 416 311 453 299 q 343 339 379 324 q 272 367 307 354 q 204 379 238 379 q 133 357 165 379 q 74 301 100 335 l 29 363 q 106 437 64 410 q 203 464 147 464 q 278 451 241 464 q 352 424 315 439 q 423 396 388 408 q 490 383 458 383 q 562 406 529 383 q 621 461 594 428 l 665 404 q 589 327 631 356 q 492 299 547 299 z "},"":{"ha":347,"x_min":0,"x_max":0,"o":""},"":{"ha":458,"x_min":142,"x_max":314,"o":"m 151 -144 q 154 -92 152 -126 q 160 -14 156 -58 q 167 78 163 29 q 176 176 172 127 q 199 421 185 289 l 261 435 q 266 329 263 383 q 272 226 269 283 q 281 114 276 169 q 291 -8 286 44 q 301 -96 297 -60 q 310 -165 306 -137 q 278 -185 294 -176 q 246 -198 264 -192 q 210 -204 228 -204 q 163 -187 176 -204 q 151 -144 150 -171 m 314 647 q 310 612 314 628 q 302 585 306 597 q 290 561 297 572 q 274 557 282 559 q 256 554 266 556 q 235 553 247 553 q 207 555 223 553 q 176 564 191 557 q 152 586 162 572 q 142 626 142 601 q 145 662 142 646 q 153 690 149 678 q 165 714 158 703 q 181 718 172 716 q 199 721 189 719 q 221 722 209 722 q 249 720 233 722 q 279 710 265 718 q 304 688 294 703 q 314 647 314 673 z "},"":{"ha":694,"x_min":104,"x_max":615,"o":"m 360 788 l 424 788 l 424 707 q 509 698 473 707 q 568 676 545 689 q 603 650 592 664 q 614 625 614 635 q 600 593 614 606 q 570 572 586 580 q 526 556 551 562 q 503 593 517 576 q 469 619 490 607 q 417 631 448 631 q 339 610 372 631 q 283 557 306 590 q 249 483 260 524 q 238 399 238 441 q 254 266 238 326 q 299 164 270 206 q 369 98 328 122 q 458 75 410 75 q 514 82 488 75 q 560 97 540 88 q 604 118 583 106 l 615 104 q 567 56 594 78 q 507 20 542 37 q 424 -1 472 3 l 424 -87 l 360 -87 l 360 0 q 259 29 306 5 q 177 95 212 53 q 124 199 143 138 q 104 340 104 260 q 124 459 104 401 q 177 564 143 516 q 259 647 212 612 q 360 697 306 681 l 360 788 z "},"":{"ha":694,"x_min":28,"x_max":654,"o":"m 490 74 q 534 85 516 74 q 564 115 551 97 q 584 154 576 133 q 599 194 592 175 l 654 181 l 596 3 l 593 0 l 63 -4 l 72 44 q 88 47 81 44 q 103 51 95 48 q 117 60 110 54 q 125 69 121 63 q 132 88 128 74 q 139 126 136 101 q 146 194 142 151 l 160 400 l 28 397 l 44 463 l 164 465 l 169 536 q 203 675 174 617 q 275 769 232 733 q 370 823 317 806 q 475 840 422 840 q 530 836 501 840 q 584 824 560 832 q 625 806 609 817 q 642 781 642 794 q 630 751 642 764 q 605 729 619 738 q 568 711 588 719 q 539 747 556 731 q 501 771 524 760 q 447 782 478 782 q 388 767 415 782 q 341 720 360 751 q 308 639 321 688 q 290 522 295 590 l 288 465 l 443 465 q 473 467 461 465 q 493 469 485 468 q 507 474 501 472 l 510 471 q 510 467 510 469 q 511 465 510 466 q 511 463 511 464 q 508 442 511 453 q 493 423 504 431 q 461 408 482 414 q 404 401 440 402 l 283 400 l 269 149 q 269 107 268 122 q 275 84 269 92 q 291 74 280 76 q 322 72 302 72 l 490 74 z "},"":{"ha":694,"x_min":-53,"x_max":747,"o":"m 18 375 q 35 481 18 431 q 83 571 53 532 l -53 707 l 13 772 l 147 636 q 240 686 189 669 q 347 704 291 704 q 455 686 403 704 q 547 638 506 669 l 682 772 l 747 707 l 611 571 q 659 480 642 530 q 676 375 676 431 q 659 269 676 319 q 613 179 642 219 l 747 44 l 682 -21 l 547 114 q 456 64 508 83 q 347 46 403 46 q 238 64 290 46 q 147 114 187 83 l 13 -21 l -53 44 l 82 179 q 35 269 53 219 q 18 375 18 319 m 576 374 q 558 464 576 422 q 509 538 540 506 q 436 587 478 569 q 347 606 394 606 q 259 587 300 606 q 186 538 217 569 q 138 464 156 506 q 119 374 119 422 q 138 285 119 326 q 186 212 156 243 q 259 164 217 181 q 347 146 300 146 q 436 164 394 146 q 509 212 478 181 q 558 285 540 243 q 576 374 576 326 z "},"":{"ha":694,"x_min":3,"x_max":674,"o":"m 443 825 l 674 829 l 664 781 q 637 776 648 781 q 618 765 626 772 q 605 749 610 758 q 594 729 599 740 l 499 542 l 657 542 l 640 476 l 465 476 l 408 365 l 408 358 l 646 358 l 629 293 l 408 293 l 410 164 q 412 91 410 118 q 429 58 415 65 q 446 54 437 55 q 471 53 455 53 q 480 53 475 53 q 491 53 485 53 q 503 54 497 53 l 490 0 l 208 -4 l 218 44 q 233 47 226 44 q 247 51 240 48 q 261 60 255 54 q 277 90 272 69 q 286 141 283 110 q 290 209 289 171 q 290 293 290 248 l 53 293 l 69 358 l 283 358 l 224 476 l 46 476 l 63 542 l 189 542 l 101 714 q 84 746 92 733 q 65 765 76 758 q 40 774 55 772 q 3 776 26 776 l 14 825 l 301 829 l 290 774 q 242 770 259 774 q 225 749 225 767 q 229 730 225 742 q 241 701 233 717 q 258 664 248 684 q 278 624 267 644 l 375 435 l 479 639 q 492 665 485 651 q 503 693 498 679 q 512 719 508 707 q 515 740 515 732 q 501 766 515 760 q 457 772 488 772 q 449 772 453 772 q 440 772 444 772 q 431 771 435 771 l 443 825 z "},"":{"ha":347,"x_min":132,"x_max":215,"o":"m 132 611 l 132 1097 l 215 1097 l 215 611 l 132 611 m 132 -347 l 132 139 l 215 139 l 215 -347 l 132 -347 z "},"":{"ha":694,"x_min":26,"x_max":667,"o":"m 564 236 q 545 327 564 290 q 494 392 526 365 q 423 441 463 420 q 342 481 383 461 q 260 522 300 501 q 189 572 220 543 q 139 640 158 601 q 119 736 119 680 q 132 813 119 779 q 165 873 144 847 q 213 915 185 898 q 272 943 241 933 q 334 959 302 954 q 396 964 366 964 q 466 959 435 964 q 519 949 497 954 q 565 933 545 942 l 556 864 q 517 876 539 870 q 471 884 498 880 q 410 888 444 888 q 292 853 336 888 q 246 750 247 818 q 263 688 245 713 q 310 641 281 662 q 377 603 340 621 q 455 567 415 586 q 533 524 494 548 q 601 468 571 501 q 649 390 631 435 q 667 285 667 346 q 651 209 667 243 q 617 151 635 176 q 568 101 595 124 l 542 125 q 553 152 548 136 q 560 186 557 166 q 564 236 564 207 m 299 -249 q 223 -243 257 -249 q 165 -232 190 -238 q 115 -215 138 -224 l 125 -142 q 165 -155 142 -149 q 213 -164 184 -160 q 278 -168 241 -168 q 345 -159 314 -168 q 399 -132 376 -149 q 434 -90 422 -114 q 447 -35 447 -65 q 430 27 448 1 q 383 74 412 53 q 315 112 353 94 q 238 148 277 129 q 160 191 198 167 q 92 248 122 215 q 44 325 63 281 q 26 431 26 369 q 42 506 26 472 q 76 564 57 540 q 125 614 97 592 l 151 590 q 140 563 145 579 q 133 529 136 549 q 129 479 129 508 q 148 388 129 426 q 199 323 167 351 q 270 275 230 295 q 351 234 310 254 q 433 193 393 215 q 504 143 473 172 q 555 75 535 115 q 574 -21 574 35 q 561 -98 574 -65 q 528 -157 549 -132 q 480 -200 508 -183 q 422 -228 452 -217 q 359 -244 391 -239 q 299 -249 328 -249 z "},"":{"ha":556,"x_min":51,"x_max":504,"o":"m 51 921 q 55 962 51 944 q 65 993 59 980 q 78 1019 70 1008 q 88 1022 83 1020 q 97 1023 92 1022 q 108 1024 103 1024 q 142 1022 124 1024 q 176 1014 160 1020 q 201 997 191 1008 q 211 967 211 985 q 207 925 211 944 q 198 894 203 907 q 185 867 192 878 q 175 865 180 866 q 165 864 171 865 q 154 864 160 864 q 120 866 138 864 q 87 873 102 867 q 61 890 72 879 q 51 921 51 901 m 344 921 q 348 962 344 944 q 358 993 352 980 q 371 1019 363 1008 q 381 1022 376 1020 q 390 1023 385 1022 q 401 1024 396 1024 q 435 1022 417 1024 q 469 1014 453 1020 q 494 997 484 1008 q 504 967 504 985 q 500 925 504 944 q 491 894 496 907 q 478 867 485 878 q 468 865 473 866 q 458 864 464 865 q 447 864 453 864 q 413 866 431 864 q 380 873 395 867 q 355 890 365 879 q 344 921 344 901 z "},"":{"ha":1111,"x_min":67,"x_max":1044,"o":"m 1044 472 q 1027 342 1044 404 q 978 225 1010 279 q 902 126 947 171 q 803 50 858 82 q 687 1 749 18 q 557 -17 624 -17 q 428 1 490 -17 q 311 49 365 18 q 211 125 256 81 q 134 223 167 169 q 84 339 102 276 q 67 468 67 401 q 84 600 67 537 q 133 718 101 663 q 209 818 165 773 q 308 894 253 863 q 426 944 363 926 q 558 961 489 961 q 688 944 626 961 q 805 894 751 926 q 903 818 859 863 q 978 719 947 773 q 1027 602 1010 665 q 1044 472 1044 540 m 981 472 q 966 586 981 531 q 924 689 951 641 q 858 775 897 736 q 773 842 819 814 q 672 885 726 869 q 558 900 617 900 q 443 885 499 900 q 341 842 388 869 q 254 775 293 814 q 188 688 215 735 q 145 584 160 640 q 131 468 131 528 q 165 303 131 380 q 257 168 199 226 q 393 78 315 111 q 557 44 470 44 q 670 60 616 44 q 772 103 724 75 q 857 170 819 131 q 923 257 896 210 q 966 359 951 305 q 981 472 981 413 m 714 208 q 674 192 696 199 q 630 180 655 185 q 574 175 604 175 q 458 195 510 175 q 369 253 406 215 q 311 344 331 290 q 290 467 290 399 q 311 583 290 528 q 371 679 333 638 q 463 745 410 721 q 581 769 517 769 q 634 764 608 769 q 681 758 660 758 q 695 759 688 758 q 708 761 702 760 q 721 764 715 763 l 722 763 l 719 625 l 671 626 q 667 661 671 649 q 656 683 663 674 q 625 701 645 696 q 572 707 606 707 q 493 689 527 707 q 438 641 460 672 q 404 570 415 611 q 393 483 393 530 q 404 399 393 442 q 438 320 415 356 q 496 262 461 285 q 578 239 531 239 q 630 252 609 239 q 662 281 650 265 q 683 324 676 299 l 728 315 l 714 208 z "},"":{"ha":531,"x_min":47,"x_max":519,"o":"m 519 457 q 488 433 506 443 q 453 416 474 423 q 408 408 433 408 q 369 418 384 408 q 344 440 353 428 q 329 472 334 454 q 309 457 324 467 q 275 436 295 447 q 229 417 254 425 q 176 408 204 408 q 128 416 151 408 q 87 439 105 424 q 58 477 69 454 q 47 529 47 499 q 61 584 47 560 q 98 625 75 608 q 149 653 120 642 q 209 672 178 665 q 270 683 240 679 q 325 690 300 688 q 325 706 325 694 q 326 734 326 718 q 327 766 327 749 q 328 797 328 783 q 325 836 328 819 q 315 867 322 854 q 295 887 308 880 q 263 894 282 894 q 224 885 240 894 q 198 864 208 876 q 178 833 185 851 q 160 822 169 827 q 140 815 151 818 q 117 811 129 811 q 89 820 102 811 q 76 844 76 828 q 80 863 76 857 q 88 872 83 868 q 121 894 100 881 q 168 918 142 906 q 222 937 194 929 q 275 944 249 944 q 334 938 306 944 q 385 914 363 931 q 420 869 407 897 q 433 797 433 840 q 428 661 433 729 q 424 515 424 592 q 430 480 424 488 q 450 471 435 471 q 466 473 458 471 q 481 476 474 474 q 496 482 488 479 l 519 457 m 321 574 q 321 594 321 582 q 322 617 321 606 q 322 644 322 630 q 301 642 316 644 q 266 636 285 640 q 226 625 247 632 q 188 607 206 618 q 160 581 171 597 q 149 544 149 565 q 156 515 149 526 q 173 496 163 503 q 196 487 183 490 q 221 485 209 485 q 255 490 237 485 q 288 503 272 496 q 322 521 306 510 q 322 539 322 530 q 321 556 321 547 q 321 574 321 565 z "},"":{"ha":653,"x_min":57,"x_max":564,"o":"m 328 568 q 327 561 328 565 q 326 556 326 558 q 324 551 324 553 q 303 521 316 538 q 276 487 293 506 q 236 444 260 467 q 209 417 222 429 q 185 394 196 404 q 163 375 173 383 q 182 356 172 366 q 201 338 190 348 q 221 315 211 327 q 244 287 228 308 q 277 241 260 267 q 307 188 294 215 q 319 138 319 160 q 311 121 319 128 q 293 110 303 115 q 267 103 281 106 q 241 148 256 124 q 210 195 228 168 q 167 251 191 222 q 129 293 149 272 q 94 333 110 315 q 57 375 75 355 l 57 379 q 92 405 74 391 q 127 433 108 417 q 165 468 147 449 q 223 529 200 502 q 260 575 246 556 q 288 614 277 597 q 308 599 299 606 q 322 584 315 592 q 328 568 328 576 m 564 558 q 563 552 564 555 q 562 547 563 549 q 560 542 560 544 q 542 516 553 531 q 517 485 533 503 q 478 444 501 467 q 451 417 464 429 q 427 394 438 404 q 404 375 415 383 q 424 356 413 366 q 442 338 432 348 q 463 315 453 327 q 485 289 469 308 q 517 245 501 269 q 545 195 533 222 q 557 147 557 169 q 549 131 557 138 q 532 120 542 124 q 507 113 521 115 q 484 153 497 131 q 455 197 472 172 q 413 251 437 222 q 375 293 394 272 q 340 333 356 315 q 303 375 321 355 l 303 379 q 338 405 320 391 q 373 433 354 417 q 411 468 392 449 q 468 527 446 502 q 503 570 490 553 q 526 604 518 590 q 545 589 537 597 q 558 574 552 582 q 564 558 564 566 z "},"":{"ha":694,"x_min":51,"x_max":643,"o":"m 51 422 l 643 422 l 643 72 l 558 72 l 558 340 l 51 340 l 51 422 z "},"":{"ha":521,"x_min":46,"x_max":475,"o":"m 475 400 q 472 383 475 393 q 457 363 468 372 q 425 345 446 353 q 368 338 403 338 l 46 335 l 65 421 l 404 425 q 435 426 423 425 q 456 428 448 427 q 469 432 464 430 l 472 431 q 474 419 473 425 q 475 409 474 415 q 475 400 475 404 z "},"":{"ha":694,"x_min":29,"x_max":665,"o":"m 665 643 q 640 519 665 577 q 573 418 615 461 q 472 350 530 375 q 349 325 414 325 q 225 350 283 325 q 123 417 167 374 q 55 517 80 460 q 29 640 29 574 q 54 766 29 708 q 122 868 78 824 q 223 936 165 911 q 349 961 281 961 q 473 936 415 961 q 573 868 531 911 q 641 766 616 824 q 665 643 665 708 m 608 643 q 588 747 608 698 q 533 832 568 795 q 451 889 498 868 q 349 910 403 910 q 245 889 293 910 q 162 831 197 867 q 106 745 126 794 q 86 639 86 696 q 107 536 86 584 q 163 453 128 488 q 247 397 199 417 q 349 376 294 376 q 451 397 403 376 q 533 455 498 418 q 588 539 568 491 q 608 643 608 588 m 306 649 q 400 725 400 651 q 396 751 400 738 q 384 773 392 764 q 361 789 376 783 q 326 794 347 794 l 307 794 q 306 767 306 781 q 306 738 306 754 q 306 706 306 722 l 306 649 m 460 499 q 467 491 464 492 q 476 490 470 490 q 482 490 478 490 q 488 491 485 490 q 496 492 492 491 l 489 457 q 469 453 480 455 q 426 450 450 450 q 417 462 422 455 q 392 497 407 473 l 314 615 l 306 615 l 306 533 q 306 505 306 515 q 313 492 307 494 q 319 490 316 490 q 325 490 322 490 q 331 490 328 490 q 337 491 334 490 q 343 492 340 491 l 333 456 l 208 454 l 215 483 l 221 483 q 229 485 226 483 q 238 495 235 488 q 242 515 241 503 q 243 541 243 526 q 243 572 243 556 l 243 751 q 236 793 243 788 q 229 795 233 795 q 219 796 226 796 q 214 795 217 796 q 209 795 211 795 q 204 794 206 794 l 211 829 q 251 831 228 830 q 294 832 269 831 q 349 832 319 832 q 434 806 405 832 q 464 732 464 779 q 450 676 464 697 q 421 644 437 656 q 378 625 402 631 l 460 499 z "},"":{"ha":556,"x_min":79,"x_max":476,"o":"m 476 903 l 79 903 l 79 982 l 476 982 l 476 903 z "},"":{"ha":694,"x_min":165,"x_max":529,"o":"m 529 660 q 515 588 529 621 q 476 530 501 555 q 418 492 451 506 q 347 478 385 478 q 275 492 308 478 q 218 530 242 506 q 179 588 193 555 q 165 660 165 621 q 179 730 165 697 q 218 788 193 763 q 275 827 242 813 q 347 842 308 842 q 418 827 385 842 q 476 788 451 813 q 515 730 501 763 q 529 660 529 697 m 471 660 q 461 710 471 686 q 434 751 451 733 q 395 779 417 769 q 347 789 372 789 q 300 779 322 789 q 260 751 277 769 q 234 710 244 733 q 224 660 224 686 q 234 608 224 632 q 260 567 244 585 q 300 539 277 549 q 347 529 322 529 q 395 539 372 529 q 434 567 417 549 q 461 608 451 585 q 471 660 471 632 z "},"":{"ha":694,"x_min":38,"x_max":658,"o":"m 658 447 q 655 427 658 438 q 640 406 651 416 q 608 390 629 397 q 551 382 587 383 l 382 381 q 384 284 382 326 q 390 211 387 241 q 399 150 394 176 l 397 146 q 390 144 394 145 q 381 143 386 144 q 371 143 376 143 q 330 163 344 143 q 309 216 316 183 q 300 292 301 249 q 299 381 299 335 l 38 379 l 57 463 l 299 464 q 299 531 299 493 q 301 604 299 569 q 303 686 301 644 l 386 697 q 384 610 385 653 q 382 534 383 573 q 382 465 382 494 l 589 467 q 619 468 607 467 q 639 470 631 469 q 653 474 647 472 l 656 472 q 657 465 656 469 q 658 457 658 462 q 658 447 658 453 m 38 -3 l 57 81 l 589 85 q 619 86 607 85 q 639 88 631 87 q 653 92 647 90 l 656 90 q 657 83 656 87 q 658 75 658 80 q 658 65 658 71 q 655 45 658 56 q 640 24 651 34 q 608 7 629 14 q 551 0 587 0 l 38 -3 z "},"":{"ha":521,"x_min":47,"x_max":450,"o":"m 324 493 q 352 502 340 493 q 373 523 365 510 q 388 551 382 536 q 399 581 394 567 l 450 567 l 404 433 l 65 433 l 47 488 q 180 631 122 560 q 228 694 205 661 q 271 759 252 726 q 301 821 290 791 q 313 876 313 851 q 306 913 313 896 q 288 942 300 930 q 258 962 276 955 q 217 969 240 969 q 193 967 206 969 q 168 960 180 965 q 148 952 156 956 q 136 943 139 947 q 127 910 132 935 q 118 854 122 885 l 72 867 l 74 1000 q 126 1020 97 1011 q 183 1034 150 1028 q 254 1040 216 1040 q 314 1033 285 1040 q 367 1008 344 1026 q 404 963 390 991 q 418 892 418 934 q 406 831 418 863 q 375 764 394 798 q 331 697 356 731 q 281 634 307 664 q 144 492 221 563 l 324 493 z "},"":{"ha":521,"x_min":42,"x_max":426,"o":"m 426 596 q 409 524 426 556 q 361 469 392 492 q 288 433 330 446 q 196 421 245 421 q 138 426 165 421 q 88 438 110 431 q 42 454 63 445 l 50 494 q 85 489 67 492 q 119 485 100 487 q 156 483 138 483 q 278 512 233 483 q 322 596 322 540 q 315 631 322 616 q 297 658 308 647 q 272 677 286 669 q 242 690 257 685 q 163 703 207 701 l 163 749 q 185 752 171 749 q 215 763 199 756 q 247 781 231 769 q 277 807 264 792 q 299 842 290 822 q 307 888 307 863 q 299 923 307 908 q 277 949 290 938 q 246 964 263 959 q 210 969 228 969 q 186 967 199 969 q 161 960 173 965 q 141 952 149 956 q 129 943 132 947 q 120 910 125 935 q 111 854 115 885 l 64 867 l 67 1000 q 117 1020 89 1011 q 171 1034 140 1028 q 238 1040 202 1040 q 303 1032 272 1040 q 358 1006 335 1023 q 396 962 382 988 q 410 901 410 936 q 405 866 410 883 q 391 834 399 849 q 371 807 382 819 q 349 784 360 794 q 289 742 322 760 q 328 730 305 738 q 374 705 352 722 q 411 662 396 688 q 426 596 426 635 z "},"":{"ha":556,"x_min":188,"x_max":407,"o":"m 407 1025 q 398 991 407 1009 q 375 953 390 972 q 342 914 360 933 q 305 876 324 894 q 203 789 260 833 l 188 800 q 208 835 196 815 q 231 875 217 851 q 260 931 244 899 q 288 992 276 963 q 308 1051 299 1021 q 328 1058 318 1055 q 345 1062 336 1060 q 363 1064 355 1064 q 378 1062 370 1064 q 392 1055 386 1060 q 403 1043 399 1051 q 407 1025 407 1036 z "},"":{"ha":815,"x_min":132,"x_max":779,"o":"m 218 35 q 217 -12 217 12 q 216 -59 216 -33 q 215 -111 215 -85 q 247 -232 215 -190 q 332 -281 278 -275 q 338 -291 335 -285 q 341 -301 340 -296 q 343 -312 343 -307 q 298 -333 321 -324 q 253 -348 278 -341 q 201 -354 228 -354 q 171 -347 183 -354 q 152 -321 159 -340 q 142 -272 144 -303 q 139 -194 139 -242 q 139 -87 139 -135 q 138 5 138 -39 q 136 91 137 49 q 135 180 135 133 q 134 281 134 226 q 133 403 133 335 q 133 472 133 434 q 133 548 133 510 q 132 617 133 585 q 132 667 132 649 q 146 690 132 680 q 179 707 160 700 q 216 718 198 715 q 242 722 234 722 q 254 720 249 722 q 262 717 259 719 q 267 711 265 714 q 259 592 264 659 q 249 457 254 526 q 241 321 244 388 q 238 204 238 255 q 246 151 238 173 q 269 117 255 130 q 302 98 283 103 q 340 92 320 92 q 430 121 392 92 q 492 202 467 151 q 531 323 517 253 q 550 472 544 392 q 551 513 551 488 q 551 567 551 539 q 550 622 551 595 q 550 667 550 649 q 564 690 550 680 q 597 707 578 700 q 634 718 616 715 q 660 722 652 722 q 672 720 667 722 q 680 717 677 719 q 685 711 683 714 q 672 503 677 601 q 666 418 669 462 q 662 335 664 375 q 659 260 660 294 q 658 203 658 226 q 670 115 658 147 q 704 83 681 83 q 725 89 716 83 q 742 100 735 94 q 758 117 751 108 l 768 118 q 774 108 771 113 q 777 97 776 103 q 779 86 779 92 q 767 57 779 74 q 736 23 755 40 q 693 -5 717 7 q 647 -17 669 -17 q 605 -7 624 -17 q 572 19 585 2 q 551 59 558 35 q 543 111 543 83 q 543 135 543 119 q 544 167 544 151 q 546 208 545 186 q 494 104 526 150 q 463 66 480 85 q 424 33 445 47 q 376 9 402 18 q 319 0 350 0 q 277 5 296 0 q 245 17 258 10 q 218 35 230 25 z "},"":{"ha":750,"x_min":50,"x_max":686,"o":"m 50 671 q 75 787 50 736 q 142 872 100 838 q 239 925 184 907 q 356 943 294 943 l 686 946 l 676 897 q 659 895 667 897 q 643 891 651 894 q 629 882 635 888 q 611 849 617 872 q 603 792 606 826 q 600 714 601 758 q 600 621 600 671 l 600 189 q 591 102 600 142 q 568 32 582 63 q 537 -23 554 1 q 504 -61 520 -46 q 458 -95 483 -81 q 404 -119 432 -110 q 348 -132 376 -128 q 294 -136 320 -136 q 248 -130 268 -136 q 213 -114 227 -123 q 191 -93 199 -104 q 183 -74 183 -83 q 191 -52 183 -62 q 210 -33 199 -41 q 234 -18 222 -24 q 256 -10 246 -12 q 276 -39 263 -26 q 303 -59 286 -50 q 343 -68 319 -68 q 394 -60 371 -68 q 435 -31 418 -51 q 463 22 453 -11 q 472 106 472 56 l 472 896 l 431 896 q 317 878 367 896 q 234 831 268 861 q 182 758 199 800 q 164 665 164 715 q 188 564 164 607 q 249 491 211 521 q 335 444 287 461 q 432 419 383 426 l 429 385 q 268 408 338 385 q 149 472 197 432 q 75 563 101 511 q 50 671 50 615 z "},"":{"ha":347,"x_min":86,"x_max":263,"o":"m 86 343 q 90 379 86 363 q 99 406 94 394 q 111 431 104 419 q 127 435 118 433 q 145 438 135 436 q 167 439 155 439 q 196 437 179 439 q 227 427 213 435 q 252 405 242 420 q 263 364 263 390 q 259 327 263 344 q 250 299 255 311 q 238 275 244 285 q 221 271 229 273 q 203 268 213 269 q 182 267 194 267 q 153 269 169 267 q 122 279 136 271 q 97 302 107 287 q 86 343 86 317 z "},"":{"ha":556,"x_min":128,"x_max":403,"o":"m 194 -264 q 246 -258 226 -264 q 278 -244 266 -253 q 294 -224 290 -235 q 299 -201 299 -213 q 285 -166 299 -181 q 253 -143 272 -152 q 213 -131 234 -135 q 178 -126 192 -127 l 210 0 l 264 0 l 240 -87 q 262 -90 247 -88 q 295 -97 277 -92 q 332 -109 313 -101 q 367 -129 351 -117 q 393 -159 383 -142 q 403 -201 403 -177 q 389 -252 403 -232 q 353 -284 375 -272 q 303 -301 331 -296 q 247 -306 275 -306 q 198 -303 219 -306 q 160 -297 176 -301 q 128 -289 142 -294 l 133 -261 q 151 -262 141 -262 q 170 -264 159 -263 q 194 -264 181 -264 z "},"":{"ha":521,"x_min":75,"x_max":408,"o":"m 224 947 q 148 929 187 938 q 75 913 110 921 l 79 979 q 152 994 120 987 q 214 1008 185 1001 q 272 1024 243 1015 q 333 1042 300 1032 q 331 944 332 997 q 330 838 330 898 q 329 710 329 778 l 329 556 q 330 507 329 525 q 339 485 331 489 q 351 482 344 483 q 368 481 358 481 q 380 481 373 481 q 393 481 387 481 q 408 482 401 481 l 396 433 l 157 431 l 165 476 q 180 477 172 476 q 192 480 185 478 q 203 485 199 481 q 215 506 210 491 q 221 542 219 520 q 223 591 223 564 q 224 651 224 619 l 224 947 z "},"":{"ha":597,"x_min":50,"x_max":547,"o":"m 301 944 q 402 928 357 944 q 480 878 448 911 q 530 795 513 845 q 547 681 547 746 q 528 572 547 622 q 474 486 508 522 q 394 429 440 449 q 293 408 347 408 q 198 425 242 408 q 120 475 153 442 q 69 557 88 508 q 50 672 50 606 q 69 780 50 731 q 123 866 89 830 q 202 924 156 903 q 301 944 248 944 m 301 468 q 359 482 334 468 q 401 522 384 496 q 426 584 417 547 q 435 667 435 621 q 427 746 435 707 q 402 816 419 785 q 359 866 385 847 q 296 885 333 885 q 238 871 263 885 q 196 832 213 858 q 171 769 179 806 q 163 686 163 733 q 170 607 163 646 q 195 537 178 568 q 238 487 212 506 q 301 468 265 468 z "},"":{"ha":653,"x_min":89,"x_max":596,"o":"m 325 149 q 327 160 325 156 q 329 165 328 163 q 349 196 337 178 q 376 230 360 210 q 417 272 393 249 q 444 300 431 288 q 467 322 457 313 q 490 342 480 333 q 470 360 480 350 q 451 379 461 368 q 432 401 442 390 q 409 430 425 409 q 376 476 392 450 q 346 529 359 501 q 333 579 333 557 q 342 595 333 589 q 360 606 350 601 q 386 614 372 610 q 412 569 397 592 q 443 521 424 548 q 486 465 462 494 q 523 423 504 445 q 558 383 542 401 q 596 342 577 362 l 596 338 q 560 312 578 326 q 525 284 544 300 q 488 249 506 267 q 429 188 453 215 q 392 142 406 160 q 365 103 374 119 q 345 118 353 110 q 331 133 338 125 q 325 149 325 141 m 89 158 q 91 170 89 166 q 93 175 92 173 q 110 201 99 186 q 136 231 120 213 q 175 272 151 249 q 202 300 189 288 q 226 322 215 313 q 249 342 238 333 q 228 360 238 350 q 210 379 219 368 q 190 401 200 390 q 168 428 183 409 q 136 470 152 447 q 108 521 120 494 q 96 569 96 547 q 103 585 96 579 q 121 596 111 592 q 146 604 132 601 q 169 564 156 586 q 198 520 181 545 q 240 465 216 494 q 277 423 258 445 q 313 383 297 401 q 350 342 331 362 l 350 338 q 315 312 333 326 q 280 284 299 300 q 242 249 260 267 q 185 189 207 215 q 149 147 163 164 q 126 113 134 126 q 108 128 115 120 q 94 143 100 135 q 89 158 89 151 z "},"":{"ha":1306,"x_min":74,"x_max":1211,"o":"m 390 -25 l 332 11 l 863 850 l 921 814 l 390 -25 m 222 749 q 147 731 185 739 q 74 714 108 722 l 78 781 q 151 795 119 788 q 213 809 183 802 q 270 825 242 817 q 332 843 299 833 q 330 745 331 799 q 328 640 328 699 q 328 511 328 580 l 328 357 q 328 308 328 326 q 338 286 329 290 q 350 283 343 284 q 367 282 356 282 q 378 282 372 282 q 392 283 385 282 q 407 283 399 283 l 394 235 l 156 232 l 164 278 q 178 278 171 277 q 191 281 184 279 q 201 286 197 283 q 213 307 209 292 q 219 343 217 322 q 222 393 222 365 q 222 453 222 420 l 222 749 m 746 151 l 1065 603 l 1122 603 q 1122 508 1122 560 q 1121 404 1121 463 q 1121 276 1121 345 l 1121 200 q 1166 201 1143 200 q 1211 203 1189 203 l 1206 135 l 1122 133 q 1122 84 1122 108 q 1123 42 1122 60 q 1124 0 1123 19 l 1019 0 q 1020 39 1019 17 q 1020 81 1020 57 q 1021 132 1021 105 l 756 124 l 746 151 m 1028 456 q 937 324 983 390 q 846 192 891 259 l 1022 197 q 1023 209 1022 201 q 1023 227 1023 217 q 1023 246 1023 236 q 1024 263 1024 256 l 1028 456 z "},"":{"ha":1306,"x_min":60,"x_max":1204,"o":"m 376 -25 l 318 11 l 849 850 l 907 814 l 376 -25 m 208 749 q 133 731 172 739 q 60 714 94 722 l 64 781 q 137 795 105 788 q 199 809 169 802 q 256 825 228 817 q 318 843 285 833 q 316 745 317 799 q 314 640 315 699 q 314 511 314 580 l 314 357 q 315 308 314 326 q 324 286 315 290 q 336 283 329 284 q 353 282 342 282 q 365 282 358 282 q 378 283 372 282 q 393 283 385 283 l 381 235 l 142 232 l 150 278 q 165 278 157 277 q 177 281 170 279 q 188 286 183 283 q 199 307 195 292 q 206 343 203 322 q 208 393 208 365 q 208 453 208 420 l 208 749 m 1078 60 q 1107 68 1094 60 q 1127 90 1119 77 q 1142 118 1136 103 q 1153 147 1148 133 l 1204 133 l 1158 0 l 819 0 l 801 54 q 934 198 876 127 q 983 260 959 228 q 1025 325 1006 293 q 1055 388 1044 358 q 1067 443 1067 418 q 1060 480 1067 463 q 1042 509 1054 497 q 1012 529 1030 522 q 971 536 994 536 q 947 534 960 536 q 922 527 934 531 q 902 518 910 523 q 890 510 893 514 q 881 477 886 502 q 872 421 876 452 l 826 433 l 828 567 q 880 587 851 578 q 937 601 904 594 q 1008 607 970 607 q 1068 600 1039 607 q 1121 575 1098 592 q 1158 529 1144 558 q 1172 458 1172 501 q 1160 397 1172 430 q 1129 331 1149 365 q 1085 264 1110 297 q 1035 201 1061 231 q 899 58 975 129 l 1078 60 z "},"":{"ha":1306,"x_min":65,"x_max":1226,"o":"m 415 -25 l 357 11 l 888 850 l 946 814 l 415 -25 m 450 397 q 433 325 450 358 q 384 270 415 293 q 311 235 353 247 q 219 222 269 222 q 161 227 189 222 q 112 239 133 233 q 65 256 87 247 l 74 296 q 108 290 90 293 q 142 286 124 288 q 179 285 161 285 q 301 313 257 285 q 346 397 346 342 q 339 433 346 417 q 321 459 332 448 q 295 478 310 471 q 266 491 281 486 q 186 504 231 503 l 186 550 q 208 553 194 550 q 238 564 222 557 q 271 582 254 571 q 301 608 288 593 q 322 644 314 624 q 331 689 331 664 q 322 724 331 709 q 300 750 314 740 q 269 766 287 760 q 233 771 252 771 q 209 768 222 771 q 185 762 197 766 q 164 753 173 758 q 153 744 156 749 q 144 712 149 737 q 135 656 139 687 l 88 668 l 90 801 q 140 822 113 813 q 194 835 163 829 q 261 842 226 842 q 327 833 296 842 q 382 807 358 824 q 419 764 406 790 q 433 703 433 738 q 428 667 433 684 q 414 635 423 650 q 395 608 406 621 q 373 585 384 596 q 313 543 346 561 q 352 531 328 540 q 398 506 376 523 q 435 463 419 490 q 450 397 450 437 m 761 151 l 1081 603 l 1138 603 q 1137 508 1137 560 q 1136 404 1136 463 q 1136 276 1136 345 l 1136 200 q 1181 201 1158 200 q 1226 203 1204 203 l 1221 135 l 1138 133 q 1138 84 1138 108 q 1138 42 1138 60 q 1139 0 1138 19 l 1035 0 q 1035 39 1035 17 q 1036 81 1035 57 q 1036 132 1036 105 l 771 124 l 761 151 m 1043 456 q 952 324 998 390 q 861 192 906 259 l 1038 197 q 1038 209 1038 201 q 1038 227 1038 217 q 1039 246 1038 236 q 1039 263 1039 256 l 1043 456 z "},"":{"ha":521,"x_min":18,"x_max":454,"o":"m 18 -7 q 30 74 18 39 q 61 134 42 108 q 103 179 80 160 q 150 211 127 197 q 207 245 178 228 q 258 280 235 263 q 295 316 281 298 q 310 351 310 333 q 306 374 310 362 q 296 399 301 387 q 282 425 290 411 l 331 435 q 353 396 343 415 q 369 358 362 378 q 376 318 376 338 q 364 267 376 292 q 333 221 352 242 q 291 181 314 199 q 246 149 267 163 q 194 117 222 133 q 140 81 165 100 q 99 39 115 61 q 82 -10 82 16 q 93 -46 82 -31 q 124 -72 104 -62 q 169 -88 143 -83 q 224 -93 194 -93 q 282 -89 255 -93 q 331 -85 308 -85 q 373 -91 351 -85 q 411 -112 395 -98 q 440 -161 431 -133 q 454 -221 448 -190 l 451 -224 q 433 -212 443 -217 q 413 -205 425 -208 q 388 -201 401 -201 q 358 -203 371 -201 q 332 -208 345 -206 q 304 -212 319 -210 q 268 -214 289 -214 q 178 -200 223 -214 q 98 -161 133 -187 q 40 -96 63 -135 q 18 -7 18 -58 m 364 647 q 360 612 364 628 q 352 585 356 597 q 340 561 347 572 q 324 557 332 559 q 306 554 316 556 q 285 553 297 553 q 257 555 273 553 q 226 564 241 557 q 202 586 212 572 q 192 626 192 601 q 195 662 192 646 q 203 690 199 678 q 215 714 208 703 q 231 718 222 716 q 249 721 239 719 q 271 722 259 722 q 299 720 283 722 q 329 710 315 718 q 354 688 344 703 q 364 647 364 673 z "},"":{"ha":958,"x_min":21,"x_max":942,"o":"m 613 44 q 660 45 641 44 q 690 50 678 47 q 705 60 701 53 q 710 76 710 66 q 706 96 710 84 q 698 122 703 108 q 687 149 692 135 q 676 175 681 163 l 629 288 l 261 288 l 224 201 q 210 169 217 188 q 197 133 203 151 q 186 101 190 115 q 182 81 182 87 q 197 58 182 63 q 238 53 211 53 q 253 53 244 53 q 271 53 262 53 q 292 54 281 53 l 279 0 l 21 -4 l 31 44 q 58 48 47 44 q 76 59 69 52 q 89 75 83 66 q 99 96 94 85 l 468 957 l 483 957 l 856 92 q 864 73 860 80 q 873 61 868 65 q 886 55 878 56 q 908 53 894 53 q 920 53 915 53 q 931 53 926 53 q 942 54 937 53 l 929 0 l 603 -4 l 613 44 m 288 349 l 606 349 l 447 729 l 288 349 m 521 1010 l 478 1052 q 436 1094 460 1071 q 390 1139 413 1117 q 358 1170 376 1153 q 322 1203 339 1188 q 282 1239 303 1221 l 282 1244 q 310 1254 294 1250 q 342 1261 324 1258 q 381 1264 360 1264 q 406 1262 399 1264 q 419 1253 413 1260 q 444 1217 430 1242 q 474 1159 458 1192 q 506 1090 490 1127 q 536 1018 522 1053 l 521 1010 z "},"":{"ha":958,"x_min":21,"x_max":942,"o":"m 613 44 q 660 45 641 44 q 690 50 678 47 q 705 60 701 53 q 710 76 710 66 q 706 96 710 84 q 698 122 703 108 q 687 149 692 135 q 676 175 681 163 l 629 288 l 261 288 l 224 201 q 210 169 217 188 q 197 133 203 151 q 186 101 190 115 q 182 81 182 87 q 197 58 182 63 q 238 53 211 53 q 253 53 244 53 q 271 53 262 53 q 292 54 281 53 l 279 0 l 21 -4 l 31 44 q 58 48 47 44 q 76 59 69 52 q 89 75 83 66 q 99 96 94 85 l 468 957 l 483 957 l 856 92 q 864 73 860 80 q 873 61 868 65 q 886 55 878 56 q 908 53 894 53 q 920 53 915 53 q 931 53 926 53 q 942 54 937 53 l 929 0 l 603 -4 l 613 44 m 288 349 l 606 349 l 447 729 l 288 349 m 579 1224 q 571 1194 579 1210 q 549 1160 563 1178 q 519 1124 536 1142 q 484 1090 501 1106 q 389 1008 442 1050 l 374 1019 q 392 1053 383 1035 q 412 1091 401 1069 q 435 1138 423 1113 q 458 1192 447 1164 q 479 1251 469 1220 q 499 1258 489 1255 q 517 1262 507 1260 q 535 1264 526 1264 q 565 1255 551 1264 q 579 1224 579 1247 z "},"":{"ha":958,"x_min":21,"x_max":942,"o":"m 613 44 q 660 45 641 44 q 690 50 678 47 q 705 60 701 53 q 710 76 710 66 q 706 96 710 84 q 698 122 703 108 q 687 149 692 135 q 676 175 681 163 l 629 288 l 261 288 l 224 201 q 210 169 217 188 q 197 133 203 151 q 186 101 190 115 q 182 81 182 87 q 197 58 182 63 q 238 53 211 53 q 253 53 244 53 q 271 53 262 53 q 292 54 281 53 l 279 0 l 21 -4 l 31 44 q 58 48 47 44 q 76 59 69 52 q 89 75 83 66 q 99 96 94 85 l 468 957 l 483 957 l 856 92 q 864 73 860 80 q 873 61 868 65 q 886 55 878 56 q 908 53 894 53 q 920 53 915 53 q 931 53 926 53 q 942 54 937 53 l 929 0 l 603 -4 l 613 44 m 288 349 l 606 349 l 447 729 l 288 349 m 476 1157 q 438 1111 458 1131 q 396 1074 418 1090 q 352 1045 374 1058 q 308 1024 330 1033 l 296 1036 q 317 1066 305 1049 q 341 1100 327 1080 q 371 1144 355 1120 q 395 1186 384 1165 q 416 1222 407 1206 q 435 1258 426 1241 q 449 1265 441 1262 q 463 1269 455 1267 q 479 1271 471 1271 q 496 1269 488 1271 q 510 1265 504 1267 q 524 1258 518 1262 q 542 1222 532 1241 q 563 1186 551 1206 q 588 1144 574 1165 q 617 1100 603 1120 q 640 1066 630 1080 q 663 1036 652 1049 l 650 1024 q 605 1045 628 1033 q 559 1074 581 1058 q 515 1111 536 1090 q 476 1157 494 1131 z "},"":{"ha":958,"x_min":21,"x_max":942,"o":"m 613 44 q 660 45 641 44 q 690 50 678 47 q 705 60 701 53 q 710 76 710 66 q 706 96 710 84 q 698 122 703 108 q 687 149 692 135 q 676 175 681 163 l 629 288 l 261 288 l 224 201 q 210 169 217 188 q 197 133 203 151 q 186 101 190 115 q 182 81 182 87 q 197 58 182 63 q 238 53 211 53 q 253 53 244 53 q 271 53 262 53 q 292 54 281 53 l 279 0 l 21 -4 l 31 44 q 58 48 47 44 q 76 59 69 52 q 89 75 83 66 q 99 96 94 85 l 468 957 l 483 957 l 856 92 q 864 73 860 80 q 873 61 868 65 q 886 55 878 56 q 908 53 894 53 q 920 53 915 53 q 931 53 926 53 q 942 54 937 53 l 929 0 l 603 -4 l 613 44 m 288 349 l 606 349 l 447 729 l 288 349 m 567 1125 q 615 1134 593 1125 q 652 1153 636 1142 q 686 1181 670 1165 q 692 1172 690 1176 q 697 1163 694 1168 q 699 1151 699 1158 q 697 1141 699 1146 q 694 1132 696 1135 q 690 1124 692 1127 q 653 1073 674 1095 q 611 1038 635 1053 q 558 1022 588 1022 q 515 1032 536 1022 q 474 1055 494 1042 q 434 1077 454 1067 q 392 1088 413 1088 q 343 1079 365 1088 q 306 1060 322 1070 q 272 1032 287 1047 q 266 1040 269 1036 q 261 1049 263 1044 q 260 1060 260 1054 q 261 1070 260 1065 q 264 1080 263 1076 q 268 1089 266 1085 q 305 1140 284 1117 q 347 1174 322 1158 q 400 1190 371 1190 q 443 1180 422 1190 q 484 1158 464 1170 q 524 1135 504 1145 q 567 1125 544 1125 z "},"":{"ha":958,"x_min":21,"x_max":942,"o":"m 613 44 q 660 45 641 44 q 690 50 678 47 q 705 60 701 53 q 710 76 710 66 q 706 96 710 84 q 698 122 703 108 q 687 149 692 135 q 676 175 681 163 l 629 288 l 261 288 l 224 201 q 210 169 217 188 q 197 133 203 151 q 186 101 190 115 q 182 81 182 87 q 197 58 182 63 q 238 53 211 53 q 253 53 244 53 q 271 53 262 53 q 292 54 281 53 l 279 0 l 21 -4 l 31 44 q 58 48 47 44 q 76 59 69 52 q 89 75 83 66 q 99 96 94 85 l 468 957 l 483 957 l 856 92 q 864 73 860 80 q 873 61 868 65 q 886 55 878 56 q 908 53 894 53 q 920 53 915 53 q 931 53 926 53 q 942 54 937 53 l 929 0 l 603 -4 l 613 44 m 288 349 l 606 349 l 447 729 l 288 349 m 235 1082 q 239 1124 235 1106 q 249 1156 243 1143 q 263 1183 255 1172 q 272 1185 267 1184 q 282 1187 276 1186 q 293 1188 288 1188 q 328 1186 310 1188 q 363 1178 347 1184 q 390 1160 379 1172 q 400 1129 400 1149 q 396 1087 400 1106 q 386 1054 392 1068 q 372 1026 380 1038 q 363 1025 367 1026 q 352 1024 358 1024 q 340 1024 347 1024 q 305 1025 324 1024 q 270 1033 286 1027 q 245 1050 255 1039 q 235 1082 235 1062 m 558 1082 q 563 1124 558 1106 q 572 1156 567 1143 q 586 1183 578 1172 q 596 1185 590 1184 q 606 1187 600 1186 q 618 1188 612 1188 q 653 1186 635 1188 q 687 1178 672 1184 q 713 1160 703 1172 q 724 1129 724 1149 q 719 1087 724 1106 q 710 1054 715 1068 q 696 1026 703 1038 q 686 1025 691 1026 q 676 1024 682 1024 q 665 1024 671 1024 q 630 1025 649 1024 q 595 1033 611 1027 q 569 1050 579 1039 q 558 1082 558 1062 z "},"":{"ha":958,"x_min":21,"x_max":942,"o":"m 613 44 q 660 45 641 44 q 690 50 678 47 q 705 60 701 53 q 710 76 710 66 q 706 96 710 84 q 698 122 703 108 q 687 149 692 135 q 676 175 681 163 l 629 288 l 261 288 l 224 201 q 210 169 217 188 q 197 133 203 151 q 186 101 190 115 q 182 81 182 87 q 197 58 182 63 q 238 53 211 53 q 253 53 244 53 q 271 53 262 53 q 292 54 281 53 l 279 0 l 21 -4 l 31 44 q 58 48 47 44 q 76 59 69 52 q 89 75 83 66 q 99 96 94 85 l 468 957 l 483 957 l 856 92 q 864 73 860 80 q 873 61 868 65 q 886 55 878 56 q 908 53 894 53 q 920 53 915 53 q 931 53 926 53 q 942 54 937 53 l 929 0 l 603 -4 l 613 44 m 288 349 l 606 349 l 447 729 l 288 349 m 619 1150 q 608 1095 619 1121 q 578 1051 597 1069 q 534 1021 560 1032 q 479 1010 508 1010 q 424 1021 450 1010 q 380 1051 399 1032 q 350 1095 361 1069 q 339 1150 339 1121 q 350 1205 339 1179 q 380 1249 361 1231 q 424 1279 399 1268 q 479 1290 450 1290 q 534 1279 508 1290 q 578 1249 560 1268 q 608 1205 597 1231 q 619 1150 619 1179 m 572 1150 q 565 1189 572 1170 q 545 1220 558 1207 q 516 1242 533 1234 q 479 1250 499 1250 q 443 1242 460 1250 q 413 1220 426 1234 q 393 1189 401 1207 q 386 1150 386 1170 q 393 1111 386 1130 q 413 1080 401 1093 q 443 1058 426 1066 q 479 1050 460 1050 q 516 1058 499 1050 q 545 1080 533 1066 q 565 1111 558 1093 q 572 1150 572 1130 z "},"":{"ha":1201,"x_min":-14,"x_max":1171,"o":"m 503 772 l 281 349 l 607 349 l 503 772 m 478 872 q 475 881 476 878 q 468 886 473 885 q 454 889 463 888 q 431 889 445 889 q 422 889 426 889 q 413 888 417 888 q 403 888 408 888 l 415 942 l 786 944 q 880 945 839 944 q 951 948 920 947 q 1005 950 983 949 q 1042 953 1026 951 q 1088 960 1077 956 l 1089 957 l 1085 760 l 1031 761 q 1025 809 1027 788 q 1018 844 1024 830 q 1001 867 1013 859 q 967 875 989 874 l 601 879 l 694 526 l 828 528 q 914 531 882 529 q 953 544 947 532 q 957 559 956 550 q 960 578 958 569 q 961 600 960 588 l 1018 599 l 1014 374 l 958 376 q 958 395 958 385 q 958 417 958 406 q 956 435 957 427 q 953 447 955 444 q 946 454 951 451 q 931 459 942 457 q 901 463 920 462 q 851 465 882 465 l 710 467 l 786 175 q 802 117 795 138 q 819 86 809 97 q 847 73 830 76 q 893 71 863 70 l 1007 72 q 1050 84 1033 72 q 1081 114 1068 96 q 1101 153 1093 132 q 1115 194 1109 175 l 1171 181 l 1113 3 l 1110 0 l 557 -4 l 567 44 q 614 45 595 44 q 644 50 633 47 q 659 60 655 53 q 664 76 664 66 q 659 120 664 92 q 649 175 655 149 l 621 288 l 247 288 l 201 201 q 184 169 194 188 q 167 133 175 151 q 153 101 158 115 q 147 81 147 87 q 162 58 147 63 q 203 53 176 53 q 218 53 209 53 q 236 53 227 53 q 257 54 246 53 l 244 0 l -14 -4 l -4 44 q 22 48 12 44 q 40 59 33 52 q 53 75 47 66 q 64 96 58 85 l 478 872 z "},"":{"ha":847,"x_min":74,"x_max":786,"o":"m 478 -264 q 529 -258 509 -264 q 561 -244 549 -253 q 577 -224 573 -235 q 582 -201 582 -213 q 568 -166 582 -181 q 536 -143 555 -152 q 495 -131 517 -135 q 458 -126 474 -127 l 486 -14 q 318 30 394 -6 q 188 126 242 65 q 103 272 133 187 q 74 464 74 357 q 90 593 74 531 q 135 711 106 656 q 208 813 165 767 q 303 891 250 858 q 419 943 356 924 q 553 961 482 961 q 603 958 580 961 q 645 952 626 956 q 682 947 665 949 q 715 944 699 944 q 740 946 729 944 q 759 949 751 947 q 775 954 768 951 l 778 950 l 772 750 l 718 753 q 710 805 717 785 q 688 843 703 825 q 628 881 663 872 q 540 890 593 890 q 396 859 458 890 q 293 774 334 828 q 233 647 253 720 q 213 490 213 574 q 222 389 213 441 q 249 290 231 338 q 294 199 267 242 q 360 125 322 157 q 444 75 397 94 q 549 57 491 57 q 602 63 578 57 q 645 80 626 69 q 678 102 664 90 q 702 129 692 115 q 736 201 726 161 l 786 189 l 767 35 q 704 9 739 20 q 634 -9 674 -1 q 543 -17 593 -17 l 524 -87 q 548 -90 532 -88 q 582 -97 563 -92 q 619 -109 600 -101 q 655 -129 639 -117 q 680 -159 670 -142 q 690 -201 690 -177 q 676 -252 690 -232 q 640 -284 663 -272 q 588 -301 617 -296 q 531 -306 560 -306 q 478 -303 501 -306 q 440 -297 456 -301 q 407 -289 421 -294 l 413 -261 q 431 -262 420 -262 q 451 -264 439 -263 q 478 -264 463 -264 z "},"":{"ha":792,"x_min":74,"x_max":739,"o":"m 304 879 l 303 526 l 429 528 q 516 531 483 529 q 554 544 548 532 q 559 559 558 550 q 561 578 560 569 q 563 600 562 588 l 619 599 l 615 374 l 560 376 q 560 395 560 385 q 559 417 560 406 q 557 435 558 427 q 554 447 556 444 q 548 454 552 451 q 532 459 543 457 q 502 463 522 462 q 453 465 483 465 l 303 467 l 303 175 q 305 116 303 138 q 318 85 308 95 q 350 72 328 74 q 410 71 372 70 l 575 72 q 618 84 601 72 q 649 114 636 96 q 669 153 661 132 q 683 194 677 175 l 739 181 l 681 3 l 678 0 l 93 -4 l 103 44 q 118 47 110 44 q 132 51 124 48 q 146 60 140 54 q 163 93 157 69 q 172 150 169 116 q 175 227 174 184 q 175 321 175 271 l 175 778 q 173 850 175 824 q 156 883 170 877 q 139 888 148 887 q 114 889 130 889 q 100 889 108 889 q 88 888 93 888 q 74 888 80 888 l 86 942 l 385 944 q 478 946 438 945 q 550 948 519 947 q 603 950 581 949 q 640 953 625 951 q 686 960 676 956 l 688 957 l 683 760 l 629 761 q 624 808 626 788 q 616 844 622 829 q 598 866 610 858 q 565 875 587 874 l 304 879 m 514 1010 l 472 1052 q 430 1094 453 1071 q 383 1139 406 1117 q 351 1170 369 1153 q 315 1203 332 1188 q 275 1239 296 1221 l 275 1244 q 303 1254 288 1250 q 335 1261 317 1258 q 374 1264 353 1264 q 399 1262 392 1264 q 413 1253 406 1260 q 437 1217 423 1242 q 467 1159 451 1192 q 499 1090 483 1127 q 529 1018 515 1053 l 514 1010 z "},"":{"ha":792,"x_min":74,"x_max":739,"o":"m 304 879 l 303 526 l 429 528 q 516 531 483 529 q 554 544 548 532 q 559 559 558 550 q 561 578 560 569 q 563 600 562 588 l 619 599 l 615 374 l 560 376 q 560 395 560 385 q 559 417 560 406 q 557 435 558 427 q 554 447 556 444 q 548 454 552 451 q 532 459 543 457 q 502 463 522 462 q 453 465 483 465 l 303 467 l 303 175 q 305 116 303 138 q 318 85 308 95 q 350 72 328 74 q 410 71 372 70 l 575 72 q 618 84 601 72 q 649 114 636 96 q 669 153 661 132 q 683 194 677 175 l 739 181 l 681 3 l 678 0 l 93 -4 l 103 44 q 118 47 110 44 q 132 51 124 48 q 146 60 140 54 q 163 93 157 69 q 172 150 169 116 q 175 227 174 184 q 175 321 175 271 l 175 778 q 173 850 175 824 q 156 883 170 877 q 139 888 148 887 q 114 889 130 889 q 100 889 108 889 q 88 888 93 888 q 74 888 80 888 l 86 942 l 385 944 q 478 946 438 945 q 550 948 519 947 q 603 950 581 949 q 640 953 625 951 q 686 960 676 956 l 688 957 l 683 760 l 629 761 q 624 808 626 788 q 616 844 622 829 q 598 866 610 858 q 565 875 587 874 l 304 879 m 525 1224 q 517 1194 525 1210 q 495 1160 508 1178 q 465 1124 482 1142 q 430 1090 447 1106 q 335 1008 388 1050 l 319 1019 q 338 1053 328 1035 q 358 1091 347 1069 q 381 1138 369 1113 q 404 1192 393 1164 q 425 1251 415 1220 q 444 1258 435 1255 q 463 1262 453 1260 q 481 1264 472 1264 q 511 1255 497 1264 q 525 1224 525 1247 z "},"":{"ha":792,"x_min":74,"x_max":739,"o":"m 304 879 l 303 526 l 429 528 q 516 531 483 529 q 554 544 548 532 q 559 559 558 550 q 561 578 560 569 q 563 600 562 588 l 619 599 l 615 374 l 560 376 q 560 395 560 385 q 559 417 560 406 q 557 435 558 427 q 554 447 556 444 q 548 454 552 451 q 532 459 543 457 q 502 463 522 462 q 453 465 483 465 l 303 467 l 303 175 q 305 116 303 138 q 318 85 308 95 q 350 72 328 74 q 410 71 372 70 l 575 72 q 618 84 601 72 q 649 114 636 96 q 669 153 661 132 q 683 194 677 175 l 739 181 l 681 3 l 678 0 l 93 -4 l 103 44 q 118 47 110 44 q 132 51 124 48 q 146 60 140 54 q 163 93 157 69 q 172 150 169 116 q 175 227 174 184 q 175 321 175 271 l 175 778 q 173 850 175 824 q 156 883 170 877 q 139 888 148 887 q 114 889 130 889 q 100 889 108 889 q 88 888 93 888 q 74 888 80 888 l 86 942 l 385 944 q 478 946 438 945 q 550 948 519 947 q 603 950 581 949 q 640 953 625 951 q 686 960 676 956 l 688 957 l 683 760 l 629 761 q 624 808 626 788 q 616 844 622 829 q 598 866 610 858 q 565 875 587 874 l 304 879 m 407 1157 q 369 1111 389 1131 q 327 1074 349 1090 q 283 1045 305 1058 q 239 1024 260 1033 l 226 1036 q 248 1066 235 1049 q 272 1100 258 1080 q 301 1144 285 1120 q 326 1186 315 1165 q 347 1222 338 1206 q 365 1258 357 1241 q 379 1265 372 1262 q 393 1269 385 1267 q 410 1271 401 1271 q 427 1269 419 1271 q 441 1265 435 1267 q 454 1258 449 1262 q 473 1222 463 1241 q 493 1186 482 1206 q 518 1144 505 1165 q 547 1100 534 1120 q 571 1066 560 1080 q 593 1036 583 1049 l 581 1024 q 535 1045 558 1033 q 489 1074 512 1058 q 445 1111 467 1090 q 407 1157 424 1131 z "},"":{"ha":792,"x_min":74,"x_max":739,"o":"m 304 879 l 303 526 l 429 528 q 516 531 483 529 q 554 544 548 532 q 559 559 558 550 q 561 578 560 569 q 563 600 562 588 l 619 599 l 615 374 l 560 376 q 560 395 560 385 q 559 417 560 406 q 557 435 558 427 q 554 447 556 444 q 548 454 552 451 q 532 459 543 457 q 502 463 522 462 q 453 465 483 465 l 303 467 l 303 175 q 305 116 303 138 q 318 85 308 95 q 350 72 328 74 q 410 71 372 70 l 575 72 q 618 84 601 72 q 649 114 636 96 q 669 153 661 132 q 683 194 677 175 l 739 181 l 681 3 l 678 0 l 93 -4 l 103 44 q 118 47 110 44 q 132 51 124 48 q 146 60 140 54 q 163 93 157 69 q 172 150 169 116 q 175 227 174 184 q 175 321 175 271 l 175 778 q 173 850 175 824 q 156 883 170 877 q 139 888 148 887 q 114 889 130 889 q 100 889 108 889 q 88 888 93 888 q 74 888 80 888 l 86 942 l 385 944 q 478 946 438 945 q 550 948 519 947 q 603 950 581 949 q 640 953 625 951 q 686 960 676 956 l 688 957 l 683 760 l 629 761 q 624 808 626 788 q 616 844 622 829 q 598 866 610 858 q 565 875 587 874 l 304 879 m 165 1082 q 169 1124 165 1106 q 179 1156 174 1143 q 193 1183 185 1172 q 203 1185 198 1184 q 213 1187 207 1186 q 224 1188 218 1188 q 259 1186 240 1188 q 294 1178 278 1184 q 320 1160 310 1172 q 331 1129 331 1149 q 326 1087 331 1106 q 317 1054 322 1068 q 303 1026 310 1038 q 293 1025 298 1026 q 283 1024 288 1024 q 271 1024 277 1024 q 235 1025 254 1024 q 201 1033 217 1027 q 175 1050 185 1039 q 165 1082 165 1062 m 489 1082 q 493 1124 489 1106 q 503 1156 497 1143 q 517 1183 509 1172 q 526 1185 521 1184 q 536 1187 531 1186 q 549 1188 542 1188 q 584 1186 565 1188 q 618 1178 602 1184 q 644 1160 633 1172 q 654 1129 654 1149 q 650 1087 654 1106 q 640 1054 646 1068 q 626 1026 634 1038 q 617 1025 622 1026 q 607 1024 613 1024 q 596 1024 601 1024 q 560 1025 579 1024 q 526 1033 542 1027 q 499 1050 510 1039 q 489 1082 489 1062 z "},"":{"ha":486,"x_min":76,"x_max":415,"o":"m 310 164 q 312 91 310 118 q 329 58 315 65 q 346 54 337 55 q 371 53 355 53 q 385 53 377 53 q 399 53 392 53 q 415 54 407 53 l 403 0 l 96 -4 l 106 44 q 120 47 113 44 q 134 51 126 48 q 147 60 141 54 q 165 93 158 69 q 173 150 171 116 q 176 227 176 184 q 176 321 176 271 l 176 778 q 174 850 176 824 q 157 883 172 877 q 140 888 149 887 q 115 889 131 889 q 102 889 109 889 q 90 888 95 888 q 76 888 83 888 l 89 942 l 390 946 l 381 897 q 366 895 374 897 q 352 891 360 894 q 339 882 345 888 q 321 849 327 872 q 313 792 315 826 q 310 714 310 758 q 310 621 310 671 l 310 164 m 353 1010 l 310 1052 q 268 1094 292 1071 q 222 1139 245 1117 q 190 1170 208 1153 q 154 1203 171 1188 q 114 1239 135 1221 l 114 1244 q 142 1254 126 1250 q 174 1261 156 1258 q 213 1264 192 1264 q 238 1262 231 1264 q 251 1253 245 1260 q 276 1217 262 1242 q 306 1159 290 1192 q 338 1090 322 1127 q 368 1018 354 1053 l 353 1010 z "},"":{"ha":486,"x_min":76,"x_max":415,"o":"m 310 164 q 312 91 310 118 q 329 58 315 65 q 346 54 337 55 q 371 53 355 53 q 385 53 377 53 q 399 53 392 53 q 415 54 407 53 l 403 0 l 96 -4 l 106 44 q 120 47 113 44 q 134 51 126 48 q 147 60 141 54 q 165 93 158 69 q 173 150 171 116 q 176 227 176 184 q 176 321 176 271 l 176 778 q 174 850 176 824 q 157 883 172 877 q 140 888 149 887 q 115 889 131 889 q 102 889 109 889 q 90 888 95 888 q 76 888 83 888 l 89 942 l 390 946 l 381 897 q 366 895 374 897 q 352 891 360 894 q 339 882 345 888 q 321 849 327 872 q 313 792 315 826 q 310 714 310 758 q 310 621 310 671 l 310 164 m 342 1224 q 333 1194 342 1210 q 312 1160 325 1178 q 281 1124 299 1142 q 247 1090 264 1106 q 151 1008 204 1050 l 136 1019 q 155 1053 145 1035 q 174 1091 163 1069 q 197 1138 185 1113 q 220 1192 210 1164 q 242 1251 231 1220 q 261 1258 251 1255 q 279 1262 269 1260 q 297 1264 289 1264 q 327 1255 313 1264 q 342 1224 342 1247 z "},"":{"ha":486,"x_min":57,"x_max":424,"o":"m 310 164 q 312 91 310 118 q 329 58 315 65 q 346 54 337 55 q 371 53 355 53 q 385 53 377 53 q 399 53 392 53 q 415 54 407 53 l 403 0 l 96 -4 l 106 44 q 120 47 113 44 q 134 51 126 48 q 147 60 141 54 q 165 93 158 69 q 173 150 171 116 q 176 227 176 184 q 176 321 176 271 l 176 778 q 174 850 176 824 q 157 883 172 877 q 140 888 149 887 q 115 889 131 889 q 102 889 109 889 q 90 888 95 888 q 76 888 83 888 l 89 942 l 390 946 l 381 897 q 366 895 374 897 q 352 891 360 894 q 339 882 345 888 q 321 849 327 872 q 313 792 315 826 q 310 714 310 758 q 310 621 310 671 l 310 164 m 238 1157 q 199 1111 219 1131 q 157 1074 179 1090 q 113 1045 135 1058 q 69 1024 91 1033 l 57 1036 q 78 1066 66 1049 q 102 1100 88 1080 q 132 1144 116 1120 q 157 1186 145 1165 q 177 1222 168 1206 q 196 1258 188 1241 q 210 1265 202 1262 q 224 1269 216 1267 q 240 1271 232 1271 q 257 1269 249 1271 q 272 1265 265 1267 q 285 1258 279 1262 q 303 1222 293 1241 q 324 1186 313 1206 q 349 1144 335 1165 q 378 1100 365 1120 q 401 1066 391 1080 q 424 1036 413 1049 l 411 1024 q 366 1045 389 1033 q 320 1074 342 1058 q 276 1111 297 1090 q 238 1157 255 1131 z "},"":{"ha":486,"x_min":-4,"x_max":485,"o":"m 310 164 q 312 91 310 118 q 329 58 315 65 q 346 54 337 55 q 371 53 355 53 q 385 53 377 53 q 399 53 392 53 q 415 54 407 53 l 403 0 l 96 -4 l 106 44 q 120 47 113 44 q 134 51 126 48 q 147 60 141 54 q 165 93 158 69 q 173 150 171 116 q 176 227 176 184 q 176 321 176 271 l 176 778 q 174 850 176 824 q 157 883 172 877 q 140 888 149 887 q 115 889 131 889 q 102 889 109 889 q 90 888 95 888 q 76 888 83 888 l 89 942 l 390 946 l 381 897 q 366 895 374 897 q 352 891 360 894 q 339 882 345 888 q 321 849 327 872 q 313 792 315 826 q 310 714 310 758 q 310 621 310 671 l 310 164 m -4 1082 q 0 1124 -4 1106 q 10 1156 4 1143 q 24 1183 16 1172 q 33 1185 28 1184 q 43 1187 38 1186 q 54 1188 49 1188 q 90 1186 71 1188 q 124 1178 108 1184 q 151 1160 140 1172 q 161 1129 161 1149 q 157 1087 161 1106 q 147 1054 153 1068 q 133 1026 141 1038 q 124 1025 128 1026 q 113 1024 119 1024 q 101 1024 108 1024 q 66 1025 85 1024 q 32 1033 47 1027 q 6 1050 16 1039 q -4 1082 -4 1062 m 319 1082 q 324 1124 319 1106 q 333 1156 328 1143 q 347 1183 340 1172 q 357 1185 351 1184 q 367 1187 361 1186 q 379 1188 373 1188 q 414 1186 396 1188 q 448 1178 433 1184 q 474 1160 464 1172 q 485 1129 485 1149 q 481 1087 485 1106 q 471 1054 476 1068 q 457 1026 465 1038 q 447 1025 452 1026 q 438 1024 443 1024 q 426 1024 432 1024 q 391 1025 410 1024 q 356 1033 372 1027 q 330 1050 340 1039 q 319 1082 319 1062 z "},"":{"ha":1056,"x_min":47,"x_max":982,"o":"m 306 165 q 310 108 306 129 q 329 77 315 88 q 366 63 342 66 q 426 60 390 60 q 613 88 535 60 q 743 166 692 115 q 818 290 794 217 q 843 454 843 363 q 836 549 843 499 q 814 645 830 598 q 770 736 797 693 q 701 811 742 778 q 603 864 660 844 q 471 885 546 883 l 308 888 q 307 812 308 853 q 306 731 306 776 q 306 633 306 685 l 306 529 l 429 531 q 487 532 456 531 q 544 533 517 532 q 604 533 574 533 l 601 458 q 558 460 581 459 q 511 461 538 460 q 453 463 484 462 l 306 464 l 306 165 m 103 44 q 118 47 110 44 q 132 51 124 48 q 146 60 140 54 q 163 93 157 69 q 172 150 169 116 q 175 227 174 184 q 175 321 175 271 l 175 463 l 125 463 q 95 462 109 463 q 70 461 81 462 q 47 460 58 460 l 51 533 q 69 532 60 533 q 85 531 76 531 q 101 531 94 531 l 175 529 l 175 778 q 173 850 175 824 q 156 883 170 877 q 139 888 148 887 q 114 889 130 889 q 100 889 108 889 q 88 888 93 888 q 74 888 80 888 l 86 942 q 201 947 140 944 q 317 950 252 948 q 449 951 381 951 q 686 919 586 951 q 852 825 787 886 q 950 677 918 764 q 982 482 982 590 q 950 292 982 381 q 850 136 918 203 q 677 30 783 69 q 424 -10 571 -10 q 369 -9 397 -10 q 314 -9 342 -9 q 258 -8 285 -8 q 206 -7 231 -8 q 93 -4 149 -6 l 103 44 z "},"":{"ha":1028,"x_min":67,"x_max":953,"o":"m 793 778 q 791 850 793 824 q 774 883 788 877 q 757 888 766 887 q 732 889 748 889 q 717 889 726 889 q 701 888 709 888 q 683 888 692 888 l 696 942 l 953 946 l 943 897 q 928 895 935 897 q 914 891 921 894 q 900 882 906 888 q 883 849 888 872 q 875 792 877 826 q 872 714 872 758 q 871 621 872 671 l 867 133 q 867 69 866 97 q 870 22 869 42 q 875 -17 872 -1 l 846 -17 l 244 757 l 253 164 q 256 91 253 118 q 272 58 258 65 q 289 54 280 55 q 314 53 298 53 q 329 53 320 53 q 347 53 338 53 q 368 54 357 53 l 356 0 l 92 -4 l 101 44 q 117 47 109 44 q 131 51 123 48 q 144 60 138 54 q 161 93 156 69 q 170 150 167 116 q 173 227 172 184 q 174 321 173 271 l 178 839 q 160 861 168 852 q 144 877 153 871 q 127 886 136 883 q 104 889 117 889 q 91 889 98 889 q 79 888 85 888 q 67 888 72 888 l 79 942 l 265 946 l 799 251 l 793 778 m 610 1125 q 658 1134 636 1125 q 695 1153 679 1142 q 729 1181 713 1165 q 735 1172 733 1176 q 740 1163 738 1168 q 742 1151 742 1158 q 740 1141 742 1146 q 738 1132 739 1135 q 733 1124 735 1127 q 697 1073 717 1095 q 655 1038 678 1053 q 601 1022 631 1022 q 558 1032 579 1022 q 517 1055 538 1042 q 477 1077 497 1067 q 435 1088 456 1088 q 386 1079 408 1088 q 349 1060 365 1070 q 315 1032 330 1047 q 309 1040 312 1036 q 305 1049 306 1044 q 303 1060 303 1054 q 304 1070 303 1065 q 307 1080 306 1076 q 311 1089 309 1085 q 348 1140 327 1117 q 390 1174 365 1158 q 443 1190 414 1190 q 486 1180 465 1190 q 527 1158 507 1170 q 567 1135 547 1145 q 610 1125 588 1125 z "},"":{"ha":1069,"x_min":72,"x_max":996,"o":"m 996 482 q 961 291 996 381 q 865 132 927 201 q 717 24 803 64 q 528 -17 631 -17 q 342 16 426 -17 q 198 110 258 49 q 105 261 138 172 q 72 464 72 351 q 88 593 72 531 q 132 711 103 656 q 202 813 160 767 q 295 891 243 858 q 410 943 348 924 q 543 961 472 961 q 728 928 644 961 q 871 834 812 896 q 963 683 931 772 q 996 482 996 594 m 854 454 q 848 553 854 502 q 826 652 841 604 q 786 743 810 700 q 725 817 761 785 q 641 867 689 849 q 531 886 592 886 q 386 856 446 886 q 288 772 326 825 q 232 647 249 719 q 214 490 214 574 q 221 391 214 442 q 244 292 228 340 q 285 201 260 244 q 347 126 310 158 q 432 76 383 94 q 543 57 481 57 q 685 88 626 57 q 782 172 744 118 q 837 298 819 225 q 854 454 854 370 m 604 1010 l 562 1052 q 520 1094 543 1071 q 474 1139 497 1117 q 441 1170 460 1153 q 406 1203 422 1188 q 365 1239 386 1221 l 365 1244 q 394 1254 378 1250 q 425 1261 407 1258 q 464 1264 443 1264 q 489 1262 482 1264 q 503 1253 497 1260 q 527 1217 513 1242 q 557 1159 542 1192 q 589 1090 573 1127 q 619 1018 606 1053 l 604 1010 z "},"":{"ha":1069,"x_min":72,"x_max":996,"o":"m 996 482 q 961 291 996 381 q 865 132 927 201 q 717 24 803 64 q 528 -17 631 -17 q 342 16 426 -17 q 198 110 258 49 q 105 261 138 172 q 72 464 72 351 q 88 593 72 531 q 132 711 103 656 q 202 813 160 767 q 295 891 243 858 q 410 943 348 924 q 543 961 472 961 q 728 928 644 961 q 871 834 812 896 q 963 683 931 772 q 996 482 996 594 m 854 454 q 848 553 854 502 q 826 652 841 604 q 786 743 810 700 q 725 817 761 785 q 641 867 689 849 q 531 886 592 886 q 386 856 446 886 q 288 772 326 825 q 232 647 249 719 q 214 490 214 574 q 221 391 214 442 q 244 292 228 340 q 285 201 260 244 q 347 126 310 158 q 432 76 383 94 q 543 57 481 57 q 685 88 626 57 q 782 172 744 118 q 837 298 819 225 q 854 454 854 370 m 635 1224 q 626 1194 635 1210 q 605 1160 618 1178 q 574 1124 592 1142 q 540 1090 557 1106 q 444 1008 497 1050 l 429 1019 q 448 1053 438 1035 q 467 1091 456 1069 q 490 1138 478 1113 q 514 1192 503 1164 q 535 1251 524 1220 q 554 1258 544 1255 q 572 1262 563 1260 q 590 1264 582 1264 q 620 1255 606 1264 q 635 1224 635 1247 z "},"":{"ha":1069,"x_min":72,"x_max":996,"o":"m 996 482 q 961 291 996 381 q 865 132 927 201 q 717 24 803 64 q 528 -17 631 -17 q 342 16 426 -17 q 198 110 258 49 q 105 261 138 172 q 72 464 72 351 q 88 593 72 531 q 132 711 103 656 q 202 813 160 767 q 295 891 243 858 q 410 943 348 924 q 543 961 472 961 q 728 928 644 961 q 871 834 812 896 q 963 683 931 772 q 996 482 996 594 m 854 454 q 848 553 854 502 q 826 652 841 604 q 786 743 810 700 q 725 817 761 785 q 641 867 689 849 q 531 886 592 886 q 386 856 446 886 q 288 772 326 825 q 232 647 249 719 q 214 490 214 574 q 221 391 214 442 q 244 292 228 340 q 285 201 260 244 q 347 126 310 158 q 432 76 383 94 q 543 57 481 57 q 685 88 626 57 q 782 172 744 118 q 837 298 819 225 q 854 454 854 370 m 532 1157 q 494 1111 514 1131 q 452 1074 474 1090 q 408 1045 430 1058 q 364 1024 385 1033 l 351 1036 q 373 1066 360 1049 q 397 1100 383 1080 q 426 1144 410 1120 q 451 1186 440 1165 q 472 1222 463 1206 q 490 1258 482 1241 q 504 1265 497 1262 q 518 1269 510 1267 q 535 1271 526 1271 q 552 1269 544 1271 q 566 1265 560 1267 q 579 1258 574 1262 q 598 1222 588 1241 q 618 1186 607 1206 q 643 1144 630 1165 q 672 1100 659 1120 q 696 1066 685 1080 q 718 1036 708 1049 l 706 1024 q 660 1045 683 1033 q 614 1074 637 1058 q 570 1111 592 1090 q 532 1157 549 1131 z "},"":{"ha":1069,"x_min":72,"x_max":996,"o":"m 996 482 q 961 291 996 381 q 865 132 927 201 q 717 24 803 64 q 528 -17 631 -17 q 342 16 426 -17 q 198 110 258 49 q 105 261 138 172 q 72 464 72 351 q 88 593 72 531 q 132 711 103 656 q 202 813 160 767 q 295 891 243 858 q 410 943 348 924 q 543 961 472 961 q 728 928 644 961 q 871 834 812 896 q 963 683 931 772 q 996 482 996 594 m 854 454 q 848 553 854 502 q 826 652 841 604 q 786 743 810 700 q 725 817 761 785 q 641 867 689 849 q 531 886 592 886 q 386 856 446 886 q 288 772 326 825 q 232 647 249 719 q 214 490 214 574 q 221 391 214 442 q 244 292 228 340 q 285 201 260 244 q 347 126 310 158 q 432 76 383 94 q 543 57 481 57 q 685 88 626 57 q 782 172 744 118 q 837 298 819 225 q 854 454 854 370 m 622 1125 q 670 1134 649 1125 q 708 1153 692 1142 q 742 1181 726 1165 q 748 1172 745 1176 q 752 1163 750 1168 q 754 1151 754 1158 q 753 1141 754 1146 q 750 1132 751 1135 q 746 1124 748 1127 q 709 1073 729 1095 q 667 1038 691 1053 q 614 1022 643 1022 q 571 1032 592 1022 q 530 1055 550 1042 q 489 1077 510 1067 q 447 1088 469 1088 q 399 1079 421 1088 q 361 1060 377 1070 q 328 1032 342 1047 q 322 1040 324 1036 q 317 1049 319 1044 q 315 1060 315 1054 q 317 1070 315 1065 q 319 1080 318 1076 q 324 1089 322 1085 q 360 1140 340 1117 q 402 1174 378 1158 q 456 1190 426 1190 q 499 1180 478 1190 q 540 1158 519 1170 q 580 1135 560 1145 q 622 1125 600 1125 z "},"":{"ha":1069,"x_min":72,"x_max":996,"o":"m 996 482 q 961 291 996 381 q 865 132 927 201 q 717 24 803 64 q 528 -17 631 -17 q 342 16 426 -17 q 198 110 258 49 q 105 261 138 172 q 72 464 72 351 q 88 593 72 531 q 132 711 103 656 q 202 813 160 767 q 295 891 243 858 q 410 943 348 924 q 543 961 472 961 q 728 928 644 961 q 871 834 812 896 q 963 683 931 772 q 996 482 996 594 m 854 454 q 848 553 854 502 q 826 652 841 604 q 786 743 810 700 q 725 817 761 785 q 641 867 689 849 q 531 886 592 886 q 386 856 446 886 q 288 772 326 825 q 232 647 249 719 q 214 490 214 574 q 221 391 214 442 q 244 292 228 340 q 285 201 260 244 q 347 126 310 158 q 432 76 383 94 q 543 57 481 57 q 685 88 626 57 q 782 172 744 118 q 837 298 819 225 q 854 454 854 370 m 290 1082 q 294 1124 290 1106 q 304 1156 299 1143 q 318 1183 310 1172 q 328 1185 323 1184 q 338 1187 332 1186 q 349 1188 343 1188 q 384 1186 365 1188 q 419 1178 403 1184 q 445 1160 435 1172 q 456 1129 456 1149 q 451 1087 456 1106 q 442 1054 447 1068 q 428 1026 435 1038 q 418 1025 423 1026 q 408 1024 413 1024 q 396 1024 402 1024 q 360 1025 379 1024 q 326 1033 342 1027 q 300 1050 310 1039 q 290 1082 290 1062 m 614 1082 q 618 1124 614 1106 q 628 1156 622 1143 q 642 1183 634 1172 q 651 1185 646 1184 q 661 1187 656 1186 q 674 1188 667 1188 q 709 1186 690 1188 q 743 1178 727 1184 q 769 1160 758 1172 q 779 1129 779 1149 q 775 1087 779 1106 q 765 1054 771 1068 q 751 1026 759 1038 q 742 1025 747 1026 q 732 1024 738 1024 q 721 1024 726 1024 q 685 1025 704 1024 q 651 1033 667 1027 q 624 1050 635 1039 q 614 1082 614 1062 z "},"":{"ha":694,"x_min":90,"x_max":604,"o":"m 90 588 l 143 639 l 347 435 l 551 639 l 604 586 l 400 381 l 604 178 l 550 125 l 347 329 l 143 124 l 90 176 l 294 381 l 90 588 z "},"":{"ha":1069,"x_min":72,"x_max":996,"o":"m 842 860 q 955 705 914 802 q 996 482 996 608 q 961 291 996 381 q 865 132 927 201 q 717 24 803 64 q 528 -17 631 -17 q 393 0 456 -17 q 278 47 331 16 l 250 8 q 230 -19 238 -8 q 213 -39 221 -31 q 198 -50 206 -47 q 182 -54 191 -54 q 161 -50 169 -54 q 149 -40 153 -45 q 142 -25 144 -33 l 221 89 q 111 245 151 151 q 72 464 72 339 q 88 593 72 531 q 132 711 103 656 q 202 813 160 767 q 295 891 243 858 q 410 943 348 924 q 543 961 472 961 q 674 946 613 961 q 785 900 735 931 l 819 950 q 840 979 831 967 q 856 998 849 991 q 870 1009 863 1006 q 886 1013 877 1013 q 907 1008 899 1013 q 919 998 915 1003 q 928 983 925 991 l 842 860 m 854 454 q 850 534 854 493 q 836 615 845 575 q 811 691 826 654 q 774 761 795 728 l 338 135 q 426 77 376 98 q 543 57 476 57 q 685 88 626 57 q 782 172 744 118 q 837 298 819 225 q 854 454 854 370 m 214 490 q 218 413 214 452 q 232 334 222 373 q 256 259 241 295 q 292 190 271 222 l 726 815 q 643 867 692 848 q 531 886 594 886 q 386 856 446 886 q 288 772 326 825 q 232 647 249 719 q 214 490 214 574 z "},"":{"ha":993,"x_min":57,"x_max":936,"o":"m 850 315 q 761 67 848 151 q 504 -17 674 -17 q 355 9 419 -17 q 247 82 290 35 q 182 195 204 128 q 160 344 160 262 l 158 778 q 156 850 158 824 q 139 883 153 877 q 122 888 131 887 q 97 889 113 889 q 84 889 91 889 q 71 888 76 888 q 57 888 63 888 l 69 942 l 368 946 l 358 897 q 343 895 351 897 q 329 891 336 894 q 315 882 322 888 q 298 849 303 872 q 289 792 292 826 q 286 714 287 758 q 286 621 286 671 l 288 358 q 293 281 288 319 q 309 210 298 243 q 339 148 321 176 q 385 100 358 120 q 448 68 412 80 q 532 57 485 57 q 654 79 606 57 q 730 141 702 101 q 769 234 758 180 q 779 351 780 288 l 776 778 q 774 850 776 824 q 757 883 772 877 q 740 888 749 887 q 715 889 731 889 q 701 889 709 889 q 685 888 692 888 q 667 888 676 888 l 679 942 l 936 946 l 926 897 q 911 895 919 897 q 897 891 904 894 q 883 882 890 888 q 866 849 872 872 q 858 792 860 826 q 855 714 856 758 q 854 621 855 671 l 850 315 m 576 1010 l 534 1052 q 492 1094 515 1071 q 446 1139 469 1117 q 413 1170 432 1153 q 378 1203 394 1188 q 338 1239 358 1221 l 338 1244 q 366 1254 350 1250 q 397 1261 379 1258 q 436 1264 415 1264 q 461 1262 454 1264 q 475 1253 469 1260 q 500 1217 485 1242 q 530 1159 514 1192 q 561 1090 545 1127 q 592 1018 578 1053 l 576 1010 z "},"":{"ha":993,"x_min":57,"x_max":936,"o":"m 850 315 q 761 67 848 151 q 504 -17 674 -17 q 355 9 419 -17 q 247 82 290 35 q 182 195 204 128 q 160 344 160 262 l 158 778 q 156 850 158 824 q 139 883 153 877 q 122 888 131 887 q 97 889 113 889 q 84 889 91 889 q 71 888 76 888 q 57 888 63 888 l 69 942 l 368 946 l 358 897 q 343 895 351 897 q 329 891 336 894 q 315 882 322 888 q 298 849 303 872 q 289 792 292 826 q 286 714 287 758 q 286 621 286 671 l 288 358 q 293 281 288 319 q 309 210 298 243 q 339 148 321 176 q 385 100 358 120 q 448 68 412 80 q 532 57 485 57 q 654 79 606 57 q 730 141 702 101 q 769 234 758 180 q 779 351 780 288 l 776 778 q 774 850 776 824 q 757 883 772 877 q 740 888 749 887 q 715 889 731 889 q 701 889 709 889 q 685 888 692 888 q 667 888 676 888 l 679 942 l 936 946 l 926 897 q 911 895 919 897 q 897 891 904 894 q 883 882 890 888 q 866 849 872 872 q 858 792 860 826 q 855 714 856 758 q 854 621 855 671 l 850 315 m 635 1224 q 626 1194 635 1210 q 605 1160 618 1178 q 574 1124 592 1142 q 540 1090 557 1106 q 444 1008 497 1050 l 429 1019 q 448 1053 438 1035 q 467 1091 456 1069 q 490 1138 478 1113 q 514 1192 503 1164 q 535 1251 524 1220 q 554 1258 544 1255 q 572 1262 563 1260 q 590 1264 582 1264 q 620 1255 606 1264 q 635 1224 635 1247 z "},"":{"ha":993,"x_min":57,"x_max":936,"o":"m 850 315 q 761 67 848 151 q 504 -17 674 -17 q 355 9 419 -17 q 247 82 290 35 q 182 195 204 128 q 160 344 160 262 l 158 778 q 156 850 158 824 q 139 883 153 877 q 122 888 131 887 q 97 889 113 889 q 84 889 91 889 q 71 888 76 888 q 57 888 63 888 l 69 942 l 368 946 l 358 897 q 343 895 351 897 q 329 891 336 894 q 315 882 322 888 q 298 849 303 872 q 289 792 292 826 q 286 714 287 758 q 286 621 286 671 l 288 358 q 293 281 288 319 q 309 210 298 243 q 339 148 321 176 q 385 100 358 120 q 448 68 412 80 q 532 57 485 57 q 654 79 606 57 q 730 141 702 101 q 769 234 758 180 q 779 351 780 288 l 776 778 q 774 850 776 824 q 757 883 772 877 q 740 888 749 887 q 715 889 731 889 q 701 889 709 889 q 685 888 692 888 q 667 888 676 888 l 679 942 l 936 946 l 926 897 q 911 895 919 897 q 897 891 904 894 q 883 882 890 888 q 866 849 872 872 q 858 792 860 826 q 855 714 856 758 q 854 621 855 671 l 850 315 m 504 1157 q 466 1111 486 1131 q 424 1074 446 1090 q 380 1045 402 1058 q 336 1024 358 1033 l 324 1036 q 345 1066 333 1049 q 369 1100 355 1080 q 399 1144 383 1120 q 423 1186 412 1165 q 444 1222 435 1206 q 463 1258 454 1241 q 476 1265 469 1262 q 491 1269 483 1267 q 507 1271 499 1271 q 524 1269 516 1271 q 538 1265 532 1267 q 551 1258 546 1262 q 570 1222 560 1241 q 591 1186 579 1206 q 615 1144 602 1165 q 644 1100 631 1120 q 668 1066 658 1080 q 690 1036 680 1049 l 678 1024 q 632 1045 656 1033 q 586 1074 609 1058 q 543 1111 564 1090 q 504 1157 522 1131 z "},"":{"ha":993,"x_min":57,"x_max":936,"o":"m 850 315 q 761 67 848 151 q 504 -17 674 -17 q 355 9 419 -17 q 247 82 290 35 q 182 195 204 128 q 160 344 160 262 l 158 778 q 156 850 158 824 q 139 883 153 877 q 122 888 131 887 q 97 889 113 889 q 84 889 91 889 q 71 888 76 888 q 57 888 63 888 l 69 942 l 368 946 l 358 897 q 343 895 351 897 q 329 891 336 894 q 315 882 322 888 q 298 849 303 872 q 289 792 292 826 q 286 714 287 758 q 286 621 286 671 l 288 358 q 293 281 288 319 q 309 210 298 243 q 339 148 321 176 q 385 100 358 120 q 448 68 412 80 q 532 57 485 57 q 654 79 606 57 q 730 141 702 101 q 769 234 758 180 q 779 351 780 288 l 776 778 q 774 850 776 824 q 757 883 772 877 q 740 888 749 887 q 715 889 731 889 q 701 889 709 889 q 685 888 692 888 q 667 888 676 888 l 679 942 l 936 946 l 926 897 q 911 895 919 897 q 897 891 904 894 q 883 882 890 888 q 866 849 872 872 q 858 792 860 826 q 855 714 856 758 q 854 621 855 671 l 850 315 m 263 1082 q 267 1124 263 1106 q 276 1156 271 1143 q 290 1183 283 1172 q 300 1185 295 1184 q 310 1187 304 1186 q 321 1188 315 1188 q 356 1186 338 1188 q 391 1178 375 1184 q 417 1160 407 1172 q 428 1129 428 1149 q 424 1087 428 1106 q 414 1054 419 1068 q 400 1026 408 1038 q 390 1025 395 1026 q 380 1024 385 1024 q 368 1024 374 1024 q 333 1025 351 1024 q 298 1033 314 1027 q 273 1050 283 1039 q 263 1082 263 1062 m 586 1082 q 590 1124 586 1106 q 600 1156 594 1143 q 614 1183 606 1172 q 624 1185 618 1184 q 634 1187 628 1186 q 646 1188 640 1188 q 681 1186 663 1188 q 715 1178 699 1184 q 741 1160 731 1172 q 751 1129 751 1149 q 747 1087 751 1106 q 738 1054 743 1068 q 724 1026 731 1038 q 714 1025 719 1026 q 704 1024 710 1024 q 693 1024 699 1024 q 658 1025 676 1024 q 623 1033 639 1027 q 597 1050 607 1039 q 586 1082 586 1062 z "},"":{"ha":833,"x_min":-7,"x_max":817,"o":"m 443 476 l 618 783 q 643 825 632 808 q 654 857 654 843 q 640 883 654 877 q 596 889 626 889 q 579 889 588 889 q 561 888 569 888 q 542 888 551 888 l 554 942 l 817 946 l 807 897 q 780 893 791 897 q 762 882 769 889 q 749 865 755 874 q 738 846 744 856 l 479 400 l 481 164 q 483 91 481 118 q 500 58 485 65 q 517 54 508 55 q 542 53 526 53 q 556 53 548 53 q 571 53 563 53 q 588 54 578 53 l 575 0 l 271 -4 l 281 44 q 296 47 288 44 q 310 51 302 48 q 324 60 317 54 q 341 93 335 69 q 350 150 347 116 q 352 227 352 184 q 353 321 353 271 l 353 381 l 92 831 q 72 862 80 850 q 53 881 63 874 q 30 891 44 888 q -7 893 16 893 l 4 942 l 332 946 l 321 890 q 275 890 294 890 q 246 886 257 889 q 230 879 235 884 q 225 865 225 874 q 241 830 225 856 q 278 768 258 803 l 443 476 m 517 1224 q 508 1194 517 1210 q 487 1160 500 1178 q 456 1124 474 1142 q 422 1090 439 1106 q 326 1008 379 1050 l 311 1019 q 330 1053 320 1035 q 349 1091 338 1069 q 372 1138 360 1113 q 395 1192 385 1164 q 417 1251 406 1220 q 436 1258 426 1255 q 454 1262 444 1260 q 472 1264 464 1264 q 502 1255 488 1264 q 517 1224 517 1247 z "},"":{"ha":785,"x_min":74,"x_max":757,"o":"m 307 772 q 352 775 327 774 q 403 777 374 776 q 467 778 432 778 q 593 760 538 778 q 684 709 647 742 q 739 632 720 677 q 757 532 757 587 q 740 432 757 476 q 692 355 722 388 q 622 299 663 322 q 534 262 581 276 q 437 241 488 247 q 336 233 386 234 l 333 268 q 400 282 366 272 q 467 305 435 291 q 528 339 499 319 q 578 385 557 359 q 613 443 600 411 q 625 514 625 475 q 612 593 625 557 q 572 656 599 630 q 504 698 545 683 q 408 715 463 714 l 307 718 q 306 642 306 683 q 306 561 306 607 q 306 464 306 516 l 306 164 q 308 91 306 118 q 325 58 310 65 q 342 54 333 55 q 367 53 351 53 q 381 53 373 53 q 395 53 388 53 q 411 54 403 53 l 399 0 l 93 -4 l 103 44 q 117 47 110 44 q 131 51 124 48 q 144 60 138 54 q 162 93 156 69 q 171 150 168 116 q 175 227 174 184 q 175 321 175 271 l 175 778 q 173 850 175 824 q 156 883 170 877 q 139 888 148 887 q 114 889 130 889 q 100 889 108 889 q 88 888 93 888 q 74 888 80 888 l 86 942 l 386 946 l 376 897 q 362 895 369 897 q 348 891 356 894 q 335 882 341 888 q 320 858 326 874 q 313 825 315 842 q 309 793 310 808 q 307 772 308 778 z "},"":{"ha":847,"x_min":49,"x_max":785,"o":"m 590 -17 q 502 1 540 -17 q 438 40 465 19 q 385 97 408 65 l 396 111 q 444 81 418 94 q 495 59 467 69 q 556 50 524 50 q 633 76 603 50 q 663 153 663 103 q 640 215 663 188 q 585 268 618 243 q 513 316 551 292 q 440 367 474 340 q 385 426 407 394 q 363 500 363 458 q 381 561 363 533 q 428 617 400 590 q 488 672 456 644 q 549 733 521 700 q 595 806 576 766 q 614 896 614 845 q 600 973 614 942 q 565 1023 587 1004 q 515 1048 543 1041 q 458 1056 487 1056 q 386 1041 422 1056 q 321 995 350 1026 q 274 919 292 965 q 256 811 256 874 l 250 158 q 252 86 250 113 q 269 53 255 59 q 286 48 277 49 q 311 47 295 47 q 325 47 317 47 q 340 48 333 47 q 357 49 348 48 l 344 0 l 49 -4 l 58 39 q 71 41 64 39 q 83 45 76 42 q 96 54 90 49 q 113 88 107 64 q 122 145 119 111 q 125 224 124 180 q 125 321 125 269 l 131 731 q 153 887 131 817 q 217 1008 176 958 q 319 1086 259 1058 q 458 1114 380 1114 q 566 1100 515 1114 q 655 1060 617 1087 q 714 994 692 1034 q 736 903 736 955 q 717 817 736 855 q 669 747 698 778 q 608 688 641 715 q 546 637 574 661 q 498 589 517 613 q 479 542 479 566 q 502 486 479 510 q 558 440 524 463 q 632 395 592 418 q 706 343 672 372 q 762 275 740 313 q 785 183 785 236 q 766 92 785 130 q 719 30 747 53 q 656 -6 690 6 q 590 -17 622 -17 z "},"":{"ha":711,"x_min":63,"x_max":682,"o":"m 682 42 q 644 13 665 25 q 601 -8 626 1 q 543 -17 576 -17 q 485 -1 506 -17 q 453 33 464 15 q 436 83 440 56 q 373 33 406 56 q 307 -1 344 15 q 229 -17 270 -17 q 167 -6 197 -17 q 114 24 137 4 q 76 75 90 44 q 63 144 63 105 q 81 221 63 188 q 131 278 100 254 q 201 319 162 303 q 283 347 241 336 q 365 365 324 358 q 438 375 405 371 q 440 425 438 400 q 441 471 440 447 q 442 515 442 495 q 438 573 442 547 q 422 618 433 599 q 392 648 411 637 q 344 658 374 658 q 291 644 313 658 q 253 614 268 631 q 222 569 235 594 q 201 556 213 562 q 178 546 191 550 q 149 542 165 542 q 116 552 131 542 q 101 586 101 563 q 108 614 101 604 q 124 631 114 623 q 166 658 139 642 q 225 689 193 674 q 293 713 258 703 q 363 722 329 722 q 440 713 403 722 q 506 682 477 704 q 552 620 535 659 q 569 522 569 581 q 567 416 569 469 q 563 310 565 362 q 558 211 560 258 q 556 125 556 164 q 558 91 556 104 q 566 69 560 77 q 580 59 571 62 q 600 56 588 56 q 622 58 612 56 q 641 63 633 60 q 660 69 651 65 l 682 42 m 435 313 q 315 289 367 307 q 270 270 292 281 q 232 245 249 260 q 205 211 215 230 q 194 167 194 192 q 204 120 194 138 q 227 93 213 103 q 259 79 242 83 q 292 75 276 75 q 343 84 318 75 q 388 103 368 92 q 433 131 411 115 q 433 153 433 141 q 432 178 432 164 q 432 208 432 192 q 432 240 432 222 q 433 274 433 258 q 435 313 434 292 m 479 790 q 428 844 453 817 q 382 894 406 867 q 335 943 357 921 q 302 973 321 957 q 268 1005 284 990 q 229 1040 249 1022 l 229 1044 q 257 1054 242 1050 q 288 1061 270 1058 q 325 1064 305 1064 q 349 1062 342 1064 q 363 1053 356 1060 q 390 1014 373 1042 q 425 949 406 985 q 461 873 443 913 q 493 799 479 833 l 479 790 z "},"":{"ha":711,"x_min":63,"x_max":682,"o":"m 682 42 q 644 13 665 25 q 601 -8 626 1 q 543 -17 576 -17 q 485 -1 506 -17 q 453 33 464 15 q 436 83 440 56 q 373 33 406 56 q 307 -1 344 15 q 229 -17 270 -17 q 167 -6 197 -17 q 114 24 137 4 q 76 75 90 44 q 63 144 63 105 q 81 221 63 188 q 131 278 100 254 q 201 319 162 303 q 283 347 241 336 q 365 365 324 358 q 438 375 405 371 q 440 425 438 400 q 441 471 440 447 q 442 515 442 495 q 438 573 442 547 q 422 618 433 599 q 392 648 411 637 q 344 658 374 658 q 291 644 313 658 q 253 614 268 631 q 222 569 235 594 q 201 556 213 562 q 178 546 191 550 q 149 542 165 542 q 116 552 131 542 q 101 586 101 563 q 108 614 101 604 q 124 631 114 623 q 166 658 139 642 q 225 689 193 674 q 293 713 258 703 q 363 722 329 722 q 440 713 403 722 q 506 682 477 704 q 552 620 535 659 q 569 522 569 581 q 567 416 569 469 q 563 310 565 362 q 558 211 560 258 q 556 125 556 164 q 558 91 556 104 q 566 69 560 77 q 580 59 571 62 q 600 56 588 56 q 622 58 612 56 q 641 63 633 60 q 660 69 651 65 l 682 42 m 435 313 q 315 289 367 307 q 270 270 292 281 q 232 245 249 260 q 205 211 215 230 q 194 167 194 192 q 204 120 194 138 q 227 93 213 103 q 259 79 242 83 q 292 75 276 75 q 343 84 318 75 q 388 103 368 92 q 433 131 411 115 q 433 153 433 141 q 432 178 432 164 q 432 208 432 192 q 432 240 432 222 q 433 274 433 258 q 435 313 434 292 m 485 1025 q 476 991 485 1009 q 453 953 467 972 q 420 914 438 933 q 383 876 401 894 q 281 789 338 833 l 265 800 q 285 835 274 815 q 308 875 295 851 q 338 931 322 899 q 365 992 354 963 q 386 1051 376 1021 q 406 1058 396 1055 q 423 1062 414 1060 q 440 1064 433 1064 q 456 1062 448 1064 q 470 1055 464 1060 q 481 1043 476 1051 q 485 1025 485 1036 z "},"":{"ha":711,"x_min":63,"x_max":682,"o":"m 682 42 q 644 13 665 25 q 601 -8 626 1 q 543 -17 576 -17 q 485 -1 506 -17 q 453 33 464 15 q 436 83 440 56 q 373 33 406 56 q 307 -1 344 15 q 229 -17 270 -17 q 167 -6 197 -17 q 114 24 137 4 q 76 75 90 44 q 63 144 63 105 q 81 221 63 188 q 131 278 100 254 q 201 319 162 303 q 283 347 241 336 q 365 365 324 358 q 438 375 405 371 q 440 425 438 400 q 441 471 440 447 q 442 515 442 495 q 438 573 442 547 q 422 618 433 599 q 392 648 411 637 q 344 658 374 658 q 291 644 313 658 q 253 614 268 631 q 222 569 235 594 q 201 556 213 562 q 178 546 191 550 q 149 542 165 542 q 116 552 131 542 q 101 586 101 563 q 108 614 101 604 q 124 631 114 623 q 166 658 139 642 q 225 689 193 674 q 293 713 258 703 q 363 722 329 722 q 440 713 403 722 q 506 682 477 704 q 552 620 535 659 q 569 522 569 581 q 567 416 569 469 q 563 310 565 362 q 558 211 560 258 q 556 125 556 164 q 558 91 556 104 q 566 69 560 77 q 580 59 571 62 q 600 56 588 56 q 622 58 612 56 q 641 63 633 60 q 660 69 651 65 l 682 42 m 435 313 q 315 289 367 307 q 270 270 292 281 q 232 245 249 260 q 205 211 215 230 q 194 167 194 192 q 204 120 194 138 q 227 93 213 103 q 259 79 242 83 q 292 75 276 75 q 343 84 318 75 q 388 103 368 92 q 433 131 411 115 q 433 153 433 141 q 432 178 432 164 q 432 208 432 192 q 432 240 432 222 q 433 274 433 258 q 435 313 434 292 m 531 789 q 485 818 509 802 q 437 855 461 835 q 390 900 413 876 q 347 953 367 924 q 305 900 328 924 q 258 855 282 876 q 209 818 233 835 q 164 789 185 802 l 151 801 q 177 838 164 818 q 203 876 189 854 q 233 922 218 898 q 258 965 245 942 q 282 1006 271 987 q 307 1051 294 1029 q 320 1058 313 1055 q 334 1062 326 1060 q 350 1064 342 1064 q 366 1062 358 1064 q 380 1058 374 1060 q 393 1051 387 1055 q 418 1006 406 1029 q 442 965 429 987 q 467 922 455 942 q 496 876 482 898 q 520 838 510 854 q 543 801 533 818 l 531 789 z "},"":{"ha":711,"x_min":63,"x_max":682,"o":"m 682 42 q 644 13 665 25 q 601 -8 626 1 q 543 -17 576 -17 q 485 -1 506 -17 q 453 33 464 15 q 436 83 440 56 q 373 33 406 56 q 307 -1 344 15 q 229 -17 270 -17 q 167 -6 197 -17 q 114 24 137 4 q 76 75 90 44 q 63 144 63 105 q 81 221 63 188 q 131 278 100 254 q 201 319 162 303 q 283 347 241 336 q 365 365 324 358 q 438 375 405 371 q 440 425 438 400 q 441 471 440 447 q 442 515 442 495 q 438 573 442 547 q 422 618 433 599 q 392 648 411 637 q 344 658 374 658 q 291 644 313 658 q 253 614 268 631 q 222 569 235 594 q 201 556 213 562 q 178 546 191 550 q 149 542 165 542 q 116 552 131 542 q 101 586 101 563 q 108 614 101 604 q 124 631 114 623 q 166 658 139 642 q 225 689 193 674 q 293 713 258 703 q 363 722 329 722 q 440 713 403 722 q 506 682 477 704 q 552 620 535 659 q 569 522 569 581 q 567 416 569 469 q 563 310 565 362 q 558 211 560 258 q 556 125 556 164 q 558 91 556 104 q 566 69 560 77 q 580 59 571 62 q 600 56 588 56 q 622 58 612 56 q 641 63 633 60 q 660 69 651 65 l 682 42 m 435 313 q 315 289 367 307 q 270 270 292 281 q 232 245 249 260 q 205 211 215 230 q 194 167 194 192 q 204 120 194 138 q 227 93 213 103 q 259 79 242 83 q 292 75 276 75 q 343 84 318 75 q 388 103 368 92 q 433 131 411 115 q 433 153 433 141 q 432 178 432 164 q 432 208 432 192 q 432 240 432 222 q 433 274 433 258 q 435 313 434 292 m 433 960 q 480 968 459 960 q 517 987 501 976 q 550 1014 535 999 q 556 1006 553 1010 q 559 997 558 1002 q 561 986 561 992 q 560 975 561 981 q 558 967 559 970 q 554 958 556 962 q 518 909 538 931 q 477 875 501 890 q 425 860 454 860 q 384 870 403 860 q 344 892 364 880 q 305 914 325 903 q 264 924 285 924 q 217 915 238 924 q 180 897 196 906 q 147 869 162 884 q 142 878 144 874 q 138 886 140 881 q 136 897 136 892 q 140 916 136 907 q 143 925 141 920 q 179 974 159 952 q 220 1008 197 992 q 272 1024 243 1024 q 314 1014 294 1024 q 353 992 333 1003 q 392 970 372 980 q 433 960 412 960 z "},"":{"ha":711,"x_min":63,"x_max":682,"o":"m 682 42 q 644 13 665 25 q 601 -8 626 1 q 543 -17 576 -17 q 485 -1 506 -17 q 453 33 464 15 q 436 83 440 56 q 373 33 406 56 q 307 -1 344 15 q 229 -17 270 -17 q 167 -6 197 -17 q 114 24 137 4 q 76 75 90 44 q 63 144 63 105 q 81 221 63 188 q 131 278 100 254 q 201 319 162 303 q 283 347 241 336 q 365 365 324 358 q 438 375 405 371 q 440 425 438 400 q 441 471 440 447 q 442 515 442 495 q 438 573 442 547 q 422 618 433 599 q 392 648 411 637 q 344 658 374 658 q 291 644 313 658 q 253 614 268 631 q 222 569 235 594 q 201 556 213 562 q 178 546 191 550 q 149 542 165 542 q 116 552 131 542 q 101 586 101 563 q 108 614 101 604 q 124 631 114 623 q 166 658 139 642 q 225 689 193 674 q 293 713 258 703 q 363 722 329 722 q 440 713 403 722 q 506 682 477 704 q 552 620 535 659 q 569 522 569 581 q 567 416 569 469 q 563 310 565 362 q 558 211 560 258 q 556 125 556 164 q 558 91 556 104 q 566 69 560 77 q 580 59 571 62 q 600 56 588 56 q 622 58 612 56 q 641 63 633 60 q 660 69 651 65 l 682 42 m 435 313 q 315 289 367 307 q 270 270 292 281 q 232 245 249 260 q 205 211 215 230 q 194 167 194 192 q 204 120 194 138 q 227 93 213 103 q 259 79 242 83 q 292 75 276 75 q 343 84 318 75 q 388 103 368 92 q 433 131 411 115 q 433 153 433 141 q 432 178 432 164 q 432 208 432 192 q 432 240 432 222 q 433 274 433 258 q 435 313 434 292 m 122 921 q 126 962 122 944 q 135 993 130 980 q 149 1019 141 1008 q 158 1022 153 1020 q 168 1023 163 1022 q 179 1024 174 1024 q 213 1022 195 1024 q 247 1014 231 1020 q 272 997 262 1008 q 282 967 282 985 q 278 925 282 944 q 269 894 274 907 q 256 867 263 878 q 246 865 251 866 q 236 864 242 865 q 225 864 231 864 q 191 866 209 864 q 158 873 173 867 q 132 890 142 879 q 122 921 122 901 m 415 921 q 419 962 415 944 q 428 993 423 980 q 442 1019 434 1008 q 451 1022 447 1020 q 461 1023 456 1022 q 472 1024 467 1024 q 506 1022 488 1024 q 540 1014 524 1020 q 565 997 555 1008 q 575 967 575 985 q 571 925 575 944 q 562 894 567 907 q 549 867 556 878 q 539 865 544 866 q 529 864 535 865 q 518 864 524 864 q 484 866 502 864 q 451 873 466 867 q 425 890 435 879 q 415 921 415 901 z "},"":{"ha":711,"x_min":63,"x_max":682,"o":"m 682 42 q 644 13 665 25 q 601 -8 626 1 q 543 -17 576 -17 q 485 -1 506 -17 q 453 33 464 15 q 436 83 440 56 q 373 33 406 56 q 307 -1 344 15 q 229 -17 270 -17 q 167 -6 197 -17 q 114 24 137 4 q 76 75 90 44 q 63 144 63 105 q 81 221 63 188 q 131 278 100 254 q 201 319 162 303 q 283 347 241 336 q 365 365 324 358 q 438 375 405 371 q 440 425 438 400 q 441 471 440 447 q 442 515 442 495 q 438 573 442 547 q 422 618 433 599 q 392 648 411 637 q 344 658 374 658 q 291 644 313 658 q 253 614 268 631 q 222 569 235 594 q 201 556 213 562 q 178 546 191 550 q 149 542 165 542 q 116 552 131 542 q 101 586 101 563 q 108 614 101 604 q 124 631 114 623 q 166 658 139 642 q 225 689 193 674 q 293 713 258 703 q 363 722 329 722 q 440 713 403 722 q 506 682 477 704 q 552 620 535 659 q 569 522 569 581 q 567 416 569 469 q 563 310 565 362 q 558 211 560 258 q 556 125 556 164 q 558 91 556 104 q 566 69 560 77 q 580 59 571 62 q 600 56 588 56 q 622 58 612 56 q 641 63 633 60 q 660 69 651 65 l 682 42 m 435 313 q 315 289 367 307 q 270 270 292 281 q 232 245 249 260 q 205 211 215 230 q 194 167 194 192 q 204 120 194 138 q 227 93 213 103 q 259 79 242 83 q 292 75 276 75 q 343 84 318 75 q 388 103 368 92 q 433 131 411 115 q 433 153 433 141 q 432 178 432 164 q 432 208 432 192 q 432 240 432 222 q 433 274 433 258 q 435 313 434 292 m 486 926 q 475 873 486 898 q 446 829 465 848 q 402 800 427 810 q 349 789 377 789 q 295 800 320 789 q 251 829 270 810 q 222 873 233 848 q 211 926 211 898 q 222 980 211 955 q 251 1024 233 1005 q 295 1053 270 1042 q 349 1064 320 1064 q 402 1053 377 1064 q 446 1024 427 1042 q 475 980 465 1005 q 486 926 486 955 m 440 926 q 433 964 440 946 q 413 995 426 981 q 384 1016 401 1008 q 349 1024 367 1024 q 313 1016 330 1024 q 284 995 297 1008 q 264 964 272 981 q 257 926 257 946 q 264 888 257 906 q 284 857 272 870 q 313 835 297 843 q 349 828 330 828 q 384 835 367 828 q 413 857 401 843 q 433 888 426 870 q 440 926 440 906 z "},"":{"ha":1053,"x_min":63,"x_max":1014,"o":"m 435 346 q 315 308 367 332 q 270 284 292 298 q 232 253 249 271 q 205 214 215 235 q 194 167 194 192 q 203 123 194 140 q 225 95 212 106 q 256 80 239 84 q 292 75 274 75 q 358 88 326 75 q 414 117 390 101 q 468 160 442 135 q 444 240 453 193 q 435 346 435 287 m 442 515 q 438 573 442 547 q 422 618 433 599 q 392 648 411 637 q 344 658 374 658 q 291 644 313 658 q 253 614 268 631 q 222 569 235 594 q 201 556 213 562 q 178 546 191 550 q 149 542 165 542 q 116 552 131 542 q 101 586 101 563 q 108 614 101 604 q 124 631 114 623 q 166 658 139 642 q 225 689 193 674 q 293 713 258 703 q 363 722 329 722 q 418 718 394 722 q 462 706 442 713 q 495 689 481 699 q 519 669 509 679 q 553 617 543 647 q 614 669 581 647 q 682 706 643 690 q 769 722 722 722 q 851 710 815 722 q 914 676 887 697 q 960 626 942 654 q 991 568 979 599 q 1009 507 1003 538 q 1014 449 1014 476 q 1014 435 1014 441 q 1013 424 1013 428 q 1013 414 1013 418 l 567 364 q 588 245 569 301 q 638 149 606 190 q 714 85 669 108 q 814 61 758 61 q 882 69 849 61 q 938 86 914 76 q 992 111 967 97 l 1003 97 q 935 40 973 65 q 854 1 901 19 q 744 -17 806 -17 q 681 -11 710 -17 q 628 5 652 -5 q 583 28 603 15 q 548 53 563 40 q 488 124 511 84 q 409 53 451 84 q 370 28 391 40 q 326 5 349 15 q 279 -11 303 -5 q 229 -17 254 -17 q 167 -6 197 -17 q 114 25 137 4 q 76 76 90 46 q 63 146 63 106 q 81 232 63 194 q 131 296 100 269 q 201 343 162 324 q 283 375 241 362 q 365 394 324 388 q 438 406 405 401 q 440 447 438 426 q 441 483 440 464 q 442 515 442 501 m 903 471 q 899 504 902 485 q 890 543 897 523 q 872 582 883 563 q 845 616 861 601 q 808 641 829 631 q 758 650 786 650 q 686 630 719 650 q 627 577 652 610 q 586 504 602 545 q 567 421 570 463 l 903 471 z "},"":{"ha":653,"x_min":67,"x_max":611,"o":"m 335 -264 q 386 -258 366 -264 q 418 -244 406 -253 q 434 -224 430 -235 q 439 -201 439 -213 q 425 -166 439 -181 q 393 -143 412 -152 q 353 -131 374 -135 q 318 -126 333 -127 l 346 -15 q 236 13 287 -10 q 147 80 185 36 q 88 189 110 124 q 67 340 67 253 q 95 487 67 418 q 171 608 123 556 q 281 691 219 660 q 413 721 344 721 q 489 712 453 721 q 552 690 525 703 q 594 661 578 676 q 610 635 610 647 q 596 603 610 616 q 566 581 582 590 q 522 565 547 572 q 490 605 508 587 q 451 632 474 619 q 396 644 427 644 q 312 624 349 644 q 251 570 276 604 q 213 492 226 537 q 200 399 200 447 q 218 257 200 319 q 268 151 236 194 q 343 84 299 107 q 438 61 386 61 q 495 69 467 61 q 547 86 524 76 q 600 111 575 97 l 611 97 q 554 45 586 68 q 488 7 526 25 q 400 -15 449 -11 l 381 -87 q 402 -90 388 -88 q 435 -97 417 -92 q 473 -109 453 -101 q 507 -129 492 -117 q 533 -159 523 -142 q 543 -201 543 -177 q 529 -252 543 -232 q 493 -284 515 -272 q 443 -301 471 -296 q 388 -306 415 -306 q 338 -303 360 -306 q 300 -297 316 -301 q 268 -289 282 -294 l 274 -261 q 291 -262 281 -262 q 310 -264 299 -263 q 335 -264 322 -264 z "},"":{"ha":686,"x_min":69,"x_max":647,"o":"m 647 449 q 647 434 647 442 q 647 419 647 426 q 646 403 646 411 l 203 389 l 203 379 q 219 258 203 315 q 268 156 236 200 q 346 87 300 113 q 450 61 392 61 q 518 69 485 61 q 574 86 550 76 q 628 111 603 97 l 639 97 q 571 40 609 65 q 490 1 538 19 q 381 -17 442 -17 q 258 6 315 -17 q 159 73 201 28 q 93 185 117 117 q 69 342 69 252 q 82 439 69 392 q 118 529 95 487 q 172 607 141 572 q 241 668 203 642 q 319 708 278 694 q 403 722 360 722 q 484 710 449 722 q 548 676 520 697 q 594 626 575 654 q 625 568 613 599 q 642 507 637 538 q 647 449 647 476 m 536 464 q 529 520 536 488 q 506 581 522 552 q 461 630 489 610 q 392 650 433 650 q 327 634 358 650 q 272 591 297 619 q 230 526 247 564 q 206 446 213 489 l 536 464 m 458 790 q 408 844 433 817 q 361 894 385 867 q 314 943 336 921 q 282 973 300 957 q 247 1005 263 990 q 208 1040 228 1022 l 208 1044 q 236 1054 221 1050 q 267 1061 249 1058 q 304 1064 284 1064 q 328 1062 321 1064 q 342 1053 335 1060 q 369 1014 352 1042 q 404 949 385 985 q 440 873 422 913 q 472 799 458 833 l 458 790 z "},"":{"ha":686,"x_min":69,"x_max":647,"o":"m 647 449 q 647 434 647 442 q 647 419 647 426 q 646 403 646 411 l 203 389 l 203 379 q 219 258 203 315 q 268 156 236 200 q 346 87 300 113 q 450 61 392 61 q 518 69 485 61 q 574 86 550 76 q 628 111 603 97 l 639 97 q 571 40 609 65 q 490 1 538 19 q 381 -17 442 -17 q 258 6 315 -17 q 159 73 201 28 q 93 185 117 117 q 69 342 69 252 q 82 439 69 392 q 118 529 95 487 q 172 607 141 572 q 241 668 203 642 q 319 708 278 694 q 403 722 360 722 q 484 710 449 722 q 548 676 520 697 q 594 626 575 654 q 625 568 613 599 q 642 507 637 538 q 647 449 647 476 m 536 464 q 529 520 536 488 q 506 581 522 552 q 461 630 489 610 q 392 650 433 650 q 327 634 358 650 q 272 591 297 619 q 230 526 247 564 q 206 446 213 489 l 536 464 m 522 1025 q 514 991 522 1009 q 490 953 505 972 q 457 914 476 933 q 420 876 439 894 q 318 789 375 833 l 303 800 q 323 835 311 815 q 346 875 333 851 q 375 931 359 899 q 403 992 392 963 q 424 1051 414 1021 q 443 1058 433 1055 q 461 1062 451 1060 q 478 1064 470 1064 q 493 1062 485 1064 q 508 1055 501 1060 q 518 1043 514 1051 q 522 1025 522 1036 z "},"":{"ha":686,"x_min":69,"x_max":647,"o":"m 647 449 q 647 434 647 442 q 647 419 647 426 q 646 403 646 411 l 203 389 l 203 379 q 219 258 203 315 q 268 156 236 200 q 346 87 300 113 q 450 61 392 61 q 518 69 485 61 q 574 86 550 76 q 628 111 603 97 l 639 97 q 571 40 609 65 q 490 1 538 19 q 381 -17 442 -17 q 258 6 315 -17 q 159 73 201 28 q 93 185 117 117 q 69 342 69 252 q 82 439 69 392 q 118 529 95 487 q 172 607 141 572 q 241 668 203 642 q 319 708 278 694 q 403 722 360 722 q 484 710 449 722 q 548 676 520 697 q 594 626 575 654 q 625 568 613 599 q 642 507 637 538 q 647 449 647 476 m 536 464 q 529 520 536 488 q 506 581 522 552 q 461 630 489 610 q 392 650 433 650 q 327 634 358 650 q 272 591 297 619 q 230 526 247 564 q 206 446 213 489 l 536 464 m 569 789 q 524 818 548 802 q 476 855 500 835 q 428 900 451 876 q 386 953 406 924 q 344 900 367 924 q 297 855 321 876 q 248 818 272 835 q 203 789 224 802 l 190 801 q 216 838 203 818 q 242 876 228 854 q 272 922 257 898 q 297 965 284 942 q 321 1006 310 987 q 346 1051 333 1029 q 359 1058 351 1055 q 373 1062 365 1060 q 389 1064 381 1064 q 405 1062 397 1064 q 419 1058 413 1060 q 432 1051 426 1055 q 457 1006 444 1029 q 481 965 468 987 q 506 922 494 942 q 535 876 521 898 q 559 838 549 854 q 582 801 572 818 l 569 789 z "},"":{"ha":686,"x_min":69,"x_max":647,"o":"m 647 449 q 647 434 647 442 q 647 419 647 426 q 646 403 646 411 l 203 389 l 203 379 q 219 258 203 315 q 268 156 236 200 q 346 87 300 113 q 450 61 392 61 q 518 69 485 61 q 574 86 550 76 q 628 111 603 97 l 639 97 q 571 40 609 65 q 490 1 538 19 q 381 -17 442 -17 q 258 6 315 -17 q 159 73 201 28 q 93 185 117 117 q 69 342 69 252 q 82 439 69 392 q 118 529 95 487 q 172 607 141 572 q 241 668 203 642 q 319 708 278 694 q 403 722 360 722 q 484 710 449 722 q 548 676 520 697 q 594 626 575 654 q 625 568 613 599 q 642 507 637 538 q 647 449 647 476 m 536 464 q 529 520 536 488 q 506 581 522 552 q 461 630 489 610 q 392 650 433 650 q 327 634 358 650 q 272 591 297 619 q 230 526 247 564 q 206 446 213 489 l 536 464 m 160 921 q 164 962 160 944 q 173 993 167 980 q 186 1019 178 1008 q 196 1022 191 1020 q 206 1023 200 1022 q 217 1024 211 1024 q 251 1022 233 1024 q 284 1014 269 1020 q 309 997 299 1008 q 319 967 319 985 q 315 925 319 944 q 306 894 311 907 q 293 867 300 878 q 283 865 288 866 q 274 864 279 865 q 263 864 268 864 q 228 866 247 864 q 195 873 210 867 q 170 890 180 879 q 160 921 160 901 m 453 921 q 457 962 453 944 q 466 993 460 980 q 479 1019 472 1008 q 489 1022 484 1020 q 499 1023 493 1022 q 510 1024 504 1024 q 544 1022 526 1024 q 577 1014 562 1020 q 602 997 592 1008 q 613 967 613 985 q 608 925 613 944 q 599 894 604 907 q 586 867 593 878 q 576 865 581 866 q 567 864 572 865 q 556 864 561 864 q 522 866 540 864 q 488 873 503 867 q 463 890 473 879 q 453 921 453 901 z "},"":{"ha":433,"x_min":67,"x_max":388,"o":"m 153 321 q 152 450 153 399 q 149 533 151 501 q 143 581 147 565 q 131 606 138 597 q 114 614 125 611 q 93 617 103 616 q 67 618 81 619 l 76 657 q 109 668 91 662 q 144 681 124 674 q 185 696 163 688 q 221 710 205 703 q 250 722 238 716 q 276 733 264 728 l 286 721 q 283 494 285 602 q 282 401 283 449 q 282 308 282 353 q 281 224 281 263 q 281 158 281 185 q 283 86 281 113 q 300 53 285 59 q 317 48 308 49 q 342 47 326 47 q 356 47 348 47 q 371 48 363 47 q 388 49 378 48 l 375 0 l 76 -4 l 86 39 q 99 41 92 39 q 111 45 104 42 q 124 54 117 49 q 141 88 135 64 q 150 145 147 111 q 152 224 152 180 q 153 321 153 269 m 335 790 q 284 844 309 817 q 237 894 262 867 q 190 943 213 921 q 158 973 176 957 q 124 1005 140 990 q 85 1040 104 1022 l 85 1044 q 113 1054 97 1050 q 143 1061 126 1058 q 181 1064 160 1064 q 205 1062 197 1064 q 218 1053 212 1060 q 245 1014 228 1042 q 280 949 262 985 q 317 873 299 913 q 349 799 335 833 l 335 790 z "},"":{"ha":433,"x_min":67,"x_max":388,"o":"m 153 321 q 152 450 153 399 q 149 533 151 501 q 143 581 147 565 q 131 606 138 597 q 114 614 125 611 q 93 617 103 616 q 67 618 81 619 l 76 657 q 109 668 91 662 q 144 681 124 674 q 185 696 163 688 q 221 710 205 703 q 250 722 238 716 q 276 733 264 728 l 286 721 q 283 494 285 602 q 282 401 283 449 q 282 308 282 353 q 281 224 281 263 q 281 158 281 185 q 283 86 281 113 q 300 53 285 59 q 317 48 308 49 q 342 47 326 47 q 356 47 348 47 q 371 48 363 47 q 388 49 378 48 l 375 0 l 76 -4 l 86 39 q 99 41 92 39 q 111 45 104 42 q 124 54 117 49 q 141 88 135 64 q 150 145 147 111 q 152 224 152 180 q 153 321 153 269 m 326 1025 q 318 991 326 1009 q 294 953 309 972 q 261 914 280 933 q 224 876 243 894 q 122 789 179 833 l 107 800 q 127 835 115 815 q 150 875 137 851 q 179 931 163 899 q 207 992 196 963 q 228 1051 218 1021 q 247 1058 238 1055 q 265 1062 256 1060 q 282 1064 274 1064 q 298 1062 290 1064 q 312 1055 306 1060 q 322 1043 318 1051 q 326 1025 326 1036 z "},"":{"ha":433,"x_min":21,"x_max":413,"o":"m 153 321 q 152 450 153 399 q 149 533 151 501 q 143 581 147 565 q 131 606 138 597 q 114 614 125 611 q 93 617 103 616 q 67 618 81 619 l 76 657 q 109 668 91 662 q 144 681 124 674 q 185 696 163 688 q 221 710 205 703 q 250 722 238 716 q 276 733 264 728 l 286 721 q 283 494 285 602 q 282 401 283 449 q 282 308 282 353 q 281 224 281 263 q 281 158 281 185 q 283 86 281 113 q 300 53 285 59 q 317 48 308 49 q 342 47 326 47 q 356 47 348 47 q 371 48 363 47 q 388 49 378 48 l 375 0 l 76 -4 l 86 39 q 99 41 92 39 q 111 45 104 42 q 124 54 117 49 q 141 88 135 64 q 150 145 147 111 q 152 224 152 180 q 153 321 153 269 m 400 789 q 355 818 378 802 q 306 855 331 835 q 259 900 282 876 q 217 953 236 924 q 174 900 197 924 q 127 855 151 876 q 79 818 103 835 q 33 789 55 802 l 21 801 q 47 838 33 818 q 73 876 58 854 q 103 922 88 898 q 127 965 115 942 q 151 1006 140 987 q 176 1051 164 1029 q 190 1058 182 1055 q 203 1062 195 1060 q 219 1064 211 1064 q 235 1062 228 1064 q 249 1058 243 1060 q 263 1051 256 1055 q 288 1006 275 1029 q 311 965 299 987 q 336 922 324 942 q 365 876 351 898 q 390 838 379 854 q 413 801 402 818 l 400 789 z "},"":{"ha":433,"x_min":-10,"x_max":443,"o":"m 153 321 q 152 450 153 399 q 149 533 151 501 q 143 581 147 565 q 131 606 138 597 q 114 614 125 611 q 93 617 103 616 q 67 618 81 619 l 76 657 q 109 668 91 662 q 144 681 124 674 q 185 696 163 688 q 221 710 205 703 q 250 722 238 716 q 276 733 264 728 l 286 721 q 283 494 285 602 q 282 401 283 449 q 282 308 282 353 q 281 224 281 263 q 281 158 281 185 q 283 86 281 113 q 300 53 285 59 q 317 48 308 49 q 342 47 326 47 q 356 47 348 47 q 371 48 363 47 q 388 49 378 48 l 375 0 l 76 -4 l 86 39 q 99 41 92 39 q 111 45 104 42 q 124 54 117 49 q 141 88 135 64 q 150 145 147 111 q 152 224 152 180 q 153 321 153 269 m -10 921 q -6 962 -10 944 q 3 993 -2 980 q 17 1019 9 1008 q 26 1022 22 1020 q 36 1023 31 1022 q 47 1024 42 1024 q 81 1022 63 1024 q 115 1014 99 1020 q 140 997 130 1008 q 150 967 150 985 q 146 925 150 944 q 137 894 142 907 q 124 867 131 878 q 114 865 119 866 q 104 864 110 865 q 93 864 99 864 q 59 866 77 864 q 26 873 41 867 q 0 890 10 879 q -10 921 -10 901 m 283 921 q 287 962 283 944 q 297 993 291 980 q 310 1019 302 1008 q 319 1022 315 1020 q 329 1023 324 1022 q 340 1024 335 1024 q 374 1022 356 1024 q 408 1014 392 1020 q 433 997 423 1008 q 443 967 443 985 q 439 925 443 944 q 430 894 435 907 q 417 867 424 878 q 407 865 412 866 q 397 864 403 865 q 386 864 392 864 q 352 866 370 864 q 319 873 334 867 q 293 890 303 879 q 283 921 283 901 z "},"":{"ha":792,"x_min":76,"x_max":717,"o":"m 581 318 q 576 385 581 351 q 562 452 572 419 q 537 514 552 485 q 501 565 522 543 q 453 600 480 587 q 393 613 426 613 q 314 592 348 613 q 257 536 280 572 q 224 452 235 501 q 213 346 213 403 q 217 279 213 313 q 231 211 222 244 q 256 150 241 178 q 292 99 272 121 q 340 64 313 77 q 400 51 367 51 q 479 72 445 51 q 536 127 513 92 q 569 212 558 163 q 581 318 581 260 m 551 910 q 616 816 586 869 q 669 698 647 763 q 704 554 691 633 q 717 382 717 475 q 691 217 717 291 q 622 92 666 144 q 519 11 578 40 q 392 -17 460 -17 q 268 6 326 -17 q 168 73 211 29 q 101 181 126 117 q 76 326 76 244 q 102 463 76 398 q 171 575 127 527 q 274 652 215 624 q 401 681 333 681 q 479 667 445 681 q 536 638 513 653 q 583 594 563 619 q 539 744 569 678 q 472 860 509 810 l 307 756 l 276 821 l 425 915 q 340 988 383 959 q 263 1035 297 1017 q 185 1067 222 1055 q 206 1090 185 1090 q 268 1083 233 1090 q 342 1061 303 1076 q 420 1022 381 1047 q 499 964 460 998 l 638 1053 l 674 985 l 551 910 z "},"":{"ha":847,"x_min":67,"x_max":797,"o":"m 785 0 l 489 -4 l 499 39 q 517 43 508 40 q 533 52 524 47 q 547 69 541 58 q 564 129 558 88 q 573 221 570 170 q 576 328 576 272 q 576 432 576 383 q 570 512 576 476 q 547 573 564 548 q 502 611 531 598 q 431 625 474 625 q 373 614 399 625 q 326 590 346 603 q 282 556 302 575 q 280 412 281 483 q 279 348 279 381 q 278 282 278 315 q 278 217 278 249 q 278 158 278 185 q 280 86 278 113 q 297 53 283 59 q 314 48 305 49 q 339 47 323 47 q 353 47 345 47 q 368 48 360 47 q 385 49 376 48 l 372 0 l 76 -4 l 86 39 q 99 41 92 39 q 111 45 104 42 q 124 54 117 49 q 141 88 135 64 q 150 145 147 111 q 152 224 152 180 q 153 321 153 269 q 152 450 153 399 q 149 533 151 501 q 143 581 147 565 q 131 606 138 597 q 114 614 125 611 q 93 617 103 616 q 67 618 81 619 l 76 657 q 105 668 91 663 q 131 679 117 673 q 157 690 145 685 q 185 705 172 697 q 210 719 199 713 q 233 733 222 726 q 245 718 239 726 q 256 700 251 710 q 267 675 262 689 q 274 650 271 663 q 278 627 276 637 q 281 604 280 615 q 356 663 315 637 q 393 685 373 674 q 435 703 413 695 q 481 717 457 712 q 529 722 504 722 q 615 701 581 722 q 669 643 649 679 q 698 561 690 608 q 706 467 706 515 q 703 390 706 432 q 699 304 701 348 q 695 218 697 260 q 693 139 693 175 q 695 87 693 105 q 707 60 697 69 q 738 51 717 52 q 797 49 758 49 l 785 0 m 507 960 q 554 968 533 960 q 591 987 575 976 q 624 1014 609 999 q 629 1006 626 1010 q 633 997 631 1002 q 635 986 635 992 q 634 975 635 981 q 631 967 633 970 q 628 958 629 962 q 592 909 612 931 q 551 875 574 890 q 499 860 528 860 q 457 870 477 860 q 418 892 438 880 q 379 914 399 903 q 338 924 359 924 q 291 915 312 924 q 253 897 269 906 q 221 869 235 884 q 215 878 218 874 q 211 886 213 881 q 210 897 210 892 q 213 916 210 907 q 217 925 215 920 q 253 974 233 952 q 293 1008 270 992 q 346 1024 317 1024 q 387 1014 367 1024 q 426 992 407 1003 q 466 970 446 980 q 507 960 485 960 z "},"":{"ha":792,"x_min":67,"x_max":725,"o":"m 401 722 q 535 699 475 722 q 637 631 594 676 q 702 517 679 585 q 725 358 725 449 q 699 209 725 278 q 629 90 674 140 q 523 12 584 40 q 390 -17 462 -17 q 263 6 322 -17 q 160 75 204 29 q 92 188 117 120 q 67 347 67 256 q 92 497 67 428 q 163 615 118 565 q 269 694 208 665 q 401 722 331 722 m 400 51 q 482 72 447 51 q 541 129 517 92 q 576 220 564 167 q 588 339 588 273 q 577 453 588 397 q 542 555 566 510 q 482 627 519 599 q 393 654 445 654 q 311 634 346 654 q 252 576 276 614 q 216 486 228 539 q 204 367 204 433 q 215 252 204 309 q 250 151 226 196 q 311 79 274 106 q 400 51 348 51 m 472 790 q 422 844 447 817 q 375 894 399 867 q 328 943 350 921 q 295 973 314 957 q 261 1005 277 990 q 222 1040 242 1022 l 222 1044 q 250 1054 235 1050 q 281 1061 263 1058 q 318 1064 298 1064 q 342 1062 335 1064 q 356 1053 349 1060 q 383 1014 366 1042 q 418 949 399 985 q 454 873 436 913 q 486 799 472 833 l 472 790 z "},"":{"ha":792,"x_min":67,"x_max":725,"o":"m 401 722 q 535 699 475 722 q 637 631 594 676 q 702 517 679 585 q 725 358 725 449 q 699 209 725 278 q 629 90 674 140 q 523 12 584 40 q 390 -17 462 -17 q 263 6 322 -17 q 160 75 204 29 q 92 188 117 120 q 67 347 67 256 q 92 497 67 428 q 163 615 118 565 q 269 694 208 665 q 401 722 331 722 m 400 51 q 482 72 447 51 q 541 129 517 92 q 576 220 564 167 q 588 339 588 273 q 577 453 588 397 q 542 555 566 510 q 482 627 519 599 q 393 654 445 654 q 311 634 346 654 q 252 576 276 614 q 216 486 228 539 q 204 367 204 433 q 215 252 204 309 q 250 151 226 196 q 311 79 274 106 q 400 51 348 51 m 529 1025 q 520 991 529 1009 q 497 953 512 972 q 464 914 483 933 q 427 876 446 894 q 325 789 382 833 l 310 800 q 330 835 318 815 q 353 875 340 851 q 382 931 366 899 q 410 992 399 963 q 431 1051 421 1021 q 450 1058 440 1055 q 468 1062 458 1060 q 485 1064 477 1064 q 500 1062 492 1064 q 515 1055 508 1060 q 525 1043 521 1051 q 529 1025 529 1036 z "},"":{"ha":792,"x_min":67,"x_max":725,"o":"m 401 722 q 535 699 475 722 q 637 631 594 676 q 702 517 679 585 q 725 358 725 449 q 699 209 725 278 q 629 90 674 140 q 523 12 584 40 q 390 -17 462 -17 q 263 6 322 -17 q 160 75 204 29 q 92 188 117 120 q 67 347 67 256 q 92 497 67 428 q 163 615 118 565 q 269 694 208 665 q 401 722 331 722 m 400 51 q 482 72 447 51 q 541 129 517 92 q 576 220 564 167 q 588 339 588 273 q 577 453 588 397 q 542 555 566 510 q 482 627 519 599 q 393 654 445 654 q 311 634 346 654 q 252 576 276 614 q 216 486 228 539 q 204 367 204 433 q 215 252 204 309 q 250 151 226 196 q 311 79 274 106 q 400 51 348 51 m 579 789 q 534 818 558 802 q 485 855 510 835 q 438 900 461 876 q 396 953 415 924 q 353 900 376 924 q 306 855 331 876 q 258 818 282 835 q 213 789 234 802 l 200 801 q 226 838 213 818 q 252 876 238 854 q 282 922 267 898 q 307 965 294 942 q 331 1006 319 987 q 356 1051 343 1029 q 369 1058 361 1055 q 382 1062 374 1060 q 399 1064 390 1064 q 415 1062 407 1064 q 428 1058 422 1060 q 442 1051 435 1055 q 467 1006 454 1029 q 491 965 478 987 q 515 922 503 942 q 544 876 531 898 q 569 838 558 854 q 592 801 581 818 l 579 789 z "},"":{"ha":792,"x_min":67,"x_max":725,"o":"m 401 722 q 535 699 475 722 q 637 631 594 676 q 702 517 679 585 q 725 358 725 449 q 699 209 725 278 q 629 90 674 140 q 523 12 584 40 q 390 -17 462 -17 q 263 6 322 -17 q 160 75 204 29 q 92 188 117 120 q 67 347 67 256 q 92 497 67 428 q 163 615 118 565 q 269 694 208 665 q 401 722 331 722 m 400 51 q 482 72 447 51 q 541 129 517 92 q 576 220 564 167 q 588 339 588 273 q 577 453 588 397 q 542 555 566 510 q 482 627 519 599 q 393 654 445 654 q 311 634 346 654 q 252 576 276 614 q 216 486 228 539 q 204 367 204 433 q 215 252 204 309 q 250 151 226 196 q 311 79 274 106 q 400 51 348 51 m 481 960 q 527 968 506 960 q 565 987 549 976 q 597 1014 583 999 q 603 1006 600 1010 q 607 997 605 1002 q 608 986 608 992 q 607 975 608 981 q 605 967 606 970 q 601 958 603 962 q 565 909 585 931 q 525 875 548 890 q 472 860 501 860 q 431 870 451 860 q 392 892 411 880 q 352 914 372 903 q 311 924 333 924 q 264 915 285 924 q 227 897 243 906 q 194 869 209 884 q 189 878 192 874 q 185 886 187 881 q 183 897 183 892 q 187 916 183 907 q 190 925 188 920 q 226 974 206 952 q 267 1008 244 992 q 319 1024 290 1024 q 361 1014 341 1024 q 400 992 381 1003 q 439 970 419 980 q 481 960 459 960 z "},"":{"ha":792,"x_min":67,"x_max":725,"o":"m 401 722 q 535 699 475 722 q 637 631 594 676 q 702 517 679 585 q 725 358 725 449 q 699 209 725 278 q 629 90 674 140 q 523 12 584 40 q 390 -17 462 -17 q 263 6 322 -17 q 160 75 204 29 q 92 188 117 120 q 67 347 67 256 q 92 497 67 428 q 163 615 118 565 q 269 694 208 665 q 401 722 331 722 m 400 51 q 482 72 447 51 q 541 129 517 92 q 576 220 564 167 q 588 339 588 273 q 577 453 588 397 q 542 555 566 510 q 482 627 519 599 q 393 654 445 654 q 311 634 346 654 q 252 576 276 614 q 216 486 228 539 q 204 367 204 433 q 215 252 204 309 q 250 151 226 196 q 311 79 274 106 q 400 51 348 51 m 169 921 q 173 962 169 944 q 183 993 177 980 q 196 1019 188 1008 q 206 1022 201 1020 q 215 1023 210 1022 q 226 1024 221 1024 q 260 1022 242 1024 q 294 1014 278 1020 q 319 997 309 1008 q 329 967 329 985 q 325 925 329 944 q 316 894 321 907 q 303 867 310 878 q 293 865 298 866 q 283 864 289 865 q 272 864 278 864 q 238 866 256 864 q 205 873 220 867 q 180 890 190 879 q 169 921 169 901 m 463 921 q 466 962 463 944 q 476 993 470 980 q 489 1019 481 1008 q 499 1022 494 1020 q 508 1023 503 1022 q 519 1024 514 1024 q 553 1022 535 1024 q 587 1014 572 1020 q 612 997 602 1008 q 622 967 622 985 q 618 925 622 944 q 609 894 614 907 q 596 867 603 878 q 586 865 591 866 q 576 864 582 865 q 565 864 571 864 q 531 866 549 864 q 498 873 513 867 q 473 890 483 879 q 463 921 463 901 z "},"":{"ha":694,"x_min":38,"x_max":658,"o":"m 260 107 q 263 138 260 124 q 269 163 265 152 q 277 180 273 173 q 282 190 281 187 q 299 194 290 192 q 317 197 307 196 q 336 199 326 199 q 364 197 348 199 q 394 188 380 195 q 418 166 408 181 q 428 128 428 152 q 419 71 428 93 q 406 43 410 49 q 388 39 397 41 q 371 36 381 38 q 351 35 361 35 q 324 37 340 35 q 293 46 308 39 q 269 68 279 53 q 260 107 260 83 m 260 635 q 263 666 260 652 q 269 690 265 680 q 277 708 273 701 q 282 718 281 715 q 299 722 290 720 q 317 725 307 724 q 336 726 326 726 q 364 725 348 726 q 394 716 380 723 q 418 694 408 708 q 428 656 428 680 q 419 599 428 621 q 406 571 410 577 q 388 567 397 569 q 371 564 381 565 q 351 563 361 563 q 324 565 340 563 q 293 574 308 567 q 269 596 279 581 q 260 635 260 610 m 38 333 l 57 417 l 589 421 q 619 422 607 421 q 639 424 631 423 q 653 428 647 426 l 656 426 q 657 419 656 423 q 658 411 658 416 q 658 401 658 407 q 655 381 658 392 q 640 360 651 370 q 608 343 629 350 q 551 336 587 336 l 38 333 z "},"":{"ha":792,"x_min":67,"x_max":725,"o":"m 632 636 q 701 521 677 590 q 725 358 725 451 q 699 209 725 278 q 629 90 674 140 q 523 12 584 40 q 390 -17 462 -17 q 292 -3 339 -17 q 208 35 245 10 l 190 8 q 155 -39 168 -23 q 126 -54 142 -54 q 108 -50 115 -54 q 97 -40 101 -45 q 89 -25 92 -33 l 160 75 q 91 189 116 121 q 67 347 67 256 q 92 497 67 428 q 163 615 118 565 q 269 694 208 665 q 401 722 331 722 q 582 676 507 722 l 604 708 q 625 737 616 725 q 640 756 633 749 q 654 767 647 764 q 668 771 660 771 q 686 766 679 771 q 698 756 694 762 q 706 742 703 749 l 632 636 m 400 51 q 482 72 447 51 q 541 129 517 92 q 576 220 564 167 q 588 339 588 273 q 582 417 588 383 q 572 476 577 452 q 556 528 564 505 l 269 121 q 324 70 292 90 q 400 51 357 51 m 204 367 q 211 272 204 319 q 235 183 219 224 l 521 589 q 467 636 498 618 q 393 654 436 654 q 311 634 346 654 q 252 576 276 614 q 216 486 228 539 q 204 367 204 433 z "},"":{"ha":840,"x_min":56,"x_max":796,"o":"m 560 100 q 486 42 525 67 q 450 20 469 31 q 409 1 431 10 q 366 -12 388 -7 q 319 -17 343 -17 q 233 5 267 -17 q 178 62 199 26 q 150 144 158 98 q 142 239 142 190 q 143 314 142 273 q 145 395 144 355 q 148 472 147 435 q 149 535 149 508 q 148 586 149 564 q 143 624 147 609 q 116 643 138 640 q 56 646 94 646 l 72 697 q 105 699 88 698 q 136 702 119 701 q 171 706 154 703 q 204 710 186 707 q 238 715 222 713 q 274 722 256 718 l 283 710 q 278 650 281 685 q 275 574 276 615 q 273 490 274 533 q 272 407 272 447 q 271 332 271 367 q 271 274 271 297 q 277 193 271 229 q 298 133 283 158 q 341 94 314 108 q 410 81 368 81 q 468 91 441 81 q 515 115 494 101 q 558 149 538 129 q 560 291 559 220 q 561 353 560 321 q 561 419 561 386 q 562 483 562 452 q 563 542 563 515 q 562 593 563 571 q 557 631 561 616 q 548 643 554 639 q 528 650 541 648 q 497 652 516 652 q 453 653 478 653 l 469 704 q 510 706 490 705 q 548 709 528 708 q 585 713 568 710 q 618 717 600 714 q 651 722 635 719 q 688 729 669 725 l 697 717 q 694 650 695 692 q 691 556 692 607 q 689 449 690 504 q 688 345 689 394 q 688 258 688 296 q 688 204 688 220 q 688 138 688 163 q 690 96 688 112 q 694 73 691 81 q 703 61 697 66 q 722 54 709 56 q 750 53 735 53 q 765 53 757 53 q 780 54 773 53 q 796 56 788 55 l 783 7 q 745 5 764 6 q 711 2 729 3 q 676 -1 692 1 q 645 -6 663 -3 q 613 -11 628 -8 q 578 -18 595 -14 l 568 -6 q 564 25 566 8 q 561 58 563 39 q 560 100 560 78 m 500 790 q 449 844 474 817 q 402 894 427 867 q 356 943 378 921 q 323 973 342 957 q 289 1005 305 990 q 250 1040 269 1022 l 250 1044 q 278 1054 263 1050 q 308 1061 291 1058 q 346 1064 326 1064 q 370 1062 363 1064 q 383 1053 377 1060 q 410 1014 394 1042 q 445 949 427 985 q 482 873 464 913 q 514 799 500 833 l 500 790 z "},"":{"ha":840,"x_min":56,"x_max":796,"o":"m 560 100 q 486 42 525 67 q 450 20 469 31 q 409 1 431 10 q 366 -12 388 -7 q 319 -17 343 -17 q 233 5 267 -17 q 178 62 199 26 q 150 144 158 98 q 142 239 142 190 q 143 314 142 273 q 145 395 144 355 q 148 472 147 435 q 149 535 149 508 q 148 586 149 564 q 143 624 147 609 q 116 643 138 640 q 56 646 94 646 l 72 697 q 105 699 88 698 q 136 702 119 701 q 171 706 154 703 q 204 710 186 707 q 238 715 222 713 q 274 722 256 718 l 283 710 q 278 650 281 685 q 275 574 276 615 q 273 490 274 533 q 272 407 272 447 q 271 332 271 367 q 271 274 271 297 q 277 193 271 229 q 298 133 283 158 q 341 94 314 108 q 410 81 368 81 q 468 91 441 81 q 515 115 494 101 q 558 149 538 129 q 560 291 559 220 q 561 353 560 321 q 561 419 561 386 q 562 483 562 452 q 563 542 563 515 q 562 593 563 571 q 557 631 561 616 q 548 643 554 639 q 528 650 541 648 q 497 652 516 652 q 453 653 478 653 l 469 704 q 510 706 490 705 q 548 709 528 708 q 585 713 568 710 q 618 717 600 714 q 651 722 635 719 q 688 729 669 725 l 697 717 q 694 650 695 692 q 691 556 692 607 q 689 449 690 504 q 688 345 689 394 q 688 258 688 296 q 688 204 688 220 q 688 138 688 163 q 690 96 688 112 q 694 73 691 81 q 703 61 697 66 q 722 54 709 56 q 750 53 735 53 q 765 53 757 53 q 780 54 773 53 q 796 56 788 55 l 783 7 q 745 5 764 6 q 711 2 729 3 q 676 -1 692 1 q 645 -6 663 -3 q 613 -11 628 -8 q 578 -18 595 -14 l 568 -6 q 564 25 566 8 q 561 58 563 39 q 560 100 560 78 m 533 1025 q 525 991 533 1009 q 501 953 516 972 q 468 914 487 933 q 431 876 450 894 q 329 789 386 833 l 314 800 q 334 835 322 815 q 357 875 344 851 q 386 931 370 899 q 414 992 403 963 q 435 1051 425 1021 q 454 1058 444 1055 q 472 1062 463 1060 q 489 1064 481 1064 q 505 1062 497 1064 q 519 1055 513 1060 q 529 1043 525 1051 q 533 1025 533 1036 z "},"":{"ha":840,"x_min":56,"x_max":796,"o":"m 560 100 q 486 42 525 67 q 450 20 469 31 q 409 1 431 10 q 366 -12 388 -7 q 319 -17 343 -17 q 233 5 267 -17 q 178 62 199 26 q 150 144 158 98 q 142 239 142 190 q 143 314 142 273 q 145 395 144 355 q 148 472 147 435 q 149 535 149 508 q 148 586 149 564 q 143 624 147 609 q 116 643 138 640 q 56 646 94 646 l 72 697 q 105 699 88 698 q 136 702 119 701 q 171 706 154 703 q 204 710 186 707 q 238 715 222 713 q 274 722 256 718 l 283 710 q 278 650 281 685 q 275 574 276 615 q 273 490 274 533 q 272 407 272 447 q 271 332 271 367 q 271 274 271 297 q 277 193 271 229 q 298 133 283 158 q 341 94 314 108 q 410 81 368 81 q 468 91 441 81 q 515 115 494 101 q 558 149 538 129 q 560 291 559 220 q 561 353 560 321 q 561 419 561 386 q 562 483 562 452 q 563 542 563 515 q 562 593 563 571 q 557 631 561 616 q 548 643 554 639 q 528 650 541 648 q 497 652 516 652 q 453 653 478 653 l 469 704 q 510 706 490 705 q 548 709 528 708 q 585 713 568 710 q 618 717 600 714 q 651 722 635 719 q 688 729 669 725 l 697 717 q 694 650 695 692 q 691 556 692 607 q 689 449 690 504 q 688 345 689 394 q 688 258 688 296 q 688 204 688 220 q 688 138 688 163 q 690 96 688 112 q 694 73 691 81 q 703 61 697 66 q 722 54 709 56 q 750 53 735 53 q 765 53 757 53 q 780 54 773 53 q 796 56 788 55 l 783 7 q 745 5 764 6 q 711 2 729 3 q 676 -1 692 1 q 645 -6 663 -3 q 613 -11 628 -8 q 578 -18 595 -14 l 568 -6 q 564 25 566 8 q 561 58 563 39 q 560 100 560 78 m 599 789 q 553 818 577 802 q 505 855 529 835 q 458 900 481 876 q 415 953 435 924 q 373 900 396 924 q 326 855 350 876 q 277 818 301 835 q 232 789 253 802 l 219 801 q 245 838 232 818 q 272 876 257 854 q 301 922 286 898 q 326 965 313 942 q 350 1006 339 987 q 375 1051 363 1029 q 388 1058 381 1055 q 402 1062 394 1060 q 418 1064 410 1064 q 434 1062 426 1064 q 448 1058 442 1060 q 461 1051 455 1055 q 486 1006 474 1029 q 510 965 497 987 q 535 922 523 942 q 564 876 550 898 q 588 838 578 854 q 611 801 601 818 l 599 789 z "},"":{"ha":840,"x_min":56,"x_max":796,"o":"m 560 100 q 486 42 525 67 q 450 20 469 31 q 409 1 431 10 q 366 -12 388 -7 q 319 -17 343 -17 q 233 5 267 -17 q 178 62 199 26 q 150 144 158 98 q 142 239 142 190 q 143 314 142 273 q 145 395 144 355 q 148 472 147 435 q 149 535 149 508 q 148 586 149 564 q 143 624 147 609 q 116 643 138 640 q 56 646 94 646 l 72 697 q 105 699 88 698 q 136 702 119 701 q 171 706 154 703 q 204 710 186 707 q 238 715 222 713 q 274 722 256 718 l 283 710 q 278 650 281 685 q 275 574 276 615 q 273 490 274 533 q 272 407 272 447 q 271 332 271 367 q 271 274 271 297 q 277 193 271 229 q 298 133 283 158 q 341 94 314 108 q 410 81 368 81 q 468 91 441 81 q 515 115 494 101 q 558 149 538 129 q 560 291 559 220 q 561 353 560 321 q 561 419 561 386 q 562 483 562 452 q 563 542 563 515 q 562 593 563 571 q 557 631 561 616 q 548 643 554 639 q 528 650 541 648 q 497 652 516 652 q 453 653 478 653 l 469 704 q 510 706 490 705 q 548 709 528 708 q 585 713 568 710 q 618 717 600 714 q 651 722 635 719 q 688 729 669 725 l 697 717 q 694 650 695 692 q 691 556 692 607 q 689 449 690 504 q 688 345 689 394 q 688 258 688 296 q 688 204 688 220 q 688 138 688 163 q 690 96 688 112 q 694 73 691 81 q 703 61 697 66 q 722 54 709 56 q 750 53 735 53 q 765 53 757 53 q 780 54 773 53 q 796 56 788 55 l 783 7 q 745 5 764 6 q 711 2 729 3 q 676 -1 692 1 q 645 -6 663 -3 q 613 -11 628 -8 q 578 -18 595 -14 l 568 -6 q 564 25 566 8 q 561 58 563 39 q 560 100 560 78 m 190 921 q 194 962 190 944 q 203 993 198 980 q 217 1019 209 1008 q 226 1022 222 1020 q 236 1023 231 1022 q 247 1024 242 1024 q 281 1022 263 1024 q 315 1014 299 1020 q 340 997 330 1008 q 350 967 350 985 q 346 925 350 944 q 337 894 342 907 q 324 867 331 878 q 314 865 319 866 q 304 864 310 865 q 293 864 299 864 q 259 866 277 864 q 226 873 241 867 q 200 890 210 879 q 190 921 190 901 m 483 921 q 487 962 483 944 q 497 993 491 980 q 510 1019 502 1008 q 519 1022 515 1020 q 529 1023 524 1022 q 540 1024 535 1024 q 574 1022 556 1024 q 608 1014 592 1020 q 633 997 623 1008 q 643 967 643 985 q 639 925 643 944 q 630 894 635 907 q 617 867 624 878 q 607 865 612 866 q 597 864 603 865 q 586 864 592 864 q 552 866 570 864 q 519 873 534 867 q 493 890 503 879 q 483 921 483 901 z "},"":{"ha":694,"x_min":3,"x_max":692,"o":"m 321 14 q 209 313 260 179 q 166 425 188 369 q 126 525 144 480 q 94 601 108 571 q 75 639 81 632 q 52 650 67 648 q 3 653 36 653 l 15 701 l 319 706 l 308 663 q 246 657 265 663 q 228 636 228 651 q 229 628 228 632 q 232 619 230 625 l 383 181 l 386 181 l 544 615 q 549 632 549 626 q 525 653 549 649 q 458 658 502 658 l 469 701 l 692 706 l 679 658 q 662 658 671 658 q 644 654 653 657 q 630 645 636 651 q 619 631 623 640 l 313 -183 q 226 -319 280 -270 q 97 -368 173 -368 q 32 -352 58 -368 q 7 -311 7 -335 q 17 -282 7 -293 q 38 -264 26 -270 q 69 -253 51 -256 q 84 -264 75 -259 q 103 -272 92 -268 q 132 -275 115 -275 q 197 -253 169 -275 q 240 -192 224 -231 l 321 14 m 457 1025 q 448 991 457 1009 q 425 953 440 972 q 392 914 410 933 q 355 876 374 894 q 253 789 310 833 l 238 800 q 258 835 246 815 q 281 875 267 851 q 310 931 294 899 q 338 992 326 963 q 358 1051 349 1021 q 378 1058 368 1055 q 395 1062 386 1060 q 413 1064 405 1064 q 428 1062 420 1064 q 442 1055 436 1060 q 453 1043 449 1051 q 457 1025 457 1036 z "},"":{"ha":807,"x_min":21,"x_max":738,"o":"m 258 104 q 293 85 273 93 q 334 71 310 77 q 390 65 359 65 q 477 83 438 65 q 544 135 516 100 q 588 224 572 171 q 603 350 603 278 q 588 472 603 420 q 549 558 574 524 q 490 608 524 592 q 419 625 457 625 q 354 614 383 625 q 305 591 325 603 q 263 557 281 576 l 258 104 m 263 606 q 328 664 292 638 q 363 685 344 675 q 403 704 382 696 q 448 717 424 713 q 499 722 472 722 q 593 698 549 722 q 668 629 636 673 q 719 523 701 585 q 738 388 738 461 q 708 238 738 308 q 627 113 678 167 q 511 28 577 60 q 372 -3 444 -3 q 327 0 348 -3 q 291 6 306 3 q 258 15 273 10 l 258 -194 q 260 -267 258 -240 q 276 -300 262 -294 q 284 -302 280 -301 q 294 -304 288 -303 q 309 -305 300 -305 q 335 -306 319 -306 q 356 -306 344 -306 q 378 -305 368 -306 q 403 -304 391 -305 l 390 -353 l 56 -357 l 65 -314 q 78 -312 71 -314 q 90 -307 83 -310 q 103 -299 97 -304 q 120 -265 114 -289 q 129 -207 126 -242 q 132 -128 131 -173 q 132 -32 132 -84 l 132 403 q 132 493 132 447 q 132 582 132 538 q 131 668 131 626 q 131 748 131 710 q 131 917 131 835 q 130 968 131 946 q 125 1006 129 991 q 116 1018 122 1014 q 97 1025 109 1023 q 65 1027 84 1027 q 21 1028 47 1028 l 38 1079 q 78 1081 58 1080 q 116 1084 96 1083 q 153 1088 136 1085 q 186 1092 168 1089 q 219 1097 203 1094 q 256 1104 238 1100 l 265 1092 l 263 606 z "},"":{"ha":694,"x_min":3,"x_max":692,"o":"m 321 14 q 209 313 260 179 q 166 425 188 369 q 126 525 144 480 q 94 601 108 571 q 75 639 81 632 q 52 650 67 648 q 3 653 36 653 l 15 701 l 319 706 l 308 663 q 246 657 265 663 q 228 636 228 651 q 229 628 228 632 q 232 619 230 625 l 383 181 l 386 181 l 544 615 q 549 632 549 626 q 525 653 549 649 q 458 658 502 658 l 469 701 l 692 706 l 679 658 q 662 658 671 658 q 644 654 653 657 q 630 645 636 651 q 619 631 623 640 l 313 -183 q 226 -319 280 -270 q 97 -368 173 -368 q 32 -352 58 -368 q 7 -311 7 -335 q 17 -282 7 -293 q 38 -264 26 -270 q 69 -253 51 -256 q 84 -264 75 -259 q 103 -272 92 -268 q 132 -275 115 -275 q 197 -253 169 -275 q 240 -192 224 -231 l 321 14 m 121 921 q 125 962 121 944 q 134 993 128 980 q 147 1019 140 1008 q 157 1022 152 1020 q 167 1023 161 1022 q 178 1024 172 1024 q 212 1022 194 1024 q 245 1014 230 1020 q 270 997 260 1008 q 281 967 281 985 q 276 925 281 944 q 267 894 272 907 q 254 867 261 878 q 244 865 249 866 q 235 864 240 865 q 224 864 229 864 q 190 866 208 864 q 156 873 172 867 q 131 890 141 879 q 121 921 121 901 m 414 921 q 418 962 414 944 q 427 993 422 980 q 440 1019 433 1008 q 450 1022 445 1020 q 460 1023 454 1022 q 471 1024 465 1024 q 505 1022 487 1024 q 538 1014 523 1020 q 564 997 553 1008 q 574 967 574 985 q 569 925 574 944 q 560 894 565 907 q 547 867 554 878 q 538 865 542 866 q 528 864 533 865 q 517 864 522 864 q 483 866 501 864 q 449 873 465 867 q 424 890 434 879 q 414 921 414 901 z "},"":{"ha":433,"x_min":67,"x_max":388,"o":"m 153 321 q 152 450 153 399 q 149 533 151 501 q 143 581 147 565 q 131 606 138 597 q 114 614 125 611 q 93 617 103 616 q 67 618 81 619 l 76 657 q 109 668 91 662 q 144 681 124 674 q 185 696 163 688 q 221 710 205 703 q 250 722 238 716 q 276 733 264 728 l 286 721 q 283 494 285 602 q 282 401 283 449 q 282 308 282 353 q 281 224 281 263 q 281 158 281 185 q 283 86 281 113 q 300 53 285 59 q 317 48 308 49 q 342 47 326 47 q 356 47 348 47 q 371 48 363 47 q 388 49 378 48 l 375 0 l 76 -4 l 86 39 q 99 41 92 39 q 111 45 104 42 q 124 54 117 49 q 141 88 135 64 q 150 145 147 111 q 152 224 152 180 q 153 321 153 269 z "},"":{"ha":1569,"x_min":72,"x_max":1528,"o":"m 818 454 q 810 553 818 502 q 785 652 801 604 q 743 743 768 700 q 684 817 717 785 q 607 867 650 849 q 513 886 564 886 q 388 856 443 886 q 294 772 333 825 q 235 647 256 719 q 214 490 214 574 q 223 391 214 442 q 249 292 231 340 q 292 201 266 244 q 352 126 318 158 q 430 76 387 94 q 525 57 473 57 q 649 88 594 57 q 741 172 703 118 q 798 298 778 225 q 818 454 818 370 m 1283 -17 q 1176 -7 1225 -17 q 1088 18 1128 2 q 1018 53 1049 33 q 963 93 987 72 q 876 203 908 142 q 784 93 838 142 q 733 53 761 72 q 670 18 704 33 q 595 -7 635 2 q 510 -17 556 -17 q 342 16 421 -17 q 202 110 263 49 q 107 261 142 172 q 72 464 72 351 q 89 593 72 531 q 136 712 106 656 q 208 813 166 767 q 300 892 249 859 q 407 944 350 926 q 525 963 464 963 q 620 953 576 963 q 699 928 663 944 q 763 893 735 913 q 814 853 792 874 q 897 743 865 804 q 990 852 933 803 q 1045 892 1014 872 q 1114 927 1076 912 q 1197 952 1151 942 q 1294 961 1242 961 q 1344 958 1322 961 q 1387 952 1367 956 q 1424 947 1407 949 q 1457 944 1441 944 q 1482 946 1471 944 q 1501 949 1493 947 q 1517 954 1510 951 l 1519 950 l 1514 750 l 1460 753 q 1452 805 1458 785 q 1429 843 1445 825 q 1369 881 1404 872 q 1282 890 1335 890 q 1148 862 1206 890 q 1049 784 1090 833 q 987 669 1009 735 q 963 526 965 602 l 1089 528 q 1132 528 1107 528 q 1183 529 1156 528 q 1235 530 1209 529 q 1282 533 1261 531 q 1317 538 1303 535 q 1333 544 1331 540 q 1338 559 1337 550 q 1340 578 1339 569 q 1342 600 1341 588 l 1399 599 l 1394 374 l 1339 376 q 1339 395 1339 385 q 1338 417 1339 406 q 1336 435 1338 427 q 1333 447 1335 444 q 1308 454 1331 451 q 1251 459 1285 457 q 1181 463 1218 462 q 1113 465 1143 465 l 961 467 q 971 378 962 425 q 998 286 980 331 q 1042 199 1015 240 q 1106 126 1069 158 q 1188 76 1142 94 q 1290 57 1234 57 q 1344 63 1320 57 q 1387 80 1368 69 q 1419 102 1406 90 q 1444 129 1433 115 q 1478 201 1467 161 l 1528 189 l 1508 35 q 1447 9 1481 20 q 1375 -9 1417 -1 q 1283 -17 1334 -17 z "},"":{"ha":1168,"x_min":67,"x_max":1129,"o":"m 383 51 q 458 72 426 51 q 511 129 490 92 q 543 220 533 167 q 554 339 554 273 q 544 453 554 397 q 513 555 534 510 q 457 627 491 599 q 376 654 424 654 q 301 634 333 654 q 248 576 269 614 q 215 486 226 539 q 204 367 204 433 q 214 252 204 309 q 246 151 224 196 q 302 79 268 106 q 383 51 336 51 m 688 385 q 705 255 688 315 q 753 153 722 196 q 831 85 785 110 q 932 61 876 61 q 1000 69 967 61 q 1056 86 1032 76 q 1110 111 1085 97 l 1121 97 q 1053 40 1091 65 q 972 1 1019 19 q 863 -17 924 -17 q 786 -8 824 -17 q 716 17 749 0 q 658 59 684 33 q 615 118 632 84 q 570 60 597 85 q 513 18 544 35 q 446 -8 481 1 q 374 -17 410 -17 q 252 6 308 -17 q 155 75 197 29 q 90 188 114 120 q 67 347 67 256 q 91 497 67 428 q 158 615 115 565 q 258 694 201 665 q 383 722 316 722 q 466 713 426 722 q 538 686 505 704 q 597 642 571 669 q 639 581 622 615 q 686 637 658 611 q 746 682 714 663 q 814 711 778 701 q 885 722 850 722 q 966 710 931 722 q 1030 676 1002 697 q 1076 626 1057 654 q 1107 568 1094 599 q 1124 507 1119 538 q 1129 449 1129 476 q 1129 434 1129 442 q 1128 419 1128 426 q 1128 403 1128 411 l 688 389 l 688 385 m 1018 464 q 1011 520 1018 488 q 988 581 1004 552 q 943 630 971 610 q 874 650 915 650 q 809 634 840 650 q 755 591 779 619 q 714 526 731 564 q 690 446 697 489 l 1018 464 z "},"":{"ha":722,"x_min":96,"x_max":642,"o":"m 642 231 q 614 118 642 165 q 543 41 586 71 q 447 -3 499 11 q 344 -17 394 -17 q 256 -7 297 -17 q 183 16 214 3 q 115 49 146 30 l 96 203 l 146 215 q 185 136 158 171 q 211 107 196 122 q 245 82 226 93 q 289 64 265 71 q 343 57 313 57 q 403 66 373 57 q 458 94 433 76 q 498 141 483 113 q 514 207 514 169 q 497 278 514 247 q 451 337 479 310 q 387 389 423 364 q 313 439 351 414 q 240 492 276 465 q 175 554 203 520 q 130 629 147 588 q 113 722 113 670 q 126 800 113 765 q 161 861 139 835 q 211 907 183 888 q 269 938 239 926 q 329 956 299 950 q 385 961 359 961 q 447 956 419 961 q 496 945 475 951 q 531 934 517 939 q 553 929 545 929 q 562 933 559 929 q 567 942 565 937 q 568 954 568 947 l 622 968 l 628 763 l 572 747 l 571 767 q 551 824 569 801 q 507 860 533 847 q 451 880 481 874 q 397 886 422 886 q 340 877 368 886 q 290 850 312 868 q 254 805 267 832 q 240 743 240 778 q 258 676 240 706 q 303 618 275 645 q 367 565 331 590 q 441 512 403 539 q 515 457 478 485 q 579 394 551 428 q 624 320 607 360 q 642 231 642 280 m 364 1138 q 444 1220 399 1188 q 532 1271 489 1252 l 544 1258 q 522 1228 534 1245 q 499 1194 512 1215 q 469 1150 485 1174 q 445 1109 456 1129 q 424 1072 433 1088 q 406 1036 414 1053 q 392 1030 399 1033 q 377 1025 385 1027 q 361 1024 369 1024 q 344 1025 352 1024 q 330 1030 336 1027 q 317 1036 322 1033 q 298 1072 308 1053 q 277 1109 289 1088 q 253 1150 266 1129 q 223 1194 237 1174 q 199 1228 209 1215 q 178 1258 187 1245 l 190 1271 q 236 1249 213 1261 q 282 1220 259 1237 q 325 1184 304 1204 q 364 1138 346 1163 z "},"":{"ha":468,"x_min":47,"x_max":497,"o":"m 497 183 q 473 92 497 130 q 411 30 449 53 q 329 -6 374 6 q 243 -17 284 -17 q 175 -9 207 -17 q 118 8 142 -1 q 65 33 90 19 l 47 181 l 92 192 q 115 121 97 152 q 133 95 122 108 q 159 72 144 82 q 194 56 174 63 q 240 50 215 50 q 294 58 269 50 q 337 80 319 65 q 365 115 355 94 q 375 160 375 135 q 361 207 375 185 q 325 247 348 228 q 274 283 303 265 q 216 318 246 300 q 158 358 186 337 q 107 404 129 378 q 70 461 84 429 q 57 532 57 492 q 78 613 57 578 q 131 673 99 649 q 205 710 164 697 q 285 722 245 722 q 335 717 313 722 q 373 707 357 713 q 400 697 389 701 q 419 692 412 692 q 430 696 426 692 q 434 706 433 701 q 435 721 435 713 l 483 733 l 486 535 l 435 521 q 432 548 434 535 q 428 573 431 560 q 422 597 426 586 q 404 625 417 614 q 375 644 392 637 q 341 655 359 651 q 306 658 323 658 q 259 651 282 658 q 219 631 237 644 q 190 597 201 617 q 179 550 179 577 q 203 489 179 515 q 262 440 226 463 q 338 394 297 417 q 415 342 379 371 q 474 274 450 313 q 497 183 497 236 m 93 1064 q 139 1034 115 1051 q 187 998 163 1018 q 234 953 211 977 q 276 900 257 928 q 319 953 296 928 q 366 998 342 977 q 414 1034 390 1018 q 460 1064 438 1051 l 472 1051 q 447 1015 460 1034 q 420 976 435 998 q 390 931 406 955 q 366 888 378 910 q 342 846 353 865 q 317 801 329 823 q 303 795 310 798 q 290 791 297 792 q 274 789 282 789 q 257 791 265 789 q 244 795 249 792 q 231 801 236 798 q 206 846 218 823 q 182 888 194 865 q 157 931 169 910 q 128 976 142 955 q 103 1015 114 998 q 81 1051 91 1034 l 93 1064 z "}}}
